<mxfile host="Electron" modified="2024-02-14T12:22:20.796Z" agent="Mozilla/5.0 (Windows NT 10.0; Win64; x64) AppleWebKit/537.36 (KHTML, like Gecko) draw.io/23.0.2 Chrome/120.0.6099.109 Electron/28.1.0 Safari/537.36" etag="83p7OX-yzG9Yv7YJmC2_" version="23.0.2" type="device">
  <diagram name="Page-1" id="ZWSDeJOEaIr2L8Me2n5w">
    <mxGraphModel dx="1805" dy="1745" grid="1" gridSize="10" guides="1" tooltips="1" connect="1" arrows="1" fold="1" page="1" pageScale="1" pageWidth="850" pageHeight="1100" math="0" shadow="0">
      <root>
        <mxCell id="0" />
        <mxCell id="1" parent="0" />
        <mxCell id="Ojkktp4d_7b2jLIS1f6a-234" style="rounded=0;orthogonalLoop=1;jettySize=auto;html=1;exitX=0.99;exitY=0.069;exitDx=0;exitDy=0;entryX=0;entryY=1;entryDx=0;entryDy=0;strokeColor=#CDEB8B;strokeWidth=3;exitPerimeter=0;" parent="1" source="Ojkktp4d_7b2jLIS1f6a-175" target="Ojkktp4d_7b2jLIS1f6a-185" edge="1">
          <mxGeometry relative="1" as="geometry">
            <mxPoint x="1621.57" y="2641" as="sourcePoint" />
            <mxPoint x="1791.57" y="2590" as="targetPoint" />
          </mxGeometry>
        </mxCell>
        <mxCell id="Ojkktp4d_7b2jLIS1f6a-165" value="&lt;font color=&quot;#82b366&quot; style=&quot;font-size: 18px;&quot;&gt;&lt;b&gt;3&lt;/b&gt;&lt;/font&gt;&amp;nbsp;&lt;font size=&quot;1&quot; color=&quot;#6c8ebf&quot; style=&quot;&quot;&gt;&lt;b style=&quot;font-size: 16px;&quot;&gt;Http&lt;/b&gt;&lt;/font&gt;" style="rounded=0;orthogonalLoop=1;jettySize=auto;html=1;exitX=0.999;exitY=0.29;exitDx=0;exitDy=0;entryX=0;entryY=0.25;entryDx=0;entryDy=0;fillColor=#dae8fc;strokeColor=#6c8ebf;strokeWidth=3;startArrow=classic;startFill=1;exitPerimeter=0;" parent="1" source="Ojkktp4d_7b2jLIS1f6a-167" target="Ojkktp4d_7b2jLIS1f6a-174" edge="1">
          <mxGeometry relative="1" as="geometry" />
        </mxCell>
        <mxCell id="zheniMVoFdTtj4dPPdd5-39" value="" style="rounded=1;whiteSpace=wrap;html=1;fontSize=20;fillColor=none;" parent="1" vertex="1">
          <mxGeometry x="2290" y="486.25" width="1160" height="603.75" as="geometry" />
        </mxCell>
        <mxCell id="EveCIlQHcC4GdwJnfHoP-5" value="" style="rounded=0;whiteSpace=wrap;html=1;fillColor=#f9f7ed;strokeColor=#36393d;" parent="1" vertex="1">
          <mxGeometry x="149.57" y="-1047.5" width="905.44" height="57.5" as="geometry" />
        </mxCell>
        <mxCell id="oZ6fTYHKEGw5SNDz8hmi-39" style="rounded=0;orthogonalLoop=1;jettySize=auto;html=1;exitX=1;exitY=0;exitDx=0;exitDy=0;entryX=0.005;entryY=0.929;entryDx=0;entryDy=0;entryPerimeter=0;" parent="1" source="cQSAukFgM9H1RLstrKh2-131" target="cQSAukFgM9H1RLstrKh2-152" edge="1">
          <mxGeometry relative="1" as="geometry" />
        </mxCell>
        <mxCell id="oZ6fTYHKEGw5SNDz8hmi-38" style="edgeStyle=orthogonalEdgeStyle;rounded=0;orthogonalLoop=1;jettySize=auto;html=1;exitX=1;exitY=0.5;exitDx=0;exitDy=0;entryX=0.565;entryY=0.856;entryDx=0;entryDy=0;entryPerimeter=0;dashed=1;startArrow=classic;startFill=1;endArrow=none;endFill=0;" parent="1" source="cQSAukFgM9H1RLstrKh2-137" target="oZ6fTYHKEGw5SNDz8hmi-31" edge="1">
          <mxGeometry relative="1" as="geometry" />
        </mxCell>
        <mxCell id="oZ6fTYHKEGw5SNDz8hmi-35" style="rounded=0;orthogonalLoop=1;jettySize=auto;html=1;exitX=1;exitY=0.5;exitDx=0;exitDy=0;entryX=0;entryY=0.75;entryDx=0;entryDy=0;dashed=1;strokeWidth=3;strokeColor=#CDEB8B;" parent="1" source="oZ6fTYHKEGw5SNDz8hmi-9" target="oZ6fTYHKEGw5SNDz8hmi-31" edge="1">
          <mxGeometry relative="1" as="geometry" />
        </mxCell>
        <mxCell id="cQSAukFgM9H1RLstrKh2-125" style="rounded=0;orthogonalLoop=1;jettySize=auto;html=1;exitX=1;exitY=0.3333333333333333;exitDx=0;exitDy=0;exitPerimeter=0;entryX=0.265;entryY=0.958;entryDx=0;entryDy=0;entryPerimeter=0;" parent="1" source="cQSAukFgM9H1RLstrKh2-126" target="cQSAukFgM9H1RLstrKh2-127" edge="1">
          <mxGeometry relative="1" as="geometry">
            <mxPoint x="875.0250000000001" y="-904.8000000000002" as="targetPoint" />
          </mxGeometry>
        </mxCell>
        <mxCell id="cQSAukFgM9H1RLstrKh2-192" style="rounded=0;orthogonalLoop=1;jettySize=auto;html=1;exitX=1;exitY=0.3333333333333333;exitDx=0;exitDy=0;exitPerimeter=0;entryX=0.988;entryY=0.683;entryDx=0;entryDy=0;entryPerimeter=0;" parent="1" source="cQSAukFgM9H1RLstrKh2-126" target="cQSAukFgM9H1RLstrKh2-129" edge="1">
          <mxGeometry relative="1" as="geometry" />
        </mxCell>
        <mxCell id="cQSAukFgM9H1RLstrKh2-193" style="rounded=0;orthogonalLoop=1;jettySize=auto;html=1;exitX=1;exitY=0.3333333333333333;exitDx=0;exitDy=0;exitPerimeter=0;entryX=0;entryY=0.5;entryDx=0;entryDy=0;" parent="1" source="cQSAukFgM9H1RLstrKh2-126" target="cQSAukFgM9H1RLstrKh2-128" edge="1">
          <mxGeometry relative="1" as="geometry" />
        </mxCell>
        <mxCell id="ifd4lvwsygBwF9mz3tTz-15" style="rounded=0;orthogonalLoop=1;jettySize=auto;html=1;exitX=1;exitY=0.3333333333333333;exitDx=0;exitDy=0;exitPerimeter=0;entryX=0.776;entryY=0.953;entryDx=0;entryDy=0;entryPerimeter=0;" parent="1" source="cQSAukFgM9H1RLstrKh2-126" target="ifd4lvwsygBwF9mz3tTz-10" edge="1">
          <mxGeometry relative="1" as="geometry" />
        </mxCell>
        <mxCell id="-xwD7tMcW1czYIhG800J-12" style="rounded=0;orthogonalLoop=1;jettySize=auto;html=1;exitX=1;exitY=0.3333333333333333;exitDx=0;exitDy=0;exitPerimeter=0;entryX=0;entryY=0.5;entryDx=0;entryDy=0;" parent="1" source="cQSAukFgM9H1RLstrKh2-126" target="-xwD7tMcW1czYIhG800J-2" edge="1">
          <mxGeometry relative="1" as="geometry" />
        </mxCell>
        <mxCell id="oZ6fTYHKEGw5SNDz8hmi-12" style="rounded=0;orthogonalLoop=1;jettySize=auto;html=1;exitX=1;exitY=0.3333333333333333;exitDx=0;exitDy=0;exitPerimeter=0;entryX=0.921;entryY=0.797;entryDx=0;entryDy=0;entryPerimeter=0;" parent="1" source="cQSAukFgM9H1RLstrKh2-126" target="oZ6fTYHKEGw5SNDz8hmi-2" edge="1">
          <mxGeometry relative="1" as="geometry" />
        </mxCell>
        <mxCell id="cQSAukFgM9H1RLstrKh2-126" value="&lt;font style=&quot;font-size: 17px;&quot;&gt;Actor&lt;/font&gt;" style="shape=umlActor;verticalLabelPosition=bottom;verticalAlign=top;html=1;outlineConnect=0;strokeWidth=3;" parent="1" vertex="1">
          <mxGeometry x="837.69" y="-283.75" width="50" height="100" as="geometry" />
        </mxCell>
        <mxCell id="cQSAukFgM9H1RLstrKh2-183" style="edgeStyle=orthogonalEdgeStyle;rounded=0;orthogonalLoop=1;jettySize=auto;html=1;exitX=0.796;exitY=0.101;exitDx=0;exitDy=0;entryX=0.5;entryY=1;entryDx=0;entryDy=0;exitPerimeter=0;" parent="1" source="cQSAukFgM9H1RLstrKh2-127" target="cQSAukFgM9H1RLstrKh2-148" edge="1">
          <mxGeometry relative="1" as="geometry" />
        </mxCell>
        <mxCell id="cQSAukFgM9H1RLstrKh2-184" style="edgeStyle=orthogonalEdgeStyle;rounded=0;orthogonalLoop=1;jettySize=auto;html=1;exitX=0.309;exitY=0.032;exitDx=0;exitDy=0;entryX=0.179;entryY=1;entryDx=0;entryDy=0;entryPerimeter=0;exitPerimeter=0;" parent="1" source="cQSAukFgM9H1RLstrKh2-127" target="cQSAukFgM9H1RLstrKh2-132" edge="1">
          <mxGeometry relative="1" as="geometry">
            <mxPoint x="967.5300000000005" y="-587.5699999999997" as="targetPoint" />
          </mxGeometry>
        </mxCell>
        <mxCell id="cQSAukFgM9H1RLstrKh2-127" value="&lt;b style=&quot;&quot;&gt;&lt;font style=&quot;font-size: 16px;&quot;&gt;Club&lt;/font&gt;&lt;/b&gt;&lt;br&gt;&lt;font style=&quot;font-size: 13px;&quot;&gt;&lt;span style=&quot;font-size: 13px;&quot;&gt;Index.cshtml, DetailClub.cshtml,&lt;/span&gt;&lt;br&gt;&lt;font style=&quot;font-size: 13px;&quot; color=&quot;#006600&quot;&gt;Create.cshtml&lt;/font&gt;&lt;span style=&quot;font-size: 13px;&quot;&gt;, &lt;/span&gt;&lt;font style=&quot;font-size: 13px;&quot; color=&quot;#006600&quot;&gt;Edit&lt;/font&gt;&lt;/font&gt;&lt;font style=&quot;font-size: 13px;&quot; color=&quot;#006600&quot;&gt;.cshtml&lt;/font&gt;, &lt;font style=&quot;font-size: 13px;&quot;&gt;Delete.cshtml&lt;/font&gt;" style="ellipse;whiteSpace=wrap;html=1;fillColor=#b0e3e6;strokeColor=#0e8088;verticalAlign=top;" parent="1" vertex="1">
          <mxGeometry x="887.69" y="-480" width="260" height="82.5" as="geometry" />
        </mxCell>
        <mxCell id="cQSAukFgM9H1RLstrKh2-187" style="edgeStyle=orthogonalEdgeStyle;rounded=0;orthogonalLoop=1;jettySize=auto;html=1;exitX=0.758;exitY=0.072;exitDx=0;exitDy=0;entryX=0.608;entryY=1.004;entryDx=0;entryDy=0;entryPerimeter=0;exitPerimeter=0;" parent="1" source="cQSAukFgM9H1RLstrKh2-128" target="cQSAukFgM9H1RLstrKh2-149" edge="1">
          <mxGeometry relative="1" as="geometry" />
        </mxCell>
        <mxCell id="cQSAukFgM9H1RLstrKh2-189" style="edgeStyle=orthogonalEdgeStyle;rounded=0;orthogonalLoop=1;jettySize=auto;html=1;exitX=0.259;exitY=0.067;exitDx=0;exitDy=0;entryX=0.133;entryY=1.001;entryDx=0;entryDy=0;entryPerimeter=0;exitPerimeter=0;" parent="1" source="cQSAukFgM9H1RLstrKh2-128" target="cQSAukFgM9H1RLstrKh2-133" edge="1">
          <mxGeometry relative="1" as="geometry">
            <mxPoint x="1347.3" y="-367.22" as="targetPoint" />
          </mxGeometry>
        </mxCell>
        <mxCell id="cQSAukFgM9H1RLstrKh2-128" value="&lt;b style=&quot;&quot;&gt;&lt;font style=&quot;font-size: 16px;&quot;&gt;Race&lt;/font&gt;&lt;/b&gt;&lt;br&gt;&lt;font style=&quot;font-size: 13px;&quot;&gt;&lt;font style=&quot;font-size: 13px;&quot;&gt;Index.cshtml, DetailRace.cshtml,&lt;br&gt;&lt;font style=&quot;font-size: 13px;&quot; color=&quot;#006600&quot;&gt;Create.cshtml&lt;/font&gt;&lt;/font&gt;&lt;font style=&quot;border-color: var(--border-color); font-size: 13px;&quot;&gt;, &lt;font style=&quot;font-size: 13px;&quot; color=&quot;#006600&quot;&gt;Edit&lt;/font&gt;&lt;/font&gt;&lt;font style=&quot;font-size: 13px;&quot; color=&quot;#006600&quot;&gt;.cshtml&lt;/font&gt;, Delete.cshtml&lt;/font&gt;" style="ellipse;whiteSpace=wrap;html=1;fillColor=#b0e3e6;strokeColor=#0e8088;verticalAlign=top;" parent="1" vertex="1">
          <mxGeometry x="1274.57" y="-260" width="280.81" height="80" as="geometry" />
        </mxCell>
        <mxCell id="oZ6fTYHKEGw5SNDz8hmi-23" style="edgeStyle=orthogonalEdgeStyle;rounded=0;orthogonalLoop=1;jettySize=auto;html=1;exitX=0.817;exitY=0.11;exitDx=0;exitDy=0;entryX=0.637;entryY=1.01;entryDx=0;entryDy=0;entryPerimeter=0;exitPerimeter=0;" parent="1" source="cQSAukFgM9H1RLstrKh2-129" target="oZ6fTYHKEGw5SNDz8hmi-18" edge="1">
          <mxGeometry relative="1" as="geometry" />
        </mxCell>
        <mxCell id="oZ6fTYHKEGw5SNDz8hmi-24" style="edgeStyle=orthogonalEdgeStyle;rounded=0;orthogonalLoop=1;jettySize=auto;html=1;exitX=0;exitY=0;exitDx=0;exitDy=0;entryX=0.125;entryY=0.987;entryDx=0;entryDy=0;entryPerimeter=0;" parent="1" source="cQSAukFgM9H1RLstrKh2-129" target="cQSAukFgM9H1RLstrKh2-131" edge="1">
          <mxGeometry relative="1" as="geometry" />
        </mxCell>
        <mxCell id="cQSAukFgM9H1RLstrKh2-129" value="&lt;b style=&quot;&quot;&gt;&lt;font style=&quot;font-size: 16px;&quot;&gt;Home&lt;/font&gt;&lt;/b&gt;&lt;br&gt;&lt;font style=&quot;font-size: 13px;&quot;&gt;&lt;font color=&quot;#006600&quot;&gt;Index.cshtml&lt;/font&gt;, Privacy.cshtml&lt;br&gt;&lt;/font&gt;" style="ellipse;whiteSpace=wrap;html=1;fillColor=#b0e3e6;strokeColor=#0e8088;verticalAlign=top;" parent="1" vertex="1">
          <mxGeometry x="134.56999999999994" y="-442.5" width="200" height="60" as="geometry" />
        </mxCell>
        <mxCell id="cQSAukFgM9H1RLstrKh2-201" style="rounded=0;orthogonalLoop=1;jettySize=auto;html=1;exitX=0.489;exitY=-0.013;exitDx=0;exitDy=0;shape=link;exitPerimeter=0;" parent="1" source="cQSAukFgM9H1RLstrKh2-130" edge="1">
          <mxGeometry relative="1" as="geometry">
            <mxPoint x="1127.07" y="-145" as="targetPoint" />
          </mxGeometry>
        </mxCell>
        <mxCell id="cQSAukFgM9H1RLstrKh2-130" value="&lt;font style=&quot;font-size: 16px;&quot;&gt;&lt;b style=&quot;&quot;&gt;Shared&lt;/b&gt;&lt;br&gt;&lt;/font&gt;_Layout.cshtml,&amp;nbsp;Error.cshtml,&lt;br&gt;_ValidationScriptsPartial.cshtml" style="ellipse;whiteSpace=wrap;html=1;fillColor=#b0e3e6;strokeColor=#0e8088;verticalAlign=top;" parent="1" vertex="1">
          <mxGeometry x="1029.07" y="-112.5" width="200" height="72.5" as="geometry" />
        </mxCell>
        <mxCell id="cQSAukFgM9H1RLstrKh2-196" style="edgeStyle=orthogonalEdgeStyle;rounded=0;orthogonalLoop=1;jettySize=auto;html=1;exitX=0.079;exitY=0.011;exitDx=0;exitDy=0;entryX=0;entryY=0.5;entryDx=0;entryDy=0;exitPerimeter=0;" parent="1" source="cQSAukFgM9H1RLstrKh2-131" target="cQSAukFgM9H1RLstrKh2-138" edge="1">
          <mxGeometry relative="1" as="geometry" />
        </mxCell>
        <mxCell id="oZ6fTYHKEGw5SNDz8hmi-25" style="edgeStyle=orthogonalEdgeStyle;rounded=0;orthogonalLoop=1;jettySize=auto;html=1;exitX=0.75;exitY=1;exitDx=0;exitDy=0;entryX=0.555;entryY=-0.004;entryDx=0;entryDy=0;entryPerimeter=0;" parent="1" source="cQSAukFgM9H1RLstrKh2-131" target="oZ6fTYHKEGw5SNDz8hmi-18" edge="1">
          <mxGeometry relative="1" as="geometry" />
        </mxCell>
        <mxCell id="oZ6fTYHKEGw5SNDz8hmi-26" style="edgeStyle=orthogonalEdgeStyle;rounded=0;orthogonalLoop=1;jettySize=auto;html=1;exitX=0;exitY=0.5;exitDx=0;exitDy=0;entryX=0.5;entryY=1;entryDx=0;entryDy=0;entryPerimeter=0;" parent="1" source="cQSAukFgM9H1RLstrKh2-131" target="oZ6fTYHKEGw5SNDz8hmi-22" edge="1">
          <mxGeometry relative="1" as="geometry" />
        </mxCell>
        <mxCell id="oZ6fTYHKEGw5SNDz8hmi-29" style="edgeStyle=orthogonalEdgeStyle;rounded=0;orthogonalLoop=1;jettySize=auto;html=1;exitX=0;exitY=0.75;exitDx=0;exitDy=0;entryX=0.478;entryY=-0.013;entryDx=0;entryDy=0;entryPerimeter=0;" parent="1" source="cQSAukFgM9H1RLstrKh2-131" target="oZ6fTYHKEGw5SNDz8hmi-28" edge="1">
          <mxGeometry relative="1" as="geometry" />
        </mxCell>
        <mxCell id="cQSAukFgM9H1RLstrKh2-131" value="&lt;b style=&quot;border-color: var(--border-color);&quot;&gt;HomeController.cs&lt;/b&gt;&lt;font style=&quot;&quot;&gt;&lt;br&gt;Index(),&amp;nbsp;Privacy(),&amp;nbsp;Error()&lt;br&gt;&lt;/font&gt;" style="rounded=0;whiteSpace=wrap;html=1;fillColor=#cce5ff;strokeColor=#36393d;fontSize=14;verticalAlign=top;" parent="1" vertex="1">
          <mxGeometry x="139.56999999999994" y="-590" width="190" height="50" as="geometry" />
        </mxCell>
        <mxCell id="cQSAukFgM9H1RLstrKh2-179" style="edgeStyle=orthogonalEdgeStyle;rounded=0;orthogonalLoop=1;jettySize=auto;html=1;exitX=0.028;exitY=0;exitDx=0;exitDy=0;entryX=0.128;entryY=0.995;entryDx=0;entryDy=0;entryPerimeter=0;exitPerimeter=0;" parent="1" source="cQSAukFgM9H1RLstrKh2-132" target="cQSAukFgM9H1RLstrKh2-145" edge="1">
          <mxGeometry relative="1" as="geometry" />
        </mxCell>
        <mxCell id="cQSAukFgM9H1RLstrKh2-185" style="edgeStyle=orthogonalEdgeStyle;rounded=0;orthogonalLoop=1;jettySize=auto;html=1;exitX=1;exitY=0.143;exitDx=0;exitDy=0;entryX=0;entryY=0.5;entryDx=0;entryDy=0;exitPerimeter=0;" parent="1" source="cQSAukFgM9H1RLstrKh2-132" target="cQSAukFgM9H1RLstrKh2-134" edge="1">
          <mxGeometry relative="1" as="geometry">
            <Array as="points">
              <mxPoint x="1284.57" y="-680" />
              <mxPoint x="1284.57" y="-730" />
            </Array>
          </mxGeometry>
        </mxCell>
        <mxCell id="cQSAukFgM9H1RLstrKh2-186" style="edgeStyle=orthogonalEdgeStyle;rounded=0;orthogonalLoop=1;jettySize=auto;html=1;exitX=0.687;exitY=1.001;exitDx=0;exitDy=0;entryX=0.465;entryY=-0.004;entryDx=0;entryDy=0;entryPerimeter=0;exitPerimeter=0;" parent="1" source="cQSAukFgM9H1RLstrKh2-132" target="cQSAukFgM9H1RLstrKh2-148" edge="1">
          <mxGeometry relative="1" as="geometry">
            <mxPoint x="1078.1700000000003" y="-587.7799999999997" as="sourcePoint" />
          </mxGeometry>
        </mxCell>
        <mxCell id="cQSAukFgM9H1RLstrKh2-200" style="edgeStyle=orthogonalEdgeStyle;rounded=0;orthogonalLoop=1;jettySize=auto;html=1;exitX=1.001;exitY=0.663;exitDx=0;exitDy=0;entryX=0.172;entryY=1.004;entryDx=0;entryDy=0;entryPerimeter=0;exitPerimeter=0;" parent="1" source="cQSAukFgM9H1RLstrKh2-132" target="cQSAukFgM9H1RLstrKh2-147" edge="1">
          <mxGeometry relative="1" as="geometry" />
        </mxCell>
        <mxCell id="cQSAukFgM9H1RLstrKh2-132" value="&lt;b style=&quot;border-color: var(--border-color);&quot;&gt;ClubController.cs&lt;/b&gt;&lt;font style=&quot;&quot;&gt;&lt;br&gt;Index(), DetailClub(int id), 2Create(),&lt;br&gt;2Edit(...), 2Delete(...)&lt;br&gt;&lt;/font&gt;" style="rounded=0;whiteSpace=wrap;html=1;fillColor=#cce5ff;strokeColor=#36393d;fontSize=14;verticalAlign=top;" parent="1" vertex="1">
          <mxGeometry x="924.57" y="-660" width="240" height="70" as="geometry" />
        </mxCell>
        <mxCell id="cQSAukFgM9H1RLstrKh2-188" style="edgeStyle=orthogonalEdgeStyle;rounded=0;orthogonalLoop=1;jettySize=auto;html=1;exitX=0.665;exitY=0.999;exitDx=0;exitDy=0;entryX=0.5;entryY=0;entryDx=0;entryDy=0;exitPerimeter=0;" parent="1" source="cQSAukFgM9H1RLstrKh2-133" target="cQSAukFgM9H1RLstrKh2-149" edge="1">
          <mxGeometry relative="1" as="geometry">
            <mxPoint x="1474.9799999999998" y="-367.5699999999997" as="sourcePoint" />
          </mxGeometry>
        </mxCell>
        <mxCell id="cQSAukFgM9H1RLstrKh2-190" style="edgeStyle=orthogonalEdgeStyle;rounded=0;orthogonalLoop=1;jettySize=auto;html=1;exitX=1;exitY=0.5;exitDx=0;exitDy=0;entryX=0;entryY=0.5;entryDx=0;entryDy=0;" parent="1" source="cQSAukFgM9H1RLstrKh2-133" target="cQSAukFgM9H1RLstrKh2-135" edge="1">
          <mxGeometry relative="1" as="geometry" />
        </mxCell>
        <mxCell id="cQSAukFgM9H1RLstrKh2-191" style="edgeStyle=orthogonalEdgeStyle;rounded=0;orthogonalLoop=1;jettySize=auto;html=1;entryX=0.181;entryY=1.005;entryDx=0;entryDy=0;entryPerimeter=0;exitX=0.032;exitY=-0.004;exitDx=0;exitDy=0;exitPerimeter=0;" parent="1" source="cQSAukFgM9H1RLstrKh2-133" target="cQSAukFgM9H1RLstrKh2-146" edge="1">
          <mxGeometry relative="1" as="geometry">
            <mxPoint x="1323.57" y="-480" as="sourcePoint" />
          </mxGeometry>
        </mxCell>
        <mxCell id="cQSAukFgM9H1RLstrKh2-199" style="edgeStyle=orthogonalEdgeStyle;rounded=0;orthogonalLoop=1;jettySize=auto;html=1;exitX=0;exitY=0.25;exitDx=0;exitDy=0;entryX=0.217;entryY=1.001;entryDx=0;entryDy=0;entryPerimeter=0;" parent="1" source="cQSAukFgM9H1RLstrKh2-133" target="cQSAukFgM9H1RLstrKh2-147" edge="1">
          <mxGeometry relative="1" as="geometry" />
        </mxCell>
        <mxCell id="cQSAukFgM9H1RLstrKh2-133" value="&lt;b style=&quot;border-color: var(--border-color);&quot;&gt;RaceController.cs&lt;/b&gt;&lt;font style=&quot;&quot;&gt;&lt;br&gt;Index(), DetailRace(int id), 2Create(),&lt;br style=&quot;border-color: var(--border-color);&quot;&gt;2Edit(...), 2Delete(...)&lt;br&gt;&lt;/font&gt;" style="rounded=0;whiteSpace=wrap;html=1;fillColor=#cce5ff;strokeColor=#36393d;fontSize=14;verticalAlign=top;" parent="1" vertex="1">
          <mxGeometry x="1315.3799999999999" y="-440" width="240" height="67.5" as="geometry" />
        </mxCell>
        <mxCell id="cQSAukFgM9H1RLstrKh2-134" value="&lt;font size=&quot;1&quot; style=&quot;&quot;&gt;&lt;b style=&quot;font-size: 15px;&quot;&gt;Club.cs&lt;/b&gt;&lt;/font&gt;" style="shape=hexagon;perimeter=hexagonPerimeter2;whiteSpace=wrap;html=1;fixedSize=1;fillColor=#f5f5f5;strokeColor=#666666;gradientColor=#b3b3b3;" parent="1" vertex="1">
          <mxGeometry x="1302.97" y="-755" width="120" height="50" as="geometry" />
        </mxCell>
        <mxCell id="cQSAukFgM9H1RLstrKh2-135" value="&lt;font size=&quot;1&quot; style=&quot;&quot;&gt;&lt;b style=&quot;font-size: 15px;&quot;&gt;Race.cs&lt;/b&gt;&lt;/font&gt;" style="shape=hexagon;perimeter=hexagonPerimeter2;whiteSpace=wrap;html=1;fixedSize=1;fillColor=#f5f5f5;strokeColor=#666666;gradientColor=#b3b3b3;" parent="1" vertex="1">
          <mxGeometry x="1618.44" y="-520" width="120" height="50" as="geometry" />
        </mxCell>
        <mxCell id="-xwD7tMcW1czYIhG800J-16" style="edgeStyle=orthogonalEdgeStyle;rounded=0;orthogonalLoop=1;jettySize=auto;html=1;exitX=0.672;exitY=0.009;exitDx=0;exitDy=0;entryX=0.594;entryY=0.808;entryDx=0;entryDy=0;entryPerimeter=0;shape=link;exitPerimeter=0;" parent="1" source="cQSAukFgM9H1RLstrKh2-137" target="-xwD7tMcW1czYIhG800J-15" edge="1">
          <mxGeometry relative="1" as="geometry" />
        </mxCell>
        <mxCell id="cQSAukFgM9H1RLstrKh2-137" value="&lt;font size=&quot;1&quot; style=&quot;&quot;&gt;&lt;b style=&quot;font-size: 15px;&quot;&gt;AppUser.cs&lt;/b&gt;&lt;/font&gt;" style="shape=hexagon;perimeter=hexagonPerimeter2;whiteSpace=wrap;html=1;fixedSize=1;fillColor=#f5f5f5;strokeColor=#666666;gradientColor=#b3b3b3;" parent="1" vertex="1">
          <mxGeometry x="684.57" y="-745" width="120" height="50" as="geometry" />
        </mxCell>
        <mxCell id="cQSAukFgM9H1RLstrKh2-138" value="&lt;b&gt;&lt;font style=&quot;font-size: 15px;&quot;&gt;ErrorViewModel.cs&lt;/font&gt;&lt;/b&gt;" style="shape=hexagon;perimeter=hexagonPerimeter2;whiteSpace=wrap;html=1;fixedSize=1;fillColor=#f5f5f5;strokeColor=#666666;gradientColor=#b3b3b3;" parent="1" vertex="1">
          <mxGeometry x="177.64" y="-675" width="161.93" height="50" as="geometry" />
        </mxCell>
        <mxCell id="cQSAukFgM9H1RLstrKh2-139" style="rounded=0;orthogonalLoop=1;jettySize=auto;html=1;exitX=1;exitY=0;exitDx=0;exitDy=0;entryX=0.375;entryY=1.02;entryDx=0;entryDy=0;entryPerimeter=0;dashed=1;strokeWidth=3;strokeColor=#9673A6;" parent="1" source="cQSAukFgM9H1RLstrKh2-140" target="cQSAukFgM9H1RLstrKh2-141" edge="1">
          <mxGeometry relative="1" as="geometry" />
        </mxCell>
        <mxCell id="cQSAukFgM9H1RLstrKh2-178" style="edgeStyle=orthogonalEdgeStyle;rounded=0;orthogonalLoop=1;jettySize=auto;html=1;exitX=0.5;exitY=1;exitDx=0;exitDy=0;entryX=1;entryY=0.5;entryDx=0;entryDy=0;dashed=1;" parent="1" source="cQSAukFgM9H1RLstrKh2-140" target="cQSAukFgM9H1RLstrKh2-135" edge="1">
          <mxGeometry relative="1" as="geometry" />
        </mxCell>
        <mxCell id="oZ6fTYHKEGw5SNDz8hmi-33" style="rounded=0;orthogonalLoop=1;jettySize=auto;html=1;exitX=0.25;exitY=0;exitDx=0;exitDy=0;entryX=0.705;entryY=0.8;entryDx=0;entryDy=0;entryPerimeter=0;shape=link;" parent="1" source="cQSAukFgM9H1RLstrKh2-140" target="oZ6fTYHKEGw5SNDz8hmi-31" edge="1">
          <mxGeometry relative="1" as="geometry" />
        </mxCell>
        <mxCell id="cQSAukFgM9H1RLstrKh2-140" value="&lt;font style=&quot;font-size: 13px;&quot;&gt;&lt;b&gt;&lt;font style=&quot;font-size: 14px;&quot;&gt;Data&lt;/font&gt;&lt;br&gt;AppDbContext.cs&lt;br&gt;&lt;/b&gt;DbSet&amp;lt;Race&amp;gt; Races&lt;br&gt;&lt;/font&gt;" style="shape=parallelogram;perimeter=parallelogramPerimeter;whiteSpace=wrap;html=1;fixedSize=1;fillColor=#cdeb8b;strokeColor=#36393d;verticalAlign=top;" parent="1" vertex="1">
          <mxGeometry x="1694.87" y="-627.5" width="183.44" height="60" as="geometry" />
        </mxCell>
        <mxCell id="cQSAukFgM9H1RLstrKh2-141" value="&lt;b&gt;&lt;font style=&quot;font-size: 20px;&quot;&gt;RunGroups&lt;/font&gt;&lt;/b&gt;" style="shape=cylinder3;whiteSpace=wrap;html=1;boundedLbl=1;backgroundOutline=1;size=15;fillColor=#e1d5e7;strokeColor=#9673a6;" parent="1" vertex="1">
          <mxGeometry x="1799.0599999999997" y="-861.25" width="130" height="100" as="geometry" />
        </mxCell>
        <mxCell id="cQSAukFgM9H1RLstrKh2-177" style="edgeStyle=orthogonalEdgeStyle;rounded=0;orthogonalLoop=1;jettySize=auto;html=1;exitX=0.5;exitY=1;exitDx=0;exitDy=0;entryX=1;entryY=0.5;entryDx=0;entryDy=0;dashed=1;" parent="1" source="cQSAukFgM9H1RLstrKh2-142" target="cQSAukFgM9H1RLstrKh2-134" edge="1">
          <mxGeometry relative="1" as="geometry" />
        </mxCell>
        <mxCell id="oZ6fTYHKEGw5SNDz8hmi-32" style="rounded=0;orthogonalLoop=1;jettySize=auto;html=1;exitX=0.75;exitY=0;exitDx=0;exitDy=0;entryX=0.26;entryY=0.983;entryDx=0;entryDy=0;entryPerimeter=0;shape=link;" parent="1" source="cQSAukFgM9H1RLstrKh2-142" target="oZ6fTYHKEGw5SNDz8hmi-31" edge="1">
          <mxGeometry relative="1" as="geometry" />
        </mxCell>
        <mxCell id="cQSAukFgM9H1RLstrKh2-142" value="&lt;font style=&quot;font-size: 13px;&quot;&gt;&lt;b&gt;&lt;font style=&quot;font-size: 14px;&quot;&gt;Data&lt;/font&gt;&lt;br&gt;AppDbContext.cs&lt;br&gt;&lt;/b&gt;DbSet&amp;lt;Club&amp;gt; Clubs&lt;br&gt;&lt;/font&gt;" style="shape=parallelogram;perimeter=parallelogramPerimeter;whiteSpace=wrap;html=1;fixedSize=1;fillColor=#cdeb8b;strokeColor=#36393d;verticalAlign=top;" parent="1" vertex="1">
          <mxGeometry x="1410.59" y="-830" width="183.44" height="60" as="geometry" />
        </mxCell>
        <mxCell id="cQSAukFgM9H1RLstrKh2-159" style="edgeStyle=orthogonalEdgeStyle;rounded=0;orthogonalLoop=1;jettySize=auto;html=1;exitX=0.5;exitY=1;exitDx=0;exitDy=0;entryX=0.5;entryY=0;entryDx=0;entryDy=0;shape=link;" parent="1" source="cQSAukFgM9H1RLstrKh2-145" target="cQSAukFgM9H1RLstrKh2-152" edge="1">
          <mxGeometry relative="1" as="geometry" />
        </mxCell>
        <mxCell id="cQSAukFgM9H1RLstrKh2-145" value="&lt;font style=&quot;border-color: var(--border-color); font-size: 16px;&quot;&gt;&lt;b style=&quot;border-color: var(--border-color);&quot;&gt;interface&lt;/b&gt;&amp;nbsp;&lt;font style=&quot;border-color: var(--border-color);&quot; color=&quot;#ff3333&quot;&gt;&lt;b style=&quot;border-color: var(--border-color);&quot;&gt;IClubRepository&lt;/b&gt;&lt;/font&gt;&lt;/font&gt;&lt;br style=&quot;border-color: var(--border-color); font-size: 14px;&quot;&gt;&lt;font style=&quot;border-color: var(--border-color);&quot;&gt;GetAll(),&amp;nbsp;GetByIdAsync(int id),&amp;nbsp;GetClubByCity(string city)&lt;br&gt;Add,Update,Delete,Save&lt;br&gt;&lt;/font&gt;" style="shape=dataStorage;whiteSpace=wrap;html=1;fixedSize=1;fillColor=#d0cee2;strokeColor=#56517e;" parent="1" vertex="1">
          <mxGeometry x="887.69" y="-861.25" width="341.38" height="70" as="geometry" />
        </mxCell>
        <mxCell id="cQSAukFgM9H1RLstrKh2-161" style="edgeStyle=orthogonalEdgeStyle;rounded=0;orthogonalLoop=1;jettySize=auto;html=1;exitX=0.538;exitY=0.995;exitDx=0;exitDy=0;entryX=0.5;entryY=0;entryDx=0;entryDy=0;shape=link;exitPerimeter=0;" parent="1" source="cQSAukFgM9H1RLstrKh2-146" target="cQSAukFgM9H1RLstrKh2-153" edge="1">
          <mxGeometry relative="1" as="geometry" />
        </mxCell>
        <mxCell id="cQSAukFgM9H1RLstrKh2-146" value="&lt;font style=&quot;border-color: var(--border-color); font-size: 16px;&quot;&gt;&lt;b style=&quot;border-color: var(--border-color);&quot;&gt;interface&lt;/b&gt;&amp;nbsp;&lt;font style=&quot;border-color: var(--border-color);&quot; color=&quot;#ff3333&quot;&gt;&lt;b style=&quot;border-color: var(--border-color);&quot;&gt;IRaceRepository&lt;/b&gt;&lt;/font&gt;&lt;/font&gt;&lt;br style=&quot;border-color: var(--border-color); font-size: 14px;&quot;&gt;&lt;font style=&quot;border-color: var(--border-color);&quot;&gt;GetAll(),&amp;nbsp;GetByIdAsync(int id),&amp;nbsp;GetRaceByCity(string city)&lt;br&gt;Add,Update,Delete,Save&lt;br&gt;&lt;/font&gt;" style="shape=dataStorage;whiteSpace=wrap;html=1;fixedSize=1;fillColor=#d0cee2;strokeColor=#56517e;" parent="1" vertex="1">
          <mxGeometry x="1259.84" y="-627.5" width="351.08" height="70" as="geometry" />
        </mxCell>
        <mxCell id="cQSAukFgM9H1RLstrKh2-160" style="edgeStyle=orthogonalEdgeStyle;rounded=0;orthogonalLoop=1;jettySize=auto;html=1;entryX=0.527;entryY=-0.005;entryDx=0;entryDy=0;entryPerimeter=0;shape=link;exitX=0.783;exitY=0.993;exitDx=0;exitDy=0;exitPerimeter=0;" parent="1" source="cQSAukFgM9H1RLstrKh2-147" target="cQSAukFgM9H1RLstrKh2-155" edge="1">
          <mxGeometry relative="1" as="geometry">
            <mxPoint x="1356.08" y="-1010" as="sourcePoint" />
          </mxGeometry>
        </mxCell>
        <mxCell id="cQSAukFgM9H1RLstrKh2-147" value="&lt;font style=&quot;border-color: var(--border-color); font-size: 16px;&quot;&gt;&lt;b style=&quot;border-color: var(--border-color);&quot;&gt;interface&lt;/b&gt;&amp;nbsp;&lt;font style=&quot;border-color: var(--border-color);&quot; color=&quot;#ff3333&quot;&gt;&lt;b style=&quot;border-color: var(--border-color);&quot;&gt;IPhotoService&lt;/b&gt;&lt;/font&gt;&lt;/font&gt;&lt;br style=&quot;border-color: var(--border-color); font-size: 14px;&quot;&gt;&lt;font style=&quot;border-color: var(--border-color);&quot;&gt;AddPhotoAsync(IFormFile file),&amp;nbsp;&lt;br&gt;DeletePhotoAsync(string publicId)&lt;br&gt;&lt;/font&gt;" style="shape=dataStorage;whiteSpace=wrap;html=1;fixedSize=1;fillColor=#d0cee2;strokeColor=#56517e;" parent="1" vertex="1">
          <mxGeometry x="1194.5699999999997" y="-1080" width="252.62" height="70" as="geometry" />
        </mxCell>
        <mxCell id="cQSAukFgM9H1RLstrKh2-148" value="&lt;font style=&quot;&quot;&gt;&lt;font color=&quot;#006600&quot;&gt;&lt;b style=&quot;&quot;&gt;CreateClubVM.cs,&lt;br&gt;&amp;nbsp;&lt;/b&gt;&lt;b style=&quot;border-color: var(--border-color);&quot;&gt;EditClubVM.cs&lt;/b&gt;&lt;/font&gt;&lt;br&gt;&lt;/font&gt;&lt;span style=&quot;font-size: 14px;&quot;&gt;&lt;font style=&quot;font-size: 14px;&quot;&gt;Properties&lt;br&gt;&lt;/font&gt;&lt;/span&gt;" style="rounded=0;whiteSpace=wrap;html=1;fillColor=#d5e8d4;strokeColor=#82b366;fontSize=14;verticalAlign=top;" parent="1" vertex="1">
          <mxGeometry x="1024.57" y="-572.5" width="140" height="70" as="geometry" />
        </mxCell>
        <mxCell id="cQSAukFgM9H1RLstrKh2-149" value="&lt;font style=&quot;&quot;&gt;&lt;font color=&quot;#006600&quot;&gt;&lt;b&gt;CreateRaceVM.cs&lt;br&gt;&lt;/b&gt;&lt;b style=&quot;border-color: var(--border-color);&quot;&gt;EditRaceVM.cs&lt;/b&gt;&lt;/font&gt;&lt;br&gt;&lt;/font&gt;&lt;span style=&quot;font-size: 14px;&quot;&gt;&lt;font style=&quot;font-size: 14px;&quot;&gt;Properties&lt;br&gt;&lt;/font&gt;&lt;/span&gt;" style="rounded=0;whiteSpace=wrap;html=1;fillColor=#d5e8d4;strokeColor=#82b366;fontSize=14;verticalAlign=top;" parent="1" vertex="1">
          <mxGeometry x="1394.45" y="-352.5" width="160.93" height="62.5" as="geometry" />
        </mxCell>
        <mxCell id="cQSAukFgM9H1RLstrKh2-150" style="rounded=0;orthogonalLoop=1;jettySize=auto;html=1;exitX=1;exitY=0;exitDx=0;exitDy=0;entryX=0;entryY=0;entryDx=0;entryDy=67.5;entryPerimeter=0;dashed=1;strokeWidth=3;strokeColor=#9673A6;" parent="1" source="cQSAukFgM9H1RLstrKh2-142" target="cQSAukFgM9H1RLstrKh2-141" edge="1">
          <mxGeometry relative="1" as="geometry">
            <mxPoint x="1491.4399999999998" y="-850" as="sourcePoint" />
            <mxPoint x="1743.4399999999998" y="-1000" as="targetPoint" />
          </mxGeometry>
        </mxCell>
        <mxCell id="ifd4lvwsygBwF9mz3tTz-7" style="edgeStyle=orthogonalEdgeStyle;rounded=0;orthogonalLoop=1;jettySize=auto;html=1;exitX=0.5;exitY=1;exitDx=0;exitDy=0;" parent="1" source="cQSAukFgM9H1RLstrKh2-151" target="ifd4lvwsygBwF9mz3tTz-5" edge="1">
          <mxGeometry relative="1" as="geometry" />
        </mxCell>
        <mxCell id="cQSAukFgM9H1RLstrKh2-151" value="&lt;font style=&quot;&quot;&gt;&lt;font style=&quot;font-size: 13px;&quot;&gt;Program.cs&lt;/font&gt;&lt;br&gt;&lt;span style=&quot;font-size: 17px;&quot;&gt;&amp;nbsp;&lt;/span&gt;&lt;font style=&quot;font-size: 12px;&quot;&gt;builder.Services.(connections: interfaces, repositories, cloud, database and seeddata)&lt;br&gt;&lt;/font&gt;app.UseAuthentication(); app.UseAuthorization();&lt;br&gt;&lt;/font&gt;" style="rounded=1;whiteSpace=wrap;html=1;fillColor=#fad9d5;strokeColor=#ae4132;verticalAlign=top;" parent="1" vertex="1">
          <mxGeometry x="327.5" y="-312.5" width="270" height="90" as="geometry" />
        </mxCell>
        <mxCell id="ifd4lvwsygBwF9mz3tTz-4" style="rounded=0;orthogonalLoop=1;jettySize=auto;html=1;exitX=1;exitY=0.5;exitDx=0;exitDy=0;entryX=0;entryY=0.25;entryDx=0;entryDy=0;dashed=1;strokeColor=#CDEB8B;strokeWidth=3;" parent="1" source="cQSAukFgM9H1RLstrKh2-152" target="cQSAukFgM9H1RLstrKh2-142" edge="1">
          <mxGeometry relative="1" as="geometry" />
        </mxCell>
        <mxCell id="cQSAukFgM9H1RLstrKh2-152" value="&lt;font style=&quot;&quot;&gt;&lt;b style=&quot;&quot;&gt;&lt;font style=&quot;font-size: 16px;&quot;&gt;Repository&lt;/font&gt;&lt;/b&gt;&lt;br&gt;&lt;font style=&quot;font-size: 13px;&quot;&gt;ClubRepository.cs&lt;br&gt;&lt;/font&gt;(implementation&amp;nbsp;methods from interface)&lt;br&gt;&lt;/font&gt;" style="rounded=1;whiteSpace=wrap;html=1;fillColor=#bac8d3;strokeColor=#23445d;verticalAlign=top;" parent="1" vertex="1">
          <mxGeometry x="943.8100000000001" y="-776.25" width="229.13" height="70" as="geometry" />
        </mxCell>
        <mxCell id="ifd4lvwsygBwF9mz3tTz-3" style="rounded=0;orthogonalLoop=1;jettySize=auto;html=1;exitX=1;exitY=0.25;exitDx=0;exitDy=0;entryX=0;entryY=0.5;entryDx=0;entryDy=0;dashed=1;strokeColor=#CDEB8B;strokeWidth=3;" parent="1" source="cQSAukFgM9H1RLstrKh2-153" target="cQSAukFgM9H1RLstrKh2-140" edge="1">
          <mxGeometry relative="1" as="geometry" />
        </mxCell>
        <mxCell id="cQSAukFgM9H1RLstrKh2-153" value="&lt;font style=&quot;&quot;&gt;&lt;b style=&quot;&quot;&gt;&lt;font style=&quot;font-size: 16px;&quot;&gt;Repository&lt;/font&gt;&lt;/b&gt;&lt;br&gt;&lt;font style=&quot;font-size: 13px;&quot;&gt;RaceRepository.cs&lt;br&gt;&lt;/font&gt;(implementation&amp;nbsp;methods from interface)&lt;br&gt;&lt;/font&gt;" style="rounded=1;whiteSpace=wrap;html=1;fillColor=#bac8d3;strokeColor=#23445d;verticalAlign=top;" parent="1" vertex="1">
          <mxGeometry x="1333.9399999999998" y="-542.5" width="229.13" height="70" as="geometry" />
        </mxCell>
        <mxCell id="cQSAukFgM9H1RLstrKh2-154" value="&lt;font style=&quot;&quot;&gt;&lt;b style=&quot;&quot;&gt;&lt;font style=&quot;font-size: 16px;&quot;&gt;Helper&lt;/font&gt;&lt;/b&gt;&lt;br&gt;&lt;font style=&quot;font-size: 13px;&quot;&gt;CloudinarySettings.cs&lt;br&gt;&lt;/font&gt;CloudName,&amp;nbsp;ApiKey, ApiSecret&lt;br&gt;&lt;/font&gt;" style="rounded=1;whiteSpace=wrap;html=1;fillColor=#fad7ac;strokeColor=#b46504;verticalAlign=top;" parent="1" vertex="1">
          <mxGeometry x="1295.1299999999999" y="-900" width="182.67" height="60" as="geometry" />
        </mxCell>
        <mxCell id="cQSAukFgM9H1RLstrKh2-157" style="edgeStyle=orthogonalEdgeStyle;rounded=0;orthogonalLoop=1;jettySize=auto;html=1;exitX=0.5;exitY=1;exitDx=0;exitDy=0;entryX=0.5;entryY=0;entryDx=0;entryDy=0;" parent="1" source="cQSAukFgM9H1RLstrKh2-155" target="cQSAukFgM9H1RLstrKh2-154" edge="1">
          <mxGeometry relative="1" as="geometry" />
        </mxCell>
        <mxCell id="cQSAukFgM9H1RLstrKh2-155" value="&lt;font style=&quot;&quot;&gt;&lt;b style=&quot;&quot;&gt;&lt;font style=&quot;font-size: 16px;&quot;&gt;Services&lt;/font&gt;&lt;/b&gt;&lt;br&gt;&lt;font style=&quot;font-size: 13px;&quot;&gt;PhotoService.cs&lt;br&gt;&lt;/font&gt;(implementation&amp;nbsp;methods from interface)&lt;br&gt;&lt;/font&gt;" style="rounded=1;whiteSpace=wrap;html=1;fillColor=#fff2cc;strokeColor=#d6b656;verticalAlign=top;" parent="1" vertex="1">
          <mxGeometry x="1271.8999999999999" y="-990" width="229.13" height="70" as="geometry" />
        </mxCell>
        <mxCell id="cQSAukFgM9H1RLstrKh2-156" value="&lt;font style=&quot;&quot;&gt;&lt;font style=&quot;font-size: 13px;&quot;&gt;appsettings.json&lt;/font&gt;&lt;br&gt;&lt;span style=&quot;font-size: 17px;&quot;&gt;&amp;nbsp;(&lt;/span&gt;&lt;font style=&quot;font-size: 12px;&quot;&gt;database and cloud settings for connection)&lt;/font&gt;&lt;br&gt;&lt;/font&gt;" style="rounded=1;whiteSpace=wrap;html=1;fillColor=#fad9d5;strokeColor=#ae4132;verticalAlign=top;" parent="1" vertex="1">
          <mxGeometry x="40" y="-302.5" width="270" height="50" as="geometry" />
        </mxCell>
        <mxCell id="cQSAukFgM9H1RLstrKh2-175" value="&lt;font size=&quot;1&quot; style=&quot;&quot;&gt;&lt;b style=&quot;font-size: 15px;&quot;&gt;Controller&lt;/b&gt;&lt;/font&gt;" style="rounded=0;whiteSpace=wrap;html=1;fillColor=#dae8fc;strokeColor=#6c8ebf;" parent="1" vertex="1">
          <mxGeometry x="369.85999999999996" y="-1038.75" width="90" height="40" as="geometry" />
        </mxCell>
        <mxCell id="cQSAukFgM9H1RLstrKh2-176" value="&lt;font style=&quot;border-color: var(--border-color);&quot;&gt;&lt;span style=&quot;font-size: 16px;&quot;&gt;&lt;b&gt;Interface&lt;/b&gt;&lt;/span&gt;&lt;br&gt;&lt;/font&gt;" style="shape=dataStorage;whiteSpace=wrap;html=1;fixedSize=1;fillColor=#d0cee2;strokeColor=#56517e;" parent="1" vertex="1">
          <mxGeometry x="725.0099999999999" y="-1038.75" width="141.13" height="40" as="geometry" />
        </mxCell>
        <mxCell id="cQSAukFgM9H1RLstrKh2-202" style="rounded=0;orthogonalLoop=1;jettySize=auto;html=1;exitX=0.736;exitY=0.073;exitDx=0;exitDy=0;shape=link;exitPerimeter=0;" parent="1" source="cQSAukFgM9H1RLstrKh2-130" edge="1">
          <mxGeometry relative="1" as="geometry">
            <mxPoint x="1189.07" y="-140" as="targetPoint" />
            <mxPoint x="1208.6399999999999" y="-66.25" as="sourcePoint" />
          </mxGeometry>
        </mxCell>
        <mxCell id="cQSAukFgM9H1RLstrKh2-203" style="rounded=0;orthogonalLoop=1;jettySize=auto;html=1;exitX=0.212;exitY=0.073;exitDx=0;exitDy=0;shape=link;exitPerimeter=0;" parent="1" source="cQSAukFgM9H1RLstrKh2-130" edge="1">
          <mxGeometry relative="1" as="geometry">
            <mxPoint x="1059.07" y="-140" as="targetPoint" />
            <mxPoint x="1148.6399999999999" y="-56.25" as="sourcePoint" />
          </mxGeometry>
        </mxCell>
        <mxCell id="cQSAukFgM9H1RLstrKh2-204" value="&lt;font style=&quot;&quot;&gt;&lt;b style=&quot;&quot;&gt;&lt;font style=&quot;font-size: 15px;&quot;&gt;Repository&lt;/font&gt;&lt;/b&gt;&lt;br&gt;&lt;/font&gt;" style="rounded=1;whiteSpace=wrap;html=1;fillColor=#bac8d3;strokeColor=#23445d;verticalAlign=middle;" parent="1" vertex="1">
          <mxGeometry x="603.7399999999999" y="-1038.75" width="102.54" height="40" as="geometry" />
        </mxCell>
        <mxCell id="ifd4lvwsygBwF9mz3tTz-1" value="&lt;font style=&quot;font-size: 20px;&quot;&gt;&lt;b&gt;Cloudinary&lt;/b&gt;&lt;/font&gt;" style="ellipse;shape=cloud;whiteSpace=wrap;html=1;fillColor=#f5f5f5;fontColor=#333333;strokeColor=#666666;" parent="1" vertex="1">
          <mxGeometry x="1738.4399999999998" y="-1005" width="160" height="100" as="geometry" />
        </mxCell>
        <mxCell id="ifd4lvwsygBwF9mz3tTz-2" style="rounded=0;orthogonalLoop=1;jettySize=auto;html=1;exitX=1;exitY=0.5;exitDx=0;exitDy=0;entryX=0.068;entryY=0.452;entryDx=0;entryDy=0;entryPerimeter=0;dashed=1;strokeWidth=3;strokeColor=#9673A6;" parent="1" source="cQSAukFgM9H1RLstrKh2-155" target="ifd4lvwsygBwF9mz3tTz-1" edge="1">
          <mxGeometry relative="1" as="geometry">
            <mxPoint x="1603.57" y="-820" as="sourcePoint" />
            <mxPoint x="1888.57" y="-922" as="targetPoint" />
          </mxGeometry>
        </mxCell>
        <mxCell id="ifd4lvwsygBwF9mz3tTz-8" style="edgeStyle=orthogonalEdgeStyle;rounded=0;orthogonalLoop=1;jettySize=auto;html=1;exitX=0.5;exitY=1;exitDx=0;exitDy=0;entryX=0.5;entryY=0;entryDx=0;entryDy=0;" parent="1" source="ifd4lvwsygBwF9mz3tTz-5" target="ifd4lvwsygBwF9mz3tTz-6" edge="1">
          <mxGeometry relative="1" as="geometry" />
        </mxCell>
        <mxCell id="ifd4lvwsygBwF9mz3tTz-5" value="&lt;font style=&quot;&quot;&gt;&lt;font style=&quot;font-size: 14px; font-weight: bold;&quot;&gt;Data&lt;/font&gt;&lt;br&gt;&lt;b&gt;&lt;font style=&quot;font-size: 13px;&quot;&gt;Seed.cs&lt;/font&gt;&lt;/b&gt;&lt;br&gt;SeedData(IApplicationBuilder applicationBuilder)&lt;br&gt;SeedUsersAndRolesAsync(IApplicationBuilder applicationBuilder)&lt;br&gt;&lt;/font&gt;" style="shape=parallelogram;perimeter=parallelogramPerimeter;whiteSpace=wrap;html=1;fixedSize=1;fillColor=#cdeb8b;strokeColor=#36393d;verticalAlign=top;" parent="1" vertex="1">
          <mxGeometry x="312.5" y="-202.5" width="300" height="82.5" as="geometry" />
        </mxCell>
        <mxCell id="ifd4lvwsygBwF9mz3tTz-6" value="&lt;font style=&quot;&quot;&gt;&lt;font style=&quot;font-size: 14px; font-weight: bold;&quot;&gt;Data&lt;/font&gt;&lt;br&gt;&lt;font style=&quot;&quot;&gt;&lt;b&gt;UserRoles.cs&lt;/b&gt;&lt;/font&gt;&lt;br&gt;Admin = &quot;admin&quot;&lt;br&gt;User = &quot;user&quot;;&lt;br&gt;&lt;/font&gt;" style="shape=parallelogram;perimeter=parallelogramPerimeter;whiteSpace=wrap;html=1;fixedSize=1;fillColor=#cdeb8b;strokeColor=#36393d;verticalAlign=top;" parent="1" vertex="1">
          <mxGeometry x="392.5" y="-102.5" width="140" height="80" as="geometry" />
        </mxCell>
        <mxCell id="ifd4lvwsygBwF9mz3tTz-13" style="edgeStyle=orthogonalEdgeStyle;rounded=0;orthogonalLoop=1;jettySize=auto;html=1;exitX=0.621;exitY=0.016;exitDx=0;exitDy=0;entryX=0.395;entryY=1.007;entryDx=0;entryDy=0;entryPerimeter=0;exitPerimeter=0;" parent="1" source="ifd4lvwsygBwF9mz3tTz-10" target="ifd4lvwsygBwF9mz3tTz-12" edge="1">
          <mxGeometry relative="1" as="geometry" />
        </mxCell>
        <mxCell id="ifd4lvwsygBwF9mz3tTz-10" value="&lt;b style=&quot;&quot;&gt;&lt;font style=&quot;font-size: 16px;&quot;&gt;Account&lt;/font&gt;&lt;/b&gt;&lt;br&gt;&lt;font style=&quot;font-size: 13px;&quot;&gt;&lt;font style=&quot;font-size: 13px;&quot; color=&quot;#006600&quot;&gt;Login.cshtml, Register.cshtml&lt;/font&gt;&lt;br&gt;&lt;/font&gt;" style="ellipse;whiteSpace=wrap;html=1;fillColor=#b0e3e6;strokeColor=#0e8088;verticalAlign=top;" parent="1" vertex="1">
          <mxGeometry x="634.19" y="-507.5" width="185" height="55" as="geometry" />
        </mxCell>
        <mxCell id="-xwD7tMcW1czYIhG800J-7" style="edgeStyle=orthogonalEdgeStyle;rounded=0;orthogonalLoop=1;jettySize=auto;html=1;exitX=0.582;exitY=-0.005;exitDx=0;exitDy=0;entryX=0.485;entryY=1.006;entryDx=0;entryDy=0;exitPerimeter=0;entryPerimeter=0;" parent="1" source="ifd4lvwsygBwF9mz3tTz-11" target="cQSAukFgM9H1RLstrKh2-137" edge="1">
          <mxGeometry relative="1" as="geometry" />
        </mxCell>
        <mxCell id="ifd4lvwsygBwF9mz3tTz-11" value="&lt;b style=&quot;border-color: var(--border-color);&quot;&gt;AccountController.cs&lt;/b&gt;&lt;font style=&quot;&quot;&gt;&lt;br&gt;2Login(), 2Register(),&amp;nbsp;Logout()&lt;br&gt;&lt;/font&gt;" style="rounded=0;whiteSpace=wrap;html=1;fillColor=#cce5ff;strokeColor=#36393d;fontSize=14;verticalAlign=top;" parent="1" vertex="1">
          <mxGeometry x="624.57" y="-675" width="204.24" height="60" as="geometry" />
        </mxCell>
        <mxCell id="ifd4lvwsygBwF9mz3tTz-14" style="edgeStyle=orthogonalEdgeStyle;rounded=0;orthogonalLoop=1;jettySize=auto;html=1;exitX=0.5;exitY=0;exitDx=0;exitDy=0;entryX=0.637;entryY=1;entryDx=0;entryDy=0;entryPerimeter=0;" parent="1" source="ifd4lvwsygBwF9mz3tTz-12" target="ifd4lvwsygBwF9mz3tTz-11" edge="1">
          <mxGeometry relative="1" as="geometry" />
        </mxCell>
        <mxCell id="ifd4lvwsygBwF9mz3tTz-12" value="&lt;font style=&quot;&quot;&gt;&lt;font color=&quot;#006600&quot;&gt;&lt;b&gt;LoginVM.cs&lt;br&gt;&lt;/b&gt;&lt;b&gt;RegisterVM.cs&lt;/b&gt;&lt;/font&gt;&lt;br&gt;&lt;/font&gt;&lt;span style=&quot;font-size: 14px;&quot;&gt;&lt;font style=&quot;font-size: 14px;&quot;&gt;Properties&lt;br&gt;&lt;/font&gt;&lt;/span&gt;" style="rounded=0;whiteSpace=wrap;html=1;fillColor=#d5e8d4;strokeColor=#82b366;fontSize=14;verticalAlign=top;" parent="1" vertex="1">
          <mxGeometry x="699.57" y="-595" width="130" height="65" as="geometry" />
        </mxCell>
        <mxCell id="-xwD7tMcW1czYIhG800J-9" style="edgeStyle=orthogonalEdgeStyle;rounded=0;orthogonalLoop=1;jettySize=auto;html=1;exitX=0.5;exitY=0;exitDx=0;exitDy=0;entryX=0.5;entryY=1;entryDx=0;entryDy=0;" parent="1" source="-xwD7tMcW1czYIhG800J-2" target="-xwD7tMcW1czYIhG800J-3" edge="1">
          <mxGeometry relative="1" as="geometry" />
        </mxCell>
        <mxCell id="-xwD7tMcW1czYIhG800J-2" value="&lt;b style=&quot;&quot;&gt;&lt;font style=&quot;font-size: 16px;&quot;&gt;Dashboard&lt;/font&gt;&lt;/b&gt;&lt;br&gt;&lt;font style=&quot;font-size: 13px;&quot;&gt;&lt;font style=&quot;font-size: 13px;&quot; color=&quot;#006600&quot;&gt;Index.cshtml&lt;/font&gt;&lt;br&gt;&lt;/font&gt;" style="ellipse;whiteSpace=wrap;html=1;fillColor=#b0e3e6;strokeColor=#0e8088;verticalAlign=top;" parent="1" vertex="1">
          <mxGeometry x="1650.1699999999998" y="-130" width="120" height="50" as="geometry" />
        </mxCell>
        <mxCell id="-xwD7tMcW1czYIhG800J-3" value="&lt;font style=&quot;&quot;&gt;&lt;b style=&quot;border-color: var(--border-color); color: rgb(0, 102, 0);&quot;&gt;DashboardVM.cs&lt;/b&gt;&lt;br&gt;&lt;/font&gt;&lt;span style=&quot;font-size: 14px;&quot;&gt;&lt;font style=&quot;font-size: 14px;&quot;&gt;Properties&lt;br&gt;&lt;/font&gt;&lt;/span&gt;" style="rounded=0;whiteSpace=wrap;html=1;fillColor=#d5e8d4;strokeColor=#82b366;fontSize=14;verticalAlign=top;" parent="1" vertex="1">
          <mxGeometry x="1645.1699999999998" y="-190" width="130" height="45" as="geometry" />
        </mxCell>
        <mxCell id="-xwD7tMcW1czYIhG800J-10" style="edgeStyle=orthogonalEdgeStyle;rounded=0;orthogonalLoop=1;jettySize=auto;html=1;exitX=0.5;exitY=1;exitDx=0;exitDy=0;entryX=0.5;entryY=0;entryDx=0;entryDy=0;" parent="1" source="-xwD7tMcW1czYIhG800J-4" target="-xwD7tMcW1czYIhG800J-3" edge="1">
          <mxGeometry relative="1" as="geometry" />
        </mxCell>
        <mxCell id="-xwD7tMcW1czYIhG800J-11" style="edgeStyle=orthogonalEdgeStyle;rounded=0;orthogonalLoop=1;jettySize=auto;html=1;exitX=0.109;exitY=-0.027;exitDx=0;exitDy=0;entryX=0.1;entryY=1.003;entryDx=0;entryDy=0;entryPerimeter=0;exitPerimeter=0;" parent="1" source="-xwD7tMcW1czYIhG800J-4" target="-xwD7tMcW1czYIhG800J-5" edge="1">
          <mxGeometry relative="1" as="geometry" />
        </mxCell>
        <mxCell id="-xwD7tMcW1czYIhG800J-4" value="&lt;b style=&quot;border-color: var(--border-color);&quot;&gt;DashboardController.cs&lt;/b&gt;&lt;font style=&quot;&quot;&gt;&lt;br&gt;Index()&lt;br&gt;&lt;/font&gt;" style="rounded=0;whiteSpace=wrap;html=1;fillColor=#cce5ff;strokeColor=#36393d;fontSize=14;verticalAlign=top;" parent="1" vertex="1">
          <mxGeometry x="1625.1699999999998" y="-250" width="170" height="42.5" as="geometry" />
        </mxCell>
        <mxCell id="-xwD7tMcW1czYIhG800J-8" style="edgeStyle=orthogonalEdgeStyle;rounded=0;orthogonalLoop=1;jettySize=auto;html=1;exitX=0.527;exitY=0.997;exitDx=0;exitDy=0;entryX=0.5;entryY=0;entryDx=0;entryDy=0;shape=link;exitPerimeter=0;" parent="1" source="-xwD7tMcW1czYIhG800J-5" target="-xwD7tMcW1czYIhG800J-6" edge="1">
          <mxGeometry relative="1" as="geometry" />
        </mxCell>
        <mxCell id="-xwD7tMcW1czYIhG800J-5" value="&lt;font style=&quot;border-color: var(--border-color); font-size: 16px;&quot;&gt;&lt;b style=&quot;border-color: var(--border-color);&quot;&gt;interface&lt;/b&gt;&amp;nbsp;&lt;font style=&quot;border-color: var(--border-color);&quot; color=&quot;#ff3333&quot;&gt;&lt;b style=&quot;border-color: var(--border-color);&quot;&gt;IDashboardRepository&lt;/b&gt;&lt;/font&gt;&lt;/font&gt;&lt;br style=&quot;border-color: var(--border-color); font-size: 14px;&quot;&gt;&lt;font style=&quot;border-color: var(--border-color);&quot;&gt;GetAllUserRaces(),&amp;nbsp;GetAllUserClubs(),&lt;br&gt;GetUserById(string id),&amp;nbsp;GetByIdNoTracking(string id)&lt;br&gt;Save&lt;br&gt;&lt;/font&gt;" style="shape=dataStorage;whiteSpace=wrap;html=1;fixedSize=1;fillColor=#d0cee2;strokeColor=#56517e;" parent="1" vertex="1">
          <mxGeometry x="1610.9199999999998" y="-430" width="323.65" height="70" as="geometry" />
        </mxCell>
        <mxCell id="-xwD7tMcW1czYIhG800J-13" style="edgeStyle=orthogonalEdgeStyle;rounded=0;orthogonalLoop=1;jettySize=auto;html=1;exitX=1;exitY=0.5;exitDx=0;exitDy=0;entryX=1;entryY=0.5;entryDx=0;entryDy=0;curved=1;strokeWidth=3;dashed=1;strokeColor=#CDEB8B;" parent="1" source="-xwD7tMcW1czYIhG800J-6" target="cQSAukFgM9H1RLstrKh2-140" edge="1">
          <mxGeometry relative="1" as="geometry">
            <Array as="points">
              <mxPoint x="1954.57" y="-310" />
              <mxPoint x="1954.57" y="-598" />
            </Array>
          </mxGeometry>
        </mxCell>
        <mxCell id="-xwD7tMcW1czYIhG800J-14" style="edgeStyle=orthogonalEdgeStyle;rounded=0;orthogonalLoop=1;jettySize=auto;html=1;exitX=1;exitY=0.5;exitDx=0;exitDy=0;entryX=0.893;entryY=0.954;entryDx=0;entryDy=0;curved=1;strokeWidth=3;dashed=1;strokeColor=#CDEB8B;entryPerimeter=0;" parent="1" source="-xwD7tMcW1czYIhG800J-6" target="cQSAukFgM9H1RLstrKh2-142" edge="1">
          <mxGeometry relative="1" as="geometry">
            <Array as="points">
              <mxPoint x="1964.57" y="-310" />
              <mxPoint x="1964.57" y="-660" />
              <mxPoint x="1574.57" y="-660" />
            </Array>
          </mxGeometry>
        </mxCell>
        <mxCell id="-xwD7tMcW1czYIhG800J-6" value="&lt;font style=&quot;&quot;&gt;&lt;b style=&quot;&quot;&gt;&lt;font style=&quot;font-size: 16px;&quot;&gt;Repository&lt;/font&gt;&lt;/b&gt;&lt;br&gt;&lt;font style=&quot;font-size: 13px;&quot;&gt;DashboardRepository.cs&lt;br&gt;&lt;/font&gt;(implementation methods from interface)&lt;br&gt;&lt;/font&gt;" style="rounded=1;whiteSpace=wrap;html=1;fillColor=#bac8d3;strokeColor=#23445d;verticalAlign=top;" parent="1" vertex="1">
          <mxGeometry x="1667.04" y="-345" width="229.13" height="70" as="geometry" />
        </mxCell>
        <mxCell id="-xwD7tMcW1czYIhG800J-15" value="&lt;font style=&quot;&quot;&gt;&lt;i style=&quot;&quot;&gt;&lt;b style=&quot;&quot;&gt;&lt;font color=&quot;#3333ff&quot; style=&quot;font-size: 15px;&quot;&gt;Identity Framework&lt;/font&gt;&lt;/b&gt;&lt;/i&gt;&lt;br&gt;&lt;b style=&quot;font-size: 13px;&quot;&gt;IdentityUser&lt;br&gt;&lt;/b&gt;Id,UserName,NormalizedUserName,Email,&lt;br&gt;NormalizedEmail,EmailConfirmed,PasswordHash,&lt;br&gt;SecurityStamp,ConcurrencyStamp,PhoneNumber,&lt;br&gt;PhoneNumberConfirmed,TwoFactorEnabled...&lt;br&gt;&lt;/font&gt;" style="shape=document;whiteSpace=wrap;html=1;boundedLbl=1;fillColor=#f9f7ed;strokeColor=#36393d;verticalAlign=top;size=0.21428571428571427;" parent="1" vertex="1">
          <mxGeometry x="594.57" y="-945" width="286" height="130" as="geometry" />
        </mxCell>
        <mxCell id="oZ6fTYHKEGw5SNDz8hmi-1" style="edgeStyle=orthogonalEdgeStyle;rounded=0;orthogonalLoop=1;jettySize=auto;html=1;exitX=0.5;exitY=0;exitDx=0;exitDy=0;entryX=0.5;entryY=1;entryDx=0;entryDy=0;" parent="1" source="oZ6fTYHKEGw5SNDz8hmi-2" target="oZ6fTYHKEGw5SNDz8hmi-3" edge="1">
          <mxGeometry relative="1" as="geometry" />
        </mxCell>
        <mxCell id="oZ6fTYHKEGw5SNDz8hmi-2" value="&lt;b style=&quot;&quot;&gt;&lt;font style=&quot;font-size: 16px;&quot;&gt;User&lt;/font&gt;&lt;/b&gt;&lt;br&gt;&lt;font style=&quot;font-size: 13px;&quot;&gt;&lt;font style=&quot;font-size: 13px;&quot; color=&quot;#006600&quot;&gt;Index.cshtml, Detail.cshtml&lt;/font&gt;&lt;br&gt;&lt;/font&gt;" style="ellipse;whiteSpace=wrap;html=1;fillColor=#b0e3e6;strokeColor=#0e8088;verticalAlign=top;" parent="1" vertex="1">
          <mxGeometry x="384.57" y="-510" width="180" height="60" as="geometry" />
        </mxCell>
        <mxCell id="oZ6fTYHKEGw5SNDz8hmi-3" value="&lt;font style=&quot;&quot;&gt;&lt;b style=&quot;border-color: var(--border-color); color: rgb(0, 102, 0);&quot;&gt;UserVM.cs&lt;br&gt;UserDetailVM.cs&lt;/b&gt;&lt;br&gt;&lt;/font&gt;&lt;span style=&quot;font-size: 14px;&quot;&gt;&lt;font style=&quot;font-size: 14px;&quot;&gt;Properties&lt;br&gt;&lt;/font&gt;&lt;/span&gt;" style="rounded=0;whiteSpace=wrap;html=1;fillColor=#d5e8d4;strokeColor=#82b366;fontSize=14;verticalAlign=top;" parent="1" vertex="1">
          <mxGeometry x="414.57" y="-590" width="130" height="65" as="geometry" />
        </mxCell>
        <mxCell id="oZ6fTYHKEGw5SNDz8hmi-4" style="edgeStyle=orthogonalEdgeStyle;rounded=0;orthogonalLoop=1;jettySize=auto;html=1;exitX=0.5;exitY=1;exitDx=0;exitDy=0;entryX=0.5;entryY=0;entryDx=0;entryDy=0;" parent="1" source="oZ6fTYHKEGw5SNDz8hmi-6" target="oZ6fTYHKEGw5SNDz8hmi-3" edge="1">
          <mxGeometry relative="1" as="geometry" />
        </mxCell>
        <mxCell id="oZ6fTYHKEGw5SNDz8hmi-5" style="edgeStyle=orthogonalEdgeStyle;rounded=0;orthogonalLoop=1;jettySize=auto;html=1;exitX=0.884;exitY=-0.024;exitDx=0;exitDy=0;entryX=0.888;entryY=0.979;entryDx=0;entryDy=0;entryPerimeter=0;exitPerimeter=0;" parent="1" source="oZ6fTYHKEGw5SNDz8hmi-6" target="oZ6fTYHKEGw5SNDz8hmi-8" edge="1">
          <mxGeometry relative="1" as="geometry" />
        </mxCell>
        <mxCell id="oZ6fTYHKEGw5SNDz8hmi-10" style="edgeStyle=orthogonalEdgeStyle;rounded=0;orthogonalLoop=1;jettySize=auto;html=1;exitX=1;exitY=0.5;exitDx=0;exitDy=0;entryX=0;entryY=0.5;entryDx=0;entryDy=0;" parent="1" source="oZ6fTYHKEGw5SNDz8hmi-6" target="cQSAukFgM9H1RLstrKh2-137" edge="1">
          <mxGeometry relative="1" as="geometry">
            <Array as="points">
              <mxPoint x="604.57" y="-659" />
              <mxPoint x="604.57" y="-720" />
            </Array>
          </mxGeometry>
        </mxCell>
        <mxCell id="oZ6fTYHKEGw5SNDz8hmi-6" value="&lt;b style=&quot;border-color: var(--border-color);&quot;&gt;UserController.cs&lt;/b&gt;&lt;font style=&quot;&quot;&gt;&lt;br&gt;Index(), Detail(), &lt;br&gt;2EditProfile()&lt;br&gt;&lt;/font&gt;" style="rounded=0;whiteSpace=wrap;html=1;fillColor=#cce5ff;strokeColor=#36393d;fontSize=14;verticalAlign=top;" parent="1" vertex="1">
          <mxGeometry x="374.57" y="-690" width="190" height="62.5" as="geometry" />
        </mxCell>
        <mxCell id="oZ6fTYHKEGw5SNDz8hmi-7" style="edgeStyle=orthogonalEdgeStyle;rounded=0;orthogonalLoop=1;jettySize=auto;html=1;exitX=0.5;exitY=1;exitDx=0;exitDy=0;entryX=0.5;entryY=0;entryDx=0;entryDy=0;shape=link;" parent="1" source="oZ6fTYHKEGw5SNDz8hmi-8" target="oZ6fTYHKEGw5SNDz8hmi-9" edge="1">
          <mxGeometry relative="1" as="geometry" />
        </mxCell>
        <mxCell id="oZ6fTYHKEGw5SNDz8hmi-8" value="&lt;font style=&quot;border-color: var(--border-color); font-size: 16px;&quot;&gt;&lt;b style=&quot;border-color: var(--border-color);&quot;&gt;interface&lt;/b&gt;&amp;nbsp;&lt;font style=&quot;border-color: var(--border-color);&quot; color=&quot;#ff3333&quot;&gt;&lt;b style=&quot;border-color: var(--border-color);&quot;&gt;IUserRepository&lt;/b&gt;&lt;/font&gt;&lt;/font&gt;&lt;br style=&quot;border-color: var(--border-color); font-size: 14px;&quot;&gt;&lt;font style=&quot;border-color: var(--border-color);&quot;&gt;GetAllUsers(), GetUserById(string id),&lt;br&gt;Add,Update,Delete,Save&lt;br&gt;&lt;/font&gt;" style="shape=dataStorage;whiteSpace=wrap;html=1;fixedSize=1;fillColor=#d0cee2;strokeColor=#56517e;" parent="1" vertex="1">
          <mxGeometry x="239.41999999999987" y="-903.75" width="341.38" height="70" as="geometry" />
        </mxCell>
        <mxCell id="oZ6fTYHKEGw5SNDz8hmi-9" value="&lt;font style=&quot;&quot;&gt;&lt;b style=&quot;&quot;&gt;&lt;font style=&quot;font-size: 16px;&quot;&gt;Repository&lt;/font&gt;&lt;/b&gt;&lt;br&gt;&lt;font style=&quot;font-size: 13px;&quot;&gt;UserRepository.cs&lt;br&gt;&lt;/font&gt;(implementation methods from interface)&lt;br&gt;&lt;/font&gt;" style="rounded=1;whiteSpace=wrap;html=1;fillColor=#bac8d3;strokeColor=#23445d;verticalAlign=top;" parent="1" vertex="1">
          <mxGeometry x="295.54" y="-818.75" width="229.13" height="70" as="geometry" />
        </mxCell>
        <mxCell id="oZ6fTYHKEGw5SNDz8hmi-18" value="&lt;font style=&quot;&quot;&gt;&lt;b style=&quot;border-color: var(--border-color); color: rgb(0, 102, 0);&quot;&gt;HomeVM.cs&lt;br&gt;HomeUserCreateVM.cs&lt;/b&gt;&lt;br&gt;&lt;/font&gt;&lt;span style=&quot;font-size: 14px;&quot;&gt;&lt;font style=&quot;font-size: 14px;&quot;&gt;Properties&lt;br&gt;&lt;/font&gt;&lt;/span&gt;" style="rounded=0;whiteSpace=wrap;html=1;fillColor=#d5e8d4;strokeColor=#82b366;fontSize=14;verticalAlign=top;" parent="1" vertex="1">
          <mxGeometry x="189.57" y="-520" width="170" height="60" as="geometry" />
        </mxCell>
        <mxCell id="oZ6fTYHKEGw5SNDz8hmi-22" value="ipinfo.io&lt;br&gt;(getting location based on IP)" style="sketch=0;html=1;dashed=0;whitespace=wrap;fillColor=#2875E2;strokeColor=#ffffff;points=[[0.005,0.63,0],[0.1,0.2,0],[0.9,0.2,0],[0.5,0,0],[0.995,0.63,0],[0.72,0.99,0],[0.5,1,0],[0.28,0.99,0]];verticalLabelPosition=top;align=center;verticalAlign=bottom;shape=mxgraph.kubernetes.icon;prIcon=api;labelPosition=center;" parent="1" vertex="1">
          <mxGeometry x="54.57" y="-775" width="110" height="100" as="geometry" />
        </mxCell>
        <mxCell id="oZ6fTYHKEGw5SNDz8hmi-28" value="&lt;font style=&quot;&quot;&gt;&lt;b style=&quot;&quot;&gt;&lt;font style=&quot;font-size: 16px;&quot;&gt;Helper&lt;/font&gt;&lt;/b&gt;&lt;br&gt;&lt;font style=&quot;font-size: 13px;&quot;&gt;IPInfo.cs&lt;br&gt;&lt;/font&gt;Ip,&amp;nbsp;Hostname, City...&lt;br&gt;&lt;/font&gt;" style="rounded=1;whiteSpace=wrap;html=1;fillColor=#fad7ac;strokeColor=#b46504;verticalAlign=top;" parent="1" vertex="1">
          <mxGeometry x="20" y="-502.5" width="129.57" height="60" as="geometry" />
        </mxCell>
        <mxCell id="oZ6fTYHKEGw5SNDz8hmi-31" value="&lt;font style=&quot;&quot;&gt;&lt;i style=&quot;&quot;&gt;&lt;b style=&quot;&quot;&gt;&lt;font color=&quot;#3333ff&quot; style=&quot;font-size: 15px;&quot;&gt;Identity Framework&lt;/font&gt;&lt;/b&gt;&lt;/i&gt;&lt;br&gt;&lt;b&gt;&lt;font style=&quot;font-size: 13px;&quot;&gt;IdentityDbContext&amp;lt;AppUser&amp;gt;&lt;/font&gt;&lt;/b&gt;&lt;br&gt;&lt;br&gt;&lt;/font&gt;" style="shape=document;whiteSpace=wrap;html=1;boundedLbl=1;fillColor=#f9f7ed;strokeColor=#36393d;verticalAlign=top;size=0.21428571428571427;" parent="1" vertex="1">
          <mxGeometry x="1504.57" y="-1070" width="203" height="60" as="geometry" />
        </mxCell>
        <mxCell id="oZ6fTYHKEGw5SNDz8hmi-34" value="&lt;font size=&quot;1&quot; style=&quot;&quot;&gt;&lt;b style=&quot;font-size: 15px;&quot;&gt;Address.cs&lt;/b&gt;&lt;/font&gt;" style="shape=hexagon;perimeter=hexagonPerimeter2;whiteSpace=wrap;html=1;fixedSize=1;fillColor=#f5f5f5;strokeColor=#666666;gradientColor=#b3b3b3;" parent="1" vertex="1">
          <mxGeometry x="1844.5700000000002" y="-230" width="120" height="50" as="geometry" />
        </mxCell>
        <mxCell id="oZ6fTYHKEGw5SNDz8hmi-40" style="rounded=0;orthogonalLoop=1;jettySize=auto;html=1;exitX=0.861;exitY=0.821;exitDx=0;exitDy=0;entryX=-0.006;entryY=0.159;entryDx=0;entryDy=0;entryPerimeter=0;dashed=1;strokeWidth=3;strokeColor=#9673A6;exitPerimeter=0;" parent="1" source="oZ6fTYHKEGw5SNDz8hmi-31" target="cQSAukFgM9H1RLstrKh2-141" edge="1">
          <mxGeometry relative="1" as="geometry">
            <mxPoint x="1603.57" y="-820" as="sourcePoint" />
            <mxPoint x="1808.57" y="-784" as="targetPoint" />
          </mxGeometry>
        </mxCell>
        <mxCell id="EveCIlQHcC4GdwJnfHoP-1" value="&lt;font size=&quot;1&quot; style=&quot;&quot;&gt;&lt;b style=&quot;font-size: 14px;&quot;&gt;View&lt;/b&gt;&lt;/font&gt;" style="ellipse;whiteSpace=wrap;html=1;fillColor=#b0e3e6;strokeColor=#0e8088;" parent="1" vertex="1">
          <mxGeometry x="165.01" y="-1033.75" width="90" height="30" as="geometry" />
        </mxCell>
        <mxCell id="EveCIlQHcC4GdwJnfHoP-2" value="&lt;font size=&quot;1&quot; style=&quot;&quot;&gt;&lt;b style=&quot;font-size: 15px;&quot;&gt;ViewModel&lt;/b&gt;&lt;/font&gt;" style="rounded=0;whiteSpace=wrap;html=1;fillColor=#d5e8d4;strokeColor=#82b366;" parent="1" vertex="1">
          <mxGeometry x="265.01" y="-1038.75" width="90" height="40" as="geometry" />
        </mxCell>
        <mxCell id="EveCIlQHcC4GdwJnfHoP-3" value="&lt;font size=&quot;1&quot; style=&quot;&quot;&gt;&lt;b style=&quot;font-size: 15px;&quot;&gt;Model&lt;/b&gt;&lt;/font&gt;" style="shape=hexagon;perimeter=hexagonPerimeter2;whiteSpace=wrap;html=1;fixedSize=1;fillColor=#f5f5f5;strokeColor=#666666;gradientColor=#b3b3b3;" parent="1" vertex="1">
          <mxGeometry x="475.01" y="-1038.75" width="111.25" height="40" as="geometry" />
        </mxCell>
        <mxCell id="EveCIlQHcC4GdwJnfHoP-4" value="&lt;font style=&quot;font-size: 14px;&quot;&gt;&lt;b&gt;Entity Framework&lt;/b&gt;&lt;/font&gt;" style="shape=parallelogram;perimeter=parallelogramPerimeter;whiteSpace=wrap;html=1;fixedSize=1;fillColor=#cdeb8b;strokeColor=#36393d;" parent="1" vertex="1">
          <mxGeometry x="884.38" y="-1038.75" width="155.63" height="40" as="geometry" />
        </mxCell>
        <mxCell id="bxJJcAM6gwwwhO-RBDSy-21" style="rounded=0;orthogonalLoop=1;jettySize=auto;html=1;exitX=1;exitY=0.3333333333333333;exitDx=0;exitDy=0;exitPerimeter=0;entryX=0.716;entryY=0.951;entryDx=0;entryDy=0;entryPerimeter=0;" parent="1" source="bxJJcAM6gwwwhO-RBDSy-1" target="bxJJcAM6gwwwhO-RBDSy-17" edge="1">
          <mxGeometry relative="1" as="geometry">
            <mxPoint x="1002.24" y="814" as="targetPoint" />
          </mxGeometry>
        </mxCell>
        <mxCell id="NFDsqdB8OenODtYj5lP5-9" style="rounded=0;orthogonalLoop=1;jettySize=auto;html=1;exitX=1;exitY=0.3333333333333333;exitDx=0;exitDy=0;exitPerimeter=0;entryX=0.001;entryY=0.54;entryDx=0;entryDy=0;entryPerimeter=0;" parent="1" source="bxJJcAM6gwwwhO-RBDSy-1" target="NFDsqdB8OenODtYj5lP5-6" edge="1">
          <mxGeometry relative="1" as="geometry" />
        </mxCell>
        <mxCell id="Ojkktp4d_7b2jLIS1f6a-75" style="rounded=0;orthogonalLoop=1;jettySize=auto;html=1;exitX=0;exitY=0.3333333333333333;exitDx=0;exitDy=0;exitPerimeter=0;entryX=0.941;entryY=0.758;entryDx=0;entryDy=0;entryPerimeter=0;" parent="1" source="bxJJcAM6gwwwhO-RBDSy-1" target="NFDsqdB8OenODtYj5lP5-12" edge="1">
          <mxGeometry relative="1" as="geometry" />
        </mxCell>
        <mxCell id="bxJJcAM6gwwwhO-RBDSy-1" value="&lt;font style=&quot;font-size: 17px;&quot;&gt;Actor&lt;/font&gt;" style="shape=umlActor;verticalLabelPosition=bottom;verticalAlign=top;html=1;outlineConnect=0;strokeWidth=3;" parent="1" vertex="1">
          <mxGeometry x="1036.8100000000002" y="870" width="50" height="100" as="geometry" />
        </mxCell>
        <mxCell id="bxJJcAM6gwwwhO-RBDSy-3" style="rounded=0;orthogonalLoop=1;jettySize=auto;html=1;exitX=0.488;exitY=-0.004;exitDx=0;exitDy=0;shape=link;exitPerimeter=0;" parent="1" source="bxJJcAM6gwwwhO-RBDSy-4" edge="1">
          <mxGeometry relative="1" as="geometry">
            <mxPoint x="1165.24" y="1120" as="targetPoint" />
          </mxGeometry>
        </mxCell>
        <mxCell id="bxJJcAM6gwwwhO-RBDSy-22" style="edgeStyle=orthogonalEdgeStyle;rounded=0;orthogonalLoop=1;jettySize=auto;html=1;exitX=0.535;exitY=0.997;exitDx=0;exitDy=0;entryX=0.5;entryY=0;entryDx=0;entryDy=0;shape=link;exitPerimeter=0;" parent="1" source="bxJJcAM6gwwwhO-RBDSy-4" target="bxJJcAM6gwwwhO-RBDSy-13" edge="1">
          <mxGeometry relative="1" as="geometry">
            <mxPoint x="1121.4416000000003" y="1263.75" as="targetPoint" />
            <Array as="points">
              <mxPoint x="1175.24" y="1250" />
            </Array>
          </mxGeometry>
        </mxCell>
        <mxCell id="bxJJcAM6gwwwhO-RBDSy-4" value="&lt;font style=&quot;font-size: 16px;&quot;&gt;&lt;b style=&quot;&quot;&gt;Shared&lt;/b&gt;&lt;br&gt;&lt;/font&gt;&lt;font style=&quot;font-size: 10px;&quot;&gt;MainLayout.razor,&amp;nbsp;NavMenu.razor,&lt;br&gt;SurveyPrompt.razor&lt;/font&gt;&lt;br&gt;ServerValidation.razor,&amp;nbsp;SelectCity.razor" style="ellipse;whiteSpace=wrap;html=1;fillColor=#b0e3e6;strokeColor=#0e8088;verticalAlign=top;" parent="1" vertex="1">
          <mxGeometry x="1057.24" y="1150" width="220.67" height="100" as="geometry" />
        </mxCell>
        <mxCell id="bxJJcAM6gwwwhO-RBDSy-6" value="&lt;font size=&quot;1&quot; style=&quot;&quot;&gt;&lt;b style=&quot;font-size: 15px;&quot;&gt;Author.cs&lt;br&gt;&lt;/b&gt;&lt;/font&gt;properties&lt;font size=&quot;1&quot; style=&quot;&quot;&gt;&lt;b style=&quot;font-size: 15px;&quot;&gt;&lt;br&gt;&lt;/b&gt;&lt;/font&gt;" style="shape=hexagon;perimeter=hexagonPerimeter2;whiteSpace=wrap;html=1;fixedSize=1;fillColor=#f5f5f5;strokeColor=#666666;gradientColor=#b3b3b3;verticalAlign=top;" parent="1" vertex="1">
          <mxGeometry x="1342.62" y="590" width="120" height="50" as="geometry" />
        </mxCell>
        <mxCell id="bxJJcAM6gwwwhO-RBDSy-16" style="edgeStyle=orthogonalEdgeStyle;rounded=0;orthogonalLoop=1;jettySize=auto;html=1;exitX=0.631;exitY=1.001;exitDx=0;exitDy=0;entryX=0.5;entryY=0;entryDx=0;entryDy=0;shape=link;exitPerimeter=0;" parent="1" source="bxJJcAM6gwwwhO-RBDSy-7" target="bxJJcAM6gwwwhO-RBDSy-9" edge="1">
          <mxGeometry relative="1" as="geometry" />
        </mxCell>
        <mxCell id="bxJJcAM6gwwwhO-RBDSy-7" value="&lt;font style=&quot;border-color: var(--border-color); font-size: 16px;&quot;&gt;&lt;b style=&quot;border-color: var(--border-color);&quot;&gt;interface&lt;/b&gt;&amp;nbsp;&lt;font style=&quot;border-color: var(--border-color);&quot; color=&quot;#ff3333&quot;&gt;&lt;b style=&quot;border-color: var(--border-color);&quot;&gt;IAuthorService&lt;/b&gt;&lt;/font&gt;&lt;/font&gt;&lt;br style=&quot;border-color: var(--border-color); font-size: 14px;&quot;&gt;&lt;font style=&quot;border-color: var(--border-color);&quot;&gt;GetAuthors(),&amp;nbsp;GetAuthorById(string authorId),&amp;nbsp;&lt;br&gt;GetCreatedDate(),&amp;nbsp;GetVersion()&lt;br&gt;&lt;/font&gt;" style="shape=dataStorage;whiteSpace=wrap;html=1;fixedSize=1;fillColor=#d0cee2;strokeColor=#56517e;" parent="1" vertex="1">
          <mxGeometry x="936.5300000000001" y="520" width="341.38" height="70" as="geometry" />
        </mxCell>
        <mxCell id="1K7Nr_v_z-zWZEbVA-s3-14" style="edgeStyle=orthogonalEdgeStyle;rounded=0;orthogonalLoop=1;jettySize=auto;html=1;exitX=0.5;exitY=1;exitDx=0;exitDy=0;entryX=0.476;entryY=0;entryDx=0;entryDy=0;entryPerimeter=0;" parent="1" source="bxJJcAM6gwwwhO-RBDSy-8" target="1K7Nr_v_z-zWZEbVA-s3-11" edge="1">
          <mxGeometry relative="1" as="geometry" />
        </mxCell>
        <mxCell id="Ojkktp4d_7b2jLIS1f6a-65" style="edgeStyle=orthogonalEdgeStyle;rounded=0;orthogonalLoop=1;jettySize=auto;html=1;exitX=0;exitY=0.5;exitDx=0;exitDy=0;entryX=1;entryY=0.5;entryDx=0;entryDy=0;" parent="1" source="bxJJcAM6gwwwhO-RBDSy-8" target="bxJJcAM6gwwwhO-RBDSy-10" edge="1">
          <mxGeometry relative="1" as="geometry" />
        </mxCell>
        <mxCell id="bxJJcAM6gwwwhO-RBDSy-8" value="&lt;font style=&quot;&quot;&gt;&lt;font style=&quot;font-size: 13px;&quot;&gt;Program.cs&lt;/font&gt;&lt;br&gt;&lt;span style=&quot;font-size: 17px;&quot;&gt;&amp;nbsp;&lt;/span&gt;&lt;font style=&quot;&quot;&gt;builder.Services.(connections: interfaces, services);&lt;br&gt;HttpClient&lt;br&gt;&lt;/font&gt;&lt;br&gt;&lt;/font&gt;" style="rounded=1;whiteSpace=wrap;html=1;fillColor=#fad9d5;strokeColor=#ae4132;verticalAlign=top;" parent="1" vertex="1">
          <mxGeometry x="574.26" y="1120" width="200.9" height="90" as="geometry" />
        </mxCell>
        <mxCell id="bxJJcAM6gwwwhO-RBDSy-20" style="edgeStyle=orthogonalEdgeStyle;rounded=0;orthogonalLoop=1;jettySize=auto;html=1;exitX=1;exitY=0.5;exitDx=0;exitDy=0;entryX=0;entryY=0.5;entryDx=0;entryDy=0;dashed=1;" parent="1" source="bxJJcAM6gwwwhO-RBDSy-9" target="bxJJcAM6gwwwhO-RBDSy-6" edge="1">
          <mxGeometry relative="1" as="geometry" />
        </mxCell>
        <mxCell id="bxJJcAM6gwwwhO-RBDSy-9" value="&lt;font style=&quot;&quot;&gt;&lt;b style=&quot;&quot;&gt;&lt;font style=&quot;font-size: 16px;&quot;&gt;Services&lt;/font&gt;&lt;/b&gt;&lt;br&gt;&lt;font style=&quot;font-size: 13px;&quot;&gt;AuthorService.cs&lt;br&gt;&lt;/font&gt;(implementation&amp;nbsp;methods from interface)&lt;br&gt;&lt;/font&gt;" style="rounded=1;whiteSpace=wrap;html=1;fillColor=#bac8d3;strokeColor=#23445d;verticalAlign=top;" parent="1" vertex="1">
          <mxGeometry x="1037.24" y="606.25" width="229.13" height="70" as="geometry" />
        </mxCell>
        <mxCell id="bxJJcAM6gwwwhO-RBDSy-10" value="&lt;font style=&quot;&quot;&gt;&lt;font style=&quot;font-size: 13px;&quot;&gt;appsettings.json&lt;/font&gt;&lt;br&gt;&lt;span style=&quot;font-size: 17px;&quot;&gt;&amp;nbsp;(&lt;/span&gt;&lt;font style=&quot;font-size: 12px;&quot;&gt;LocalConnection, BaseAddress)&lt;/font&gt;&lt;br&gt;&lt;/font&gt;" style="rounded=1;whiteSpace=wrap;html=1;fillColor=#fad9d5;strokeColor=#ae4132;verticalAlign=top;" parent="1" vertex="1">
          <mxGeometry x="418.43" y="1135" width="138.4" height="60" as="geometry" />
        </mxCell>
        <mxCell id="bxJJcAM6gwwwhO-RBDSy-11" style="rounded=0;orthogonalLoop=1;jettySize=auto;html=1;exitX=0.74;exitY=0.06;exitDx=0;exitDy=0;shape=link;exitPerimeter=0;" parent="1" source="bxJJcAM6gwwwhO-RBDSy-4" edge="1">
          <mxGeometry relative="1" as="geometry">
            <mxPoint x="1237.24" y="1130" as="targetPoint" />
            <mxPoint x="1257.4799999999998" y="1228.75" as="sourcePoint" />
          </mxGeometry>
        </mxCell>
        <mxCell id="bxJJcAM6gwwwhO-RBDSy-12" style="rounded=0;orthogonalLoop=1;jettySize=auto;html=1;exitX=0.215;exitY=0.088;exitDx=0;exitDy=0;shape=link;exitPerimeter=0;" parent="1" source="bxJJcAM6gwwwhO-RBDSy-4" edge="1">
          <mxGeometry relative="1" as="geometry">
            <mxPoint x="1097.24" y="1130" as="targetPoint" />
            <mxPoint x="1197.4799999999998" y="1238.75" as="sourcePoint" />
          </mxGeometry>
        </mxCell>
        <mxCell id="bxJJcAM6gwwwhO-RBDSy-13" value="&lt;font style=&quot;&quot;&gt;&lt;b style=&quot;font-size: 12px;&quot;&gt;App.razor&lt;/b&gt;&lt;br&gt;&lt;font style=&quot;font-size: 10px;&quot;&gt;(AuthorizeRouteView, CascadingAuthenticationState)&lt;/font&gt;&lt;br&gt;&lt;/font&gt;" style="ellipse;whiteSpace=wrap;html=1;fillColor=#b0e3e6;strokeColor=#0e8088;verticalAlign=top;" parent="1" vertex="1">
          <mxGeometry x="1063.91" y="1280" width="223.05" height="60" as="geometry" />
        </mxCell>
        <mxCell id="bxJJcAM6gwwwhO-RBDSy-19" style="edgeStyle=orthogonalEdgeStyle;rounded=0;orthogonalLoop=1;jettySize=auto;html=1;exitX=0.5;exitY=0;exitDx=0;exitDy=0;entryX=0.227;entryY=0.998;entryDx=0;entryDy=0;entryPerimeter=0;" parent="1" source="bxJJcAM6gwwwhO-RBDSy-17" target="bxJJcAM6gwwwhO-RBDSy-7" edge="1">
          <mxGeometry relative="1" as="geometry" />
        </mxCell>
        <mxCell id="bxJJcAM6gwwwhO-RBDSy-17" value="&lt;font style=&quot;border-color: var(--border-color); font-size: 16px;&quot;&gt;&lt;b&gt;Pages&lt;br&gt;&lt;/b&gt;&lt;/font&gt;&lt;font style=&quot;border-color: var(--border-color);&quot;&gt;Authors.razor, AuthorDetail.razor&lt;br&gt;&lt;span style=&quot;font-size: 13px;&quot;&gt;@code { ... }&lt;/span&gt;&lt;br&gt;&lt;/font&gt;" style="ellipse;shape=doubleEllipse;whiteSpace=wrap;html=1;fillColor=#b0e3e6;strokeColor=#0e8088;verticalAlign=top;" parent="1" vertex="1">
          <mxGeometry x="891.81" y="690" width="243.86" height="70" as="geometry" />
        </mxCell>
        <mxCell id="bxJJcAM6gwwwhO-RBDSy-24" style="edgeStyle=orthogonalEdgeStyle;rounded=0;orthogonalLoop=1;jettySize=auto;html=1;exitX=0.5;exitY=0;exitDx=0;exitDy=0;entryX=0.5;entryY=1;entryDx=0;entryDy=0;shape=link;" parent="1" source="bxJJcAM6gwwwhO-RBDSy-23" target="bxJJcAM6gwwwhO-RBDSy-13" edge="1">
          <mxGeometry relative="1" as="geometry" />
        </mxCell>
        <mxCell id="bxJJcAM6gwwwhO-RBDSy-23" value="&lt;b&gt;_Host.cshtml&lt;/b&gt;" style="ellipse;whiteSpace=wrap;html=1;fillColor=#b0e3e6;strokeColor=#0e8088;verticalAlign=top;" parent="1" vertex="1">
          <mxGeometry x="1112.7199999999998" y="1370" width="125.43" height="30" as="geometry" />
        </mxCell>
        <mxCell id="NFDsqdB8OenODtYj5lP5-1" value="&lt;font style=&quot;border-color: var(--border-color); font-size: 16px;&quot;&gt;&lt;b style=&quot;border-color: var(--border-color);&quot;&gt;interface&lt;/b&gt;&amp;nbsp;&lt;font style=&quot;border-color: var(--border-color);&quot; color=&quot;#ff3333&quot;&gt;&lt;b style=&quot;border-color: var(--border-color);&quot;&gt;IAuthorService&lt;/b&gt;&lt;/font&gt;&lt;/font&gt;&lt;br style=&quot;border-color: var(--border-color); font-size: 14px;&quot;&gt;&lt;font style=&quot;border-color: var(--border-color);&quot;&gt;GetAuthors(),&amp;nbsp;GetAuthorById(string authorId),&amp;nbsp;&lt;br&gt;GetCreatedDate(),&amp;nbsp;GetVersion()&lt;br&gt;&lt;/font&gt;" style="shape=dataStorage;whiteSpace=wrap;html=1;fixedSize=1;fillColor=#d0cee2;strokeColor=#56517e;" parent="1" vertex="1">
          <mxGeometry x="936.5300000000001" y="520" width="341.38" height="70" as="geometry" />
        </mxCell>
        <mxCell id="NFDsqdB8OenODtYj5lP5-2" value="&lt;font style=&quot;border-color: var(--border-color); font-size: 16px;&quot;&gt;&lt;b style=&quot;border-color: var(--border-color);&quot;&gt;interface&lt;/b&gt;&amp;nbsp;&lt;font style=&quot;border-color: var(--border-color);&quot; color=&quot;#ff3333&quot;&gt;&lt;b style=&quot;border-color: var(--border-color);&quot;&gt;IAuthorService&lt;/b&gt;&lt;/font&gt;&lt;/font&gt;&lt;br style=&quot;border-color: var(--border-color); font-size: 14px;&quot;&gt;&lt;font style=&quot;border-color: var(--border-color);&quot;&gt;GetAuthors(),&amp;nbsp;GetAuthorById(int id),&amp;nbsp;&lt;br&gt;GetCreatedDate(),&amp;nbsp;GetVersion()&lt;br&gt;&lt;/font&gt;" style="shape=dataStorage;whiteSpace=wrap;html=1;fixedSize=1;fillColor=#d0cee2;strokeColor=#56517e;" parent="1" vertex="1">
          <mxGeometry x="936.5300000000001" y="520" width="341.38" height="70" as="geometry" />
        </mxCell>
        <mxCell id="NFDsqdB8OenODtYj5lP5-3" style="edgeStyle=orthogonalEdgeStyle;rounded=0;orthogonalLoop=1;jettySize=auto;html=1;exitX=1;exitY=0.5;exitDx=0;exitDy=0;entryX=0;entryY=0.5;entryDx=0;entryDy=0;dashed=1;" parent="1" source="NFDsqdB8OenODtYj5lP5-4" target="NFDsqdB8OenODtYj5lP5-8" edge="1">
          <mxGeometry relative="1" as="geometry">
            <mxPoint x="1692.67" y="755" as="targetPoint" />
          </mxGeometry>
        </mxCell>
        <mxCell id="NFDsqdB8OenODtYj5lP5-4" value="&lt;font style=&quot;&quot;&gt;&lt;b style=&quot;&quot;&gt;&lt;font style=&quot;font-size: 16px;&quot;&gt;Services&lt;/font&gt;&lt;/b&gt;&lt;br&gt;&lt;font style=&quot;font-size: 13px;&quot;&gt;PublisherService.cs&lt;br&gt;&lt;/font&gt;(implementation&amp;nbsp;methods from interface)&lt;br&gt;&lt;/font&gt;" style="rounded=1;whiteSpace=wrap;html=1;fillColor=#bac8d3;strokeColor=#23445d;verticalAlign=top;" parent="1" vertex="1">
          <mxGeometry x="1387.67" y="746.25" width="229.13" height="70" as="geometry" />
        </mxCell>
        <mxCell id="NFDsqdB8OenODtYj5lP5-5" style="edgeStyle=orthogonalEdgeStyle;rounded=0;orthogonalLoop=1;jettySize=auto;html=1;exitX=0.506;exitY=-0.01;exitDx=0;exitDy=0;entryX=0.227;entryY=0.998;entryDx=0;entryDy=0;entryPerimeter=0;exitPerimeter=0;" parent="1" source="NFDsqdB8OenODtYj5lP5-6" edge="1">
          <mxGeometry relative="1" as="geometry">
            <mxPoint x="1364.67" y="730" as="targetPoint" />
          </mxGeometry>
        </mxCell>
        <mxCell id="NFDsqdB8OenODtYj5lP5-6" value="&lt;font style=&quot;border-color: var(--border-color); font-size: 16px;&quot;&gt;&lt;b&gt;Pages&lt;br&gt;&lt;/b&gt;&lt;/font&gt;&lt;font style=&quot;border-color: var(--border-color);&quot;&gt;Publishers.razor&lt;br&gt;&lt;span style=&quot;font-size: 13px;&quot;&gt;@code { ... }&lt;/span&gt;&lt;br&gt;&lt;/font&gt;" style="ellipse;shape=doubleEllipse;whiteSpace=wrap;html=1;fillColor=#b0e3e6;strokeColor=#0e8088;verticalAlign=top;" parent="1" vertex="1">
          <mxGeometry x="1242.2399999999998" y="830" width="243.86" height="70" as="geometry" />
        </mxCell>
        <mxCell id="NFDsqdB8OenODtYj5lP5-7" value="&lt;font style=&quot;border-color: var(--border-color); font-size: 16px;&quot;&gt;&lt;b style=&quot;border-color: var(--border-color);&quot;&gt;interface&lt;/b&gt;&amp;nbsp;&lt;font style=&quot;border-color: var(--border-color);&quot; color=&quot;#ff3333&quot;&gt;&lt;b style=&quot;border-color: var(--border-color);&quot;&gt;IPublisherService&lt;/b&gt;&lt;/font&gt;&lt;/font&gt;&lt;br style=&quot;border-color: var(--border-color); font-size: 14px;&quot;&gt;&lt;font style=&quot;border-color: var(--border-color);&quot;&gt;List&amp;lt;Publisher&amp;gt; Publishers, GetPublishers(),&amp;nbsp;CreatePublisher(Publisher publisher)&lt;br&gt;&lt;/font&gt;" style="shape=dataStorage;whiteSpace=wrap;html=1;fixedSize=1;fillColor=#d0cee2;strokeColor=#56517e;" parent="1" vertex="1">
          <mxGeometry x="1286.96" y="660" width="341.38" height="70" as="geometry" />
        </mxCell>
        <mxCell id="NFDsqdB8OenODtYj5lP5-8" value="&lt;b&gt;&lt;font style=&quot;font-size: 15px;&quot;&gt;Publisher&lt;/font&gt;&lt;/b&gt;&lt;span style=&quot;font-weight: bold; font-size: 15px;&quot;&gt;.cs&lt;/span&gt;&lt;br&gt;&lt;font style=&quot;font-size: 12px;&quot;&gt;properties&lt;/font&gt;" style="shape=hexagon;perimeter=hexagonPerimeter2;whiteSpace=wrap;html=1;fixedSize=1;fillColor=#f5f5f5;strokeColor=#666666;gradientColor=#b3b3b3;verticalAlign=top;" parent="1" vertex="1">
          <mxGeometry x="1689.27" y="730" width="120" height="50" as="geometry" />
        </mxCell>
        <mxCell id="NFDsqdB8OenODtYj5lP5-10" value="&lt;b&gt;&lt;font style=&quot;font-size: 15px;&quot;&gt;User&lt;/font&gt;&lt;/b&gt;&lt;span style=&quot;font-weight: bold; font-size: 15px;&quot;&gt;.cs&lt;/span&gt;&lt;br&gt;&lt;font style=&quot;font-size: 12px;&quot;&gt;properties&lt;/font&gt;" style="shape=hexagon;perimeter=hexagonPerimeter2;whiteSpace=wrap;html=1;fixedSize=1;fillColor=#f5f5f5;strokeColor=#666666;gradientColor=#b3b3b3;verticalAlign=top;" parent="1" vertex="1">
          <mxGeometry x="789.4500000000002" y="608.16" width="120" height="50" as="geometry" />
        </mxCell>
        <mxCell id="NFDsqdB8OenODtYj5lP5-11" value="&lt;b&gt;&lt;font style=&quot;font-size: 15px;&quot;&gt;Role&lt;/font&gt;&lt;/b&gt;&lt;span style=&quot;font-weight: bold; font-size: 15px;&quot;&gt;.cs&lt;/span&gt;&lt;br&gt;&lt;font style=&quot;font-size: 12px;&quot;&gt;properties&lt;/font&gt;" style="shape=hexagon;perimeter=hexagonPerimeter2;whiteSpace=wrap;html=1;fixedSize=1;fillColor=#f5f5f5;strokeColor=#666666;gradientColor=#b3b3b3;verticalAlign=top;" parent="1" vertex="1">
          <mxGeometry x="789.45" y="418.16" width="120" height="50" as="geometry" />
        </mxCell>
        <mxCell id="zheniMVoFdTtj4dPPdd5-1" style="edgeStyle=orthogonalEdgeStyle;rounded=0;orthogonalLoop=1;jettySize=auto;html=1;exitX=1;exitY=0.5;exitDx=0;exitDy=0;entryX=0;entryY=0.5;entryDx=0;entryDy=0;dashed=1;" parent="1" source="NFDsqdB8OenODtYj5lP5-12" target="NFDsqdB8OenODtYj5lP5-10" edge="1">
          <mxGeometry relative="1" as="geometry">
            <Array as="points">
              <mxPoint x="762.76" y="728.16" />
              <mxPoint x="762.76" y="633.16" />
            </Array>
          </mxGeometry>
        </mxCell>
        <mxCell id="NFDsqdB8OenODtYj5lP5-12" value="&lt;font style=&quot;border-color: var(--border-color);&quot;&gt;&lt;font style=&quot;border-color: var(--border-color); font-size: 16px;&quot;&gt;&lt;b style=&quot;border-color: var(--border-color);&quot;&gt;Pages&lt;br style=&quot;border-color: var(--border-color);&quot;&gt;&lt;/b&gt;&lt;/font&gt;&lt;font style=&quot;border-color: var(--border-color);&quot;&gt;Login.razor SignUp.razor&lt;br style=&quot;border-color: var(--border-color);&quot;&gt;@code { ... }&lt;/font&gt;&lt;br&gt;&lt;/font&gt;" style="ellipse;shape=doubleEllipse;whiteSpace=wrap;html=1;fillColor=#b0e3e6;strokeColor=#0e8088;verticalAlign=top;" parent="1" vertex="1">
          <mxGeometry x="466.1899999999999" y="692.66" width="244.53" height="70" as="geometry" />
        </mxCell>
        <mxCell id="NFDsqdB8OenODtYj5lP5-14" value="&lt;b&gt;TestRazorLibrary.dll&lt;/b&gt;&lt;br&gt;&lt;font style=&quot;font-size: 10px;&quot;&gt;SelectCityLibrary.razor,&lt;br&gt;ServerValidationLibrary.razor&lt;/font&gt;" style="sketch=0;pointerEvents=1;shadow=0;dashed=0;html=1;strokeColor=none;fillColor=#505050;labelPosition=center;verticalLabelPosition=bottom;verticalAlign=top;outlineConnect=0;align=center;shape=mxgraph.office.concepts.list_library;" parent="1" vertex="1">
          <mxGeometry x="1377.83" y="1160" width="52" height="48" as="geometry" />
        </mxCell>
        <mxCell id="NFDsqdB8OenODtYj5lP5-17" style="edgeStyle=orthogonalEdgeStyle;rounded=0;orthogonalLoop=1;jettySize=auto;html=1;exitX=0.5;exitY=1;exitDx=0;exitDy=0;entryX=0.326;entryY=-0.002;entryDx=0;entryDy=0;entryPerimeter=0;shape=link;" parent="1" source="NFDsqdB8OenODtYj5lP5-15" target="NFDsqdB8OenODtYj5lP5-16" edge="1">
          <mxGeometry relative="1" as="geometry" />
        </mxCell>
        <mxCell id="NFDsqdB8OenODtYj5lP5-15" value="&lt;font style=&quot;border-color: var(--border-color); font-size: 16px;&quot;&gt;&lt;font style=&quot;border-color: var(--border-color);&quot;&gt;&lt;b style=&quot;border-color: var(--border-color);&quot;&gt;abstract&amp;nbsp;&lt;/b&gt;&lt;/font&gt;&lt;/font&gt;&lt;font size=&quot;1&quot; color=&quot;#ff3333&quot;&gt;&lt;b style=&quot;font-size: 16px;&quot;&gt;AuthenticationStateProvider&lt;/b&gt;&lt;/font&gt;&lt;br style=&quot;border-color: var(--border-color); font-size: 14px;&quot;&gt;&lt;font style=&quot;border-color: var(--border-color);&quot;&gt;GetAuthenticationStateAsync(),&amp;nbsp;&lt;br&gt;MarkUserAsAuthenticated(string emailAddress)&amp;nbsp;&lt;br&gt;MarkUserAsLoggedOut()&lt;br&gt;&lt;/font&gt;" style="shape=dataStorage;whiteSpace=wrap;html=1;fixedSize=1;fillColor=#eeeeee;strokeColor=#36393d;" parent="1" vertex="1">
          <mxGeometry x="414.57" y="494.41" width="341.38" height="70" as="geometry" />
        </mxCell>
        <mxCell id="NFDsqdB8OenODtYj5lP5-16" value="&lt;font style=&quot;&quot;&gt;&lt;b style=&quot;&quot;&gt;&lt;font style=&quot;font-size: 16px;&quot;&gt;Services&lt;/font&gt;&lt;/b&gt;&lt;br&gt;&lt;font style=&quot;font-size: 13px;&quot;&gt;CustomAuthenticationStateProvider.cs&lt;br&gt;&lt;/font&gt;(implementation&amp;nbsp;methods from interface)&lt;br&gt;&lt;/font&gt;" style="rounded=1;whiteSpace=wrap;html=1;fillColor=#bac8d3;strokeColor=#23445d;verticalAlign=top;" parent="1" vertex="1">
          <mxGeometry x="510.56999999999994" y="574.41" width="229.13" height="70" as="geometry" />
        </mxCell>
        <mxCell id="zheniMVoFdTtj4dPPdd5-29" style="edgeStyle=orthogonalEdgeStyle;rounded=0;orthogonalLoop=1;jettySize=auto;html=1;exitX=0.5;exitY=1;exitDx=0;exitDy=0;entryX=0.5;entryY=0;entryDx=0;entryDy=0;strokeWidth=2;" parent="1" source="zheniMVoFdTtj4dPPdd5-30" target="zheniMVoFdTtj4dPPdd5-48" edge="1">
          <mxGeometry relative="1" as="geometry" />
        </mxCell>
        <mxCell id="zheniMVoFdTtj4dPPdd5-30" value="&lt;font style=&quot;font-size: 16px;&quot;&gt;&lt;b&gt;_Host.cshtml&lt;/b&gt;&lt;br&gt;(css, scripts, js, header,footer)&lt;br&gt;&lt;/font&gt;" style="rounded=0;whiteSpace=wrap;html=1;fillColor=#dae8fc;strokeColor=#6c8ebf;" parent="1" vertex="1">
          <mxGeometry x="2600" y="528" width="174" height="84" as="geometry" />
        </mxCell>
        <mxCell id="zheniMVoFdTtj4dPPdd5-31" style="edgeStyle=orthogonalEdgeStyle;rounded=0;orthogonalLoop=1;jettySize=auto;html=1;exitX=0.449;exitY=1.006;exitDx=0;exitDy=0;entryX=0.518;entryY=-0.005;entryDx=0;entryDy=0;entryPerimeter=0;strokeWidth=2;exitPerimeter=0;" parent="1" source="zheniMVoFdTtj4dPPdd5-34" target="zheniMVoFdTtj4dPPdd5-43" edge="1">
          <mxGeometry relative="1" as="geometry" />
        </mxCell>
        <mxCell id="zheniMVoFdTtj4dPPdd5-32" style="edgeStyle=orthogonalEdgeStyle;rounded=0;orthogonalLoop=1;jettySize=auto;html=1;exitX=0.449;exitY=1.004;exitDx=0;exitDy=0;entryX=0.5;entryY=0;entryDx=0;entryDy=0;strokeWidth=2;exitPerimeter=0;" parent="1" source="zheniMVoFdTtj4dPPdd5-34" target="zheniMVoFdTtj4dPPdd5-44" edge="1">
          <mxGeometry relative="1" as="geometry">
            <Array as="points">
              <mxPoint x="2675" y="840" />
              <mxPoint x="2831" y="840" />
            </Array>
          </mxGeometry>
        </mxCell>
        <mxCell id="zheniMVoFdTtj4dPPdd5-33" style="edgeStyle=orthogonalEdgeStyle;rounded=0;orthogonalLoop=1;jettySize=auto;html=1;exitX=0.451;exitY=1.002;exitDx=0;exitDy=0;entryX=0.5;entryY=0;entryDx=0;entryDy=0;strokeWidth=2;exitPerimeter=0;" parent="1" source="zheniMVoFdTtj4dPPdd5-34" target="zheniMVoFdTtj4dPPdd5-45" edge="1">
          <mxGeometry relative="1" as="geometry">
            <Array as="points">
              <mxPoint x="2676" y="840" />
              <mxPoint x="2994" y="840" />
            </Array>
          </mxGeometry>
        </mxCell>
        <mxCell id="zheniMVoFdTtj4dPPdd5-34" value="&lt;font style=&quot;&quot;&gt;&lt;b style=&quot;border-color: var(--border-color);&quot;&gt;&lt;font style=&quot;font-size: 16px;&quot;&gt;MainLayout.razor&lt;/font&gt;&lt;br&gt;&lt;/b&gt;@inherits LayoutComponentBase&amp;nbsp;&lt;br&gt;&lt;br&gt;&lt;font style=&quot;&quot;&gt;&lt;font style=&quot;font-size: 12px;&quot;&gt;@Body&lt;/font&gt;&lt;/font&gt;&lt;br&gt;&lt;/font&gt;" style="rounded=0;whiteSpace=wrap;html=1;fillColor=#d5e8d4;strokeColor=#82b366;" parent="1" vertex="1">
          <mxGeometry x="2583" y="742" width="206" height="84" as="geometry" />
        </mxCell>
        <mxCell id="zheniMVoFdTtj4dPPdd5-35" style="edgeStyle=orthogonalEdgeStyle;rounded=0;orthogonalLoop=1;jettySize=auto;html=1;exitX=1;exitY=0.5;exitDx=0;exitDy=0;entryX=0;entryY=0.5;entryDx=0;entryDy=0;shape=link;" parent="1" source="zheniMVoFdTtj4dPPdd5-36" target="zheniMVoFdTtj4dPPdd5-43" edge="1">
          <mxGeometry relative="1" as="geometry" />
        </mxCell>
        <mxCell id="zheniMVoFdTtj4dPPdd5-36" value="&lt;font style=&quot;font-size: 16px;&quot;&gt;&lt;b style=&quot;font-size: 16px;&quot;&gt;SurveyPrompt.razor&lt;/b&gt;&lt;br style=&quot;font-size: 16px;&quot;&gt;&lt;/font&gt;" style="rounded=0;whiteSpace=wrap;html=1;fillColor=#e1d5e7;strokeColor=#9673a6;fontSize=16;" parent="1" vertex="1">
          <mxGeometry x="2380" y="858" width="204" height="84" as="geometry" />
        </mxCell>
        <mxCell id="zheniMVoFdTtj4dPPdd5-37" style="edgeStyle=orthogonalEdgeStyle;rounded=0;orthogonalLoop=1;jettySize=auto;html=1;exitX=1;exitY=0.5;exitDx=0;exitDy=0;entryX=0;entryY=0.5;entryDx=0;entryDy=0;shape=link;" parent="1" source="zheniMVoFdTtj4dPPdd5-38" target="zheniMVoFdTtj4dPPdd5-34" edge="1">
          <mxGeometry relative="1" as="geometry" />
        </mxCell>
        <mxCell id="zheniMVoFdTtj4dPPdd5-38" value="&lt;font style=&quot;font-size: 16px;&quot;&gt;&lt;b style=&quot;font-size: 16px;&quot;&gt;&amp;nbsp;&lt;/b&gt;&lt;b style=&quot;border-color: var(--border-color); font-size: 16px;&quot;&gt;NavMenu.razor&lt;/b&gt;&lt;br style=&quot;font-size: 16px;&quot;&gt;&lt;/font&gt;" style="rounded=0;whiteSpace=wrap;html=1;fillColor=#d5e8d4;strokeColor=#82b366;fontSize=16;" parent="1" vertex="1">
          <mxGeometry x="2392" y="742" width="158" height="84" as="geometry" />
        </mxCell>
        <mxCell id="zheniMVoFdTtj4dPPdd5-40" value="&lt;font size=&quot;1&quot; color=&quot;#ffffff&quot;&gt;&lt;b style=&quot;font-size: 20px;&quot;&gt;I&lt;/b&gt;&lt;/font&gt;" style="rounded=1;whiteSpace=wrap;html=1;strokeColor=none;strokeWidth=4;fontSize=15;fontColor=#82BE77;fillColor=#000000;" parent="1" vertex="1">
          <mxGeometry x="2330" y="555" width="24" height="30" as="geometry" />
        </mxCell>
        <mxCell id="zheniMVoFdTtj4dPPdd5-41" value="&lt;font size=&quot;1&quot; color=&quot;#ffffff&quot;&gt;&lt;b style=&quot;font-size: 20px;&quot;&gt;III&lt;/b&gt;&lt;/font&gt;" style="rounded=1;whiteSpace=wrap;html=1;strokeColor=none;strokeWidth=4;fontSize=15;fontColor=#82BE77;fillColor=#000000;" parent="1" vertex="1">
          <mxGeometry x="2330" y="773" width="24" height="30" as="geometry" />
        </mxCell>
        <mxCell id="zheniMVoFdTtj4dPPdd5-42" value="&lt;font style=&quot;&quot;&gt;&lt;b style=&quot;&quot;&gt;&lt;font style=&quot;font-size: 16px;&quot;&gt;Error.cshtml&lt;/font&gt;&lt;/b&gt;&lt;br&gt;&lt;span style=&quot;font-size: 20px;&quot;&gt;(css, scripts, js, header,footer)&lt;/span&gt;&lt;br&gt;&lt;/font&gt;" style="rounded=0;whiteSpace=wrap;html=1;fillColor=#dae8fc;strokeColor=#6c8ebf;" parent="1" vertex="1">
          <mxGeometry x="2789" y="528" width="174" height="84" as="geometry" />
        </mxCell>
        <mxCell id="zheniMVoFdTtj4dPPdd5-43" value="&lt;font style=&quot;&quot;&gt;&lt;b style=&quot;font-size: 16px;&quot;&gt;Index.razor&lt;br&gt;&lt;/b&gt;&lt;font style=&quot;font-size: 12px;&quot;&gt;@page &quot;/index&quot;&lt;/font&gt;&lt;br style=&quot;font-size: 16px;&quot;&gt;&lt;/font&gt;" style="rounded=0;whiteSpace=wrap;html=1;fillColor=#e1d5e7;strokeColor=#9673a6;fontSize=16;" parent="1" vertex="1">
          <mxGeometry x="2597" y="858" width="152" height="84" as="geometry" />
        </mxCell>
        <mxCell id="zheniMVoFdTtj4dPPdd5-44" value="&lt;font style=&quot;&quot;&gt;&lt;b style=&quot;font-size: 16px;&quot;&gt;Counter.razor&lt;br&gt;&lt;/b&gt;&lt;div style=&quot;&quot;&gt;&lt;font style=&quot;font-size: 12px;&quot;&gt;@page &quot;/counter&quot;&lt;/font&gt;&lt;/div&gt;&lt;/font&gt;" style="rounded=0;whiteSpace=wrap;html=1;fillColor=#e1d5e7;strokeColor=#9673a6;fontSize=16;" parent="1" vertex="1">
          <mxGeometry x="2755" y="858" width="152" height="84" as="geometry" />
        </mxCell>
        <mxCell id="zheniMVoFdTtj4dPPdd5-45" value="&lt;font style=&quot;&quot;&gt;&lt;b style=&quot;font-size: 16px;&quot;&gt;FetchData.razor&lt;br&gt;&lt;/b&gt;&lt;font style=&quot;font-size: 12px;&quot;&gt;@page &quot;/fetchdata&quot;&lt;/font&gt;&lt;br style=&quot;font-size: 16px;&quot;&gt;&lt;/font&gt;" style="rounded=0;whiteSpace=wrap;html=1;fillColor=#e1d5e7;strokeColor=#9673a6;fontSize=16;" parent="1" vertex="1">
          <mxGeometry x="2913" y="858" width="162" height="84" as="geometry" />
        </mxCell>
        <mxCell id="zheniMVoFdTtj4dPPdd5-46" value="&lt;font size=&quot;1&quot; color=&quot;#ffffff&quot;&gt;&lt;b style=&quot;font-size: 20px;&quot;&gt;IV&lt;/b&gt;&lt;/font&gt;" style="rounded=1;whiteSpace=wrap;html=1;strokeColor=none;strokeWidth=4;fontSize=15;fontColor=#82BE77;fillColor=#000000;" parent="1" vertex="1">
          <mxGeometry x="2329" y="881" width="24" height="30" as="geometry" />
        </mxCell>
        <mxCell id="zheniMVoFdTtj4dPPdd5-47" style="edgeStyle=orthogonalEdgeStyle;rounded=0;orthogonalLoop=1;jettySize=auto;html=1;exitX=0.128;exitY=0.997;exitDx=0;exitDy=0;strokeWidth=2;exitPerimeter=0;entryX=0.196;entryY=-0.004;entryDx=0;entryDy=0;entryPerimeter=0;" parent="1" source="zheniMVoFdTtj4dPPdd5-48" target="zheniMVoFdTtj4dPPdd5-34" edge="1">
          <mxGeometry relative="1" as="geometry">
            <mxPoint x="2634" y="745" as="targetPoint" />
          </mxGeometry>
        </mxCell>
        <mxCell id="zheniMVoFdTtj4dPPdd5-48" value="&lt;font style=&quot;font-size: 16px;&quot;&gt;&lt;b style=&quot;border-color: var(--border-color); font-size: 16px;&quot;&gt;App.razor&lt;/b&gt;&lt;br style=&quot;font-size: 16px;&quot;&gt;&lt;/font&gt;" style="rounded=0;whiteSpace=wrap;html=1;fillColor=#f8cecc;strokeColor=#b85450;fontSize=16;" parent="1" vertex="1">
          <mxGeometry x="2601" y="637" width="173" height="84" as="geometry" />
        </mxCell>
        <mxCell id="zheniMVoFdTtj4dPPdd5-49" style="edgeStyle=orthogonalEdgeStyle;rounded=0;orthogonalLoop=1;jettySize=auto;html=1;entryX=0.771;entryY=-0.003;entryDx=0;entryDy=0;strokeWidth=2;entryPerimeter=0;" parent="1" target="zheniMVoFdTtj4dPPdd5-34" edge="1">
          <mxGeometry relative="1" as="geometry">
            <mxPoint x="2742" y="721" as="sourcePoint" />
            <mxPoint x="2705" y="750" as="targetPoint" />
          </mxGeometry>
        </mxCell>
        <mxCell id="zheniMVoFdTtj4dPPdd5-50" value="&lt;font size=&quot;1&quot; color=&quot;#ffffff&quot;&gt;&lt;b style=&quot;font-size: 20px;&quot;&gt;II&lt;/b&gt;&lt;/font&gt;" style="rounded=1;whiteSpace=wrap;html=1;strokeColor=none;strokeWidth=4;fontSize=15;fontColor=#82BE77;fillColor=#000000;" parent="1" vertex="1">
          <mxGeometry x="2330" y="664" width="24" height="30" as="geometry" />
        </mxCell>
        <mxCell id="zheniMVoFdTtj4dPPdd5-51" value="" style="endArrow=none;dashed=1;html=1;rounded=0;strokeWidth=2;fontSize=20;" parent="1" edge="1">
          <mxGeometry width="50" height="50" relative="1" as="geometry">
            <mxPoint x="2298" y="622" as="sourcePoint" />
            <mxPoint x="3098" y="621" as="targetPoint" />
          </mxGeometry>
        </mxCell>
        <mxCell id="zheniMVoFdTtj4dPPdd5-52" value="" style="endArrow=none;dashed=1;html=1;rounded=0;strokeWidth=2;fontSize=20;" parent="1" edge="1">
          <mxGeometry width="50" height="50" relative="1" as="geometry">
            <mxPoint x="2300" y="729" as="sourcePoint" />
            <mxPoint x="3100" y="728" as="targetPoint" />
          </mxGeometry>
        </mxCell>
        <mxCell id="zheniMVoFdTtj4dPPdd5-53" value="" style="endArrow=none;dashed=1;html=1;rounded=0;strokeWidth=2;fontSize=20;" parent="1" edge="1">
          <mxGeometry width="50" height="50" relative="1" as="geometry">
            <mxPoint x="2299" y="835" as="sourcePoint" />
            <mxPoint x="3099" y="834" as="targetPoint" />
          </mxGeometry>
        </mxCell>
        <mxCell id="zheniMVoFdTtj4dPPdd5-54" value="&lt;font style=&quot;font-size: 20px;&quot;&gt;&lt;b&gt;Server App&lt;/b&gt;&lt;/font&gt;" style="rounded=1;whiteSpace=wrap;html=1;" parent="1" vertex="1">
          <mxGeometry x="2826" y="454.25" width="137" height="32" as="geometry" />
        </mxCell>
        <mxCell id="zheniMVoFdTtj4dPPdd5-62" style="edgeStyle=orthogonalEdgeStyle;rounded=0;orthogonalLoop=1;jettySize=auto;html=1;exitX=0;exitY=0.5;exitDx=0;exitDy=0;entryX=1;entryY=0.5;entryDx=0;entryDy=0;shape=link;" parent="1" source="zheniMVoFdTtj4dPPdd5-55" target="zheniMVoFdTtj4dPPdd5-61" edge="1">
          <mxGeometry relative="1" as="geometry" />
        </mxCell>
        <mxCell id="zheniMVoFdTtj4dPPdd5-64" style="edgeStyle=orthogonalEdgeStyle;rounded=0;orthogonalLoop=1;jettySize=auto;html=1;exitX=0.5;exitY=1;exitDx=0;exitDy=0;entryX=0.5;entryY=0;entryDx=0;entryDy=0;strokeWidth=2;" parent="1" source="zheniMVoFdTtj4dPPdd5-55" target="zheniMVoFdTtj4dPPdd5-63" edge="1">
          <mxGeometry relative="1" as="geometry" />
        </mxCell>
        <mxCell id="zheniMVoFdTtj4dPPdd5-55" value="&lt;font style=&quot;&quot;&gt;&lt;b style=&quot;border-color: var(--border-color);&quot;&gt;&lt;font style=&quot;font-size: 16px;&quot;&gt;CenteredCardLayout.razor&lt;/font&gt;&lt;br&gt;&lt;/b&gt;@layout LoginLayout&lt;br&gt;@inherits LayoutComponentBase&amp;nbsp;&lt;br&gt;&lt;br&gt;&lt;font style=&quot;&quot;&gt;&lt;font style=&quot;font-size: 12px;&quot;&gt;@Body&lt;/font&gt;&lt;/font&gt;&lt;br&gt;&lt;/font&gt;" style="rounded=0;whiteSpace=wrap;html=1;fillColor=#d5e8d4;strokeColor=#82b366;" parent="1" vertex="1">
          <mxGeometry x="3118" y="742" width="240" height="84" as="geometry" />
        </mxCell>
        <mxCell id="zheniMVoFdTtj4dPPdd5-56" value="&lt;font style=&quot;&quot;&gt;&lt;b style=&quot;&quot;&gt;&lt;font style=&quot;font-size: 16px;&quot;&gt;Login.razor&lt;br&gt;&lt;/font&gt;&lt;br&gt;&lt;/b&gt;@page &quot;/&quot;&lt;br&gt;&lt;/font&gt;" style="rounded=0;whiteSpace=wrap;html=1;fillColor=#e1d5e7;strokeColor=#9673a6;" parent="1" vertex="1">
          <mxGeometry x="3088" y="971" width="152" height="84" as="geometry" />
        </mxCell>
        <mxCell id="zheniMVoFdTtj4dPPdd5-58" value="&lt;font style=&quot;&quot;&gt;&lt;b style=&quot;&quot;&gt;&lt;font style=&quot;font-size: 16px;&quot;&gt;SignUp.razor&lt;/font&gt;&lt;br&gt;&lt;/b&gt;&lt;br&gt;@page &quot;/signup&quot;&lt;br&gt;&lt;/font&gt;" style="rounded=0;whiteSpace=wrap;html=1;fillColor=#e1d5e7;strokeColor=#9673a6;" parent="1" vertex="1">
          <mxGeometry x="3248" y="971" width="152" height="84" as="geometry" />
        </mxCell>
        <mxCell id="zheniMVoFdTtj4dPPdd5-61" value="&lt;font style=&quot;&quot;&gt;&lt;b style=&quot;border-color: var(--border-color);&quot;&gt;&lt;font style=&quot;font-size: 16px;&quot;&gt;LoginLayout.razor&lt;/font&gt;&lt;br&gt;&lt;/b&gt;@inherits LayoutComponentBase&amp;nbsp;&lt;br&gt;&lt;br&gt;&lt;font style=&quot;&quot;&gt;&lt;font style=&quot;font-size: 12px;&quot;&gt;@Body&lt;/font&gt;&lt;/font&gt;&lt;br&gt;&lt;/font&gt;" style="rounded=0;whiteSpace=wrap;html=1;fillColor=#d5e8d4;strokeColor=#82b366;" parent="1" vertex="1">
          <mxGeometry x="2891" y="742" width="206" height="84" as="geometry" />
        </mxCell>
        <mxCell id="zheniMVoFdTtj4dPPdd5-65" style="edgeStyle=orthogonalEdgeStyle;rounded=0;orthogonalLoop=1;jettySize=auto;html=1;exitX=0.5;exitY=1;exitDx=0;exitDy=0;entryX=0.5;entryY=0;entryDx=0;entryDy=0;strokeWidth=2;" parent="1" source="zheniMVoFdTtj4dPPdd5-63" target="zheniMVoFdTtj4dPPdd5-56" edge="1">
          <mxGeometry relative="1" as="geometry">
            <Array as="points">
              <mxPoint x="3238" y="951" />
              <mxPoint x="3164" y="951" />
            </Array>
          </mxGeometry>
        </mxCell>
        <mxCell id="zheniMVoFdTtj4dPPdd5-66" style="edgeStyle=orthogonalEdgeStyle;rounded=0;orthogonalLoop=1;jettySize=auto;html=1;exitX=0.5;exitY=1;exitDx=0;exitDy=0;strokeWidth=2;" parent="1" source="zheniMVoFdTtj4dPPdd5-63" target="zheniMVoFdTtj4dPPdd5-58" edge="1">
          <mxGeometry relative="1" as="geometry">
            <Array as="points">
              <mxPoint x="3238" y="951" />
              <mxPoint x="3324" y="951" />
            </Array>
          </mxGeometry>
        </mxCell>
        <mxCell id="zheniMVoFdTtj4dPPdd5-63" value="&lt;font style=&quot;&quot;&gt;&lt;b&gt;&lt;font style=&quot;font-size: 16px;&quot;&gt;_Imports.razor&lt;/font&gt;&lt;/b&gt;&lt;br&gt;@layout CenteredCardLayout&lt;br&gt;&lt;/font&gt;" style="rounded=0;whiteSpace=wrap;html=1;fillColor=#e1d5e7;strokeColor=#9673a6;" parent="1" vertex="1">
          <mxGeometry x="3153" y="858" width="170" height="84" as="geometry" />
        </mxCell>
        <mxCell id="1K7Nr_v_z-zWZEbVA-s3-2" value="&lt;b&gt;&lt;font style=&quot;font-size: 14px;&quot;&gt;BookStores&lt;/font&gt;&lt;/b&gt;" style="shape=datastore;whiteSpace=wrap;html=1;fillColor=#e1d5e7;strokeColor=#9673a6;" parent="1" vertex="1">
          <mxGeometry x="1776.3799999999999" y="440" width="109.83" height="100" as="geometry" />
        </mxCell>
        <mxCell id="1K7Nr_v_z-zWZEbVA-s3-3" style="rounded=0;orthogonalLoop=1;jettySize=auto;html=1;exitX=1;exitY=0.5;exitDx=0;exitDy=0;entryX=0;entryY=0.7;entryDx=0;entryDy=0;strokeWidth=3;strokeColor=#9673A6;" parent="1" source="1K7Nr_v_z-zWZEbVA-s3-5" target="1K7Nr_v_z-zWZEbVA-s3-2" edge="1">
          <mxGeometry relative="1" as="geometry">
            <mxPoint x="1361.69" y="520" as="sourcePoint" />
            <mxPoint x="1566.69" y="556" as="targetPoint" />
          </mxGeometry>
        </mxCell>
        <mxCell id="1K7Nr_v_z-zWZEbVA-s3-4" style="rounded=0;orthogonalLoop=1;jettySize=auto;html=1;exitX=0.5;exitY=0;exitDx=0;exitDy=0;strokeWidth=3;strokeColor=#9673A6;entryX=0.5;entryY=1;entryDx=0;entryDy=0;" parent="1" source="1K7Nr_v_z-zWZEbVA-s3-8" target="1K7Nr_v_z-zWZEbVA-s3-2" edge="1">
          <mxGeometry relative="1" as="geometry">
            <mxPoint x="1275.24" y="621" as="sourcePoint" />
            <mxPoint x="1707.24" y="530" as="targetPoint" />
          </mxGeometry>
        </mxCell>
        <mxCell id="1K7Nr_v_z-zWZEbVA-s3-7" style="edgeStyle=orthogonalEdgeStyle;rounded=0;orthogonalLoop=1;jettySize=auto;html=1;exitX=0.5;exitY=1;exitDx=0;exitDy=0;entryX=1;entryY=0.5;entryDx=0;entryDy=0;dashed=1;" parent="1" source="1K7Nr_v_z-zWZEbVA-s3-5" target="bxJJcAM6gwwwhO-RBDSy-6" edge="1">
          <mxGeometry relative="1" as="geometry" />
        </mxCell>
        <mxCell id="1K7Nr_v_z-zWZEbVA-s3-5" value="&lt;font style=&quot;font-size: 13px;&quot;&gt;&lt;b&gt;&lt;font style=&quot;font-size: 14px;&quot;&gt;Data&lt;/font&gt;&lt;br&gt;AppDbContext.cs&lt;br&gt;&lt;/b&gt;DbSet&amp;lt;Author&amp;gt; Authors&lt;br&gt;&lt;/font&gt;" style="shape=parallelogram;perimeter=parallelogramPerimeter;whiteSpace=wrap;html=1;fixedSize=1;fillColor=#cdeb8b;strokeColor=#36393d;verticalAlign=top;" parent="1" vertex="1">
          <mxGeometry x="1414.4299999999998" y="509" width="183.44" height="60" as="geometry" />
        </mxCell>
        <mxCell id="1K7Nr_v_z-zWZEbVA-s3-6" style="rounded=0;orthogonalLoop=1;jettySize=auto;html=1;exitX=0.986;exitY=0.065;exitDx=0;exitDy=0;entryX=0;entryY=1;entryDx=0;entryDy=0;strokeColor=#CDEB8B;strokeWidth=3;exitPerimeter=0;" parent="1" source="bxJJcAM6gwwwhO-RBDSy-9" target="1K7Nr_v_z-zWZEbVA-s3-5" edge="1">
          <mxGeometry relative="1" as="geometry">
            <mxPoint x="1282.6200000000001" y="600" as="sourcePoint" />
            <mxPoint x="1534.6200000000001" y="528" as="targetPoint" />
          </mxGeometry>
        </mxCell>
        <mxCell id="1K7Nr_v_z-zWZEbVA-s3-10" style="edgeStyle=orthogonalEdgeStyle;rounded=0;orthogonalLoop=1;jettySize=auto;html=1;exitX=0.5;exitY=1;exitDx=0;exitDy=0;entryX=1;entryY=0.5;entryDx=0;entryDy=0;dashed=1;" parent="1" source="1K7Nr_v_z-zWZEbVA-s3-8" target="NFDsqdB8OenODtYj5lP5-8" edge="1">
          <mxGeometry relative="1" as="geometry" />
        </mxCell>
        <mxCell id="1K7Nr_v_z-zWZEbVA-s3-8" value="&lt;font style=&quot;font-size: 13px;&quot;&gt;&lt;b&gt;&lt;font style=&quot;font-size: 14px;&quot;&gt;Data&lt;/font&gt;&lt;br&gt;AppDbContext.cs&lt;br&gt;&lt;/b&gt;DbSet&amp;lt;Publisher&amp;gt;&amp;nbsp;Publishers&lt;br&gt;&lt;/font&gt;" style="shape=parallelogram;perimeter=parallelogramPerimeter;whiteSpace=wrap;html=1;fixedSize=1;fillColor=#cdeb8b;strokeColor=#36393d;verticalAlign=top;" parent="1" vertex="1">
          <mxGeometry x="1723.88" y="650" width="214.83" height="60" as="geometry" />
        </mxCell>
        <mxCell id="1K7Nr_v_z-zWZEbVA-s3-9" style="rounded=0;orthogonalLoop=1;jettySize=auto;html=1;exitX=0.995;exitY=0.106;exitDx=0;exitDy=0;entryX=0;entryY=1;entryDx=0;entryDy=0;strokeColor=#CDEB8B;strokeWidth=3;exitPerimeter=0;" parent="1" source="NFDsqdB8OenODtYj5lP5-4" target="1K7Nr_v_z-zWZEbVA-s3-8" edge="1">
          <mxGeometry relative="1" as="geometry">
            <mxPoint x="1273.24" y="621" as="sourcePoint" />
            <mxPoint x="1447.24" y="550" as="targetPoint" />
          </mxGeometry>
        </mxCell>
        <mxCell id="1K7Nr_v_z-zWZEbVA-s3-11" value="&lt;font style=&quot;&quot;&gt;&lt;font style=&quot;font-size: 14px; font-weight: bold;&quot;&gt;Data&lt;/font&gt;&lt;br&gt;&lt;b&gt;&lt;font style=&quot;font-size: 13px;&quot;&gt;Seed.cs&lt;/font&gt;&lt;/b&gt;&lt;br&gt;SeedData(IApplicationBuilder applicationBuilder)&lt;br&gt;&lt;br&gt;&lt;/font&gt;" style="shape=parallelogram;perimeter=parallelogramPerimeter;whiteSpace=wrap;html=1;fixedSize=1;fillColor=#cdeb8b;strokeColor=#36393d;verticalAlign=top;" parent="1" vertex="1">
          <mxGeometry x="531.83" y="1230" width="300" height="60" as="geometry" />
        </mxCell>
        <mxCell id="Ojkktp4d_7b2jLIS1f6a-58" value="&lt;font style=&quot;font-size: 20px;&quot;&gt;&lt;b&gt;Server App&lt;/b&gt;&lt;/font&gt;" style="rounded=1;whiteSpace=wrap;html=1;" parent="1" vertex="1">
          <mxGeometry x="1207" y="330" width="137" height="32" as="geometry" />
        </mxCell>
        <mxCell id="Ojkktp4d_7b2jLIS1f6a-74" value="&lt;font style=&quot;font-size: 20px;&quot;&gt;&lt;b&gt;Server App with Web Api&lt;/b&gt;&lt;/font&gt;" style="rounded=1;whiteSpace=wrap;html=1;" parent="1" vertex="1">
          <mxGeometry x="27.99999999999998" width="315.43" height="32" as="geometry" />
        </mxCell>
        <mxCell id="Ojkktp4d_7b2jLIS1f6a-99" style="rounded=0;orthogonalLoop=1;jettySize=auto;html=1;strokeWidth=3;strokeColor=#9673A6;entryX=0.004;entryY=0.772;entryDx=0;entryDy=0;entryPerimeter=0;exitX=0.983;exitY=0.171;exitDx=0;exitDy=0;exitPerimeter=0;" parent="1" source="Ojkktp4d_7b2jLIS1f6a-185" target="Ojkktp4d_7b2jLIS1f6a-177" edge="1">
          <mxGeometry relative="1" as="geometry">
            <mxPoint x="1024.57" y="2470" as="sourcePoint" />
            <mxPoint x="844.57" y="2441" as="targetPoint" />
          </mxGeometry>
        </mxCell>
        <mxCell id="Ojkktp4d_7b2jLIS1f6a-102" value="&lt;font color=&quot;#9673a6&quot; style=&quot;font-size: 18px;&quot;&gt;&lt;b style=&quot;&quot;&gt;1&lt;/b&gt;&lt;/font&gt;" style="rounded=0;orthogonalLoop=1;jettySize=auto;html=1;exitX=1;exitY=0.3333333333333333;exitDx=0;exitDy=0;exitPerimeter=0;" parent="1" source="Ojkktp4d_7b2jLIS1f6a-106" target="Ojkktp4d_7b2jLIS1f6a-123" edge="1">
          <mxGeometry relative="1" as="geometry">
            <mxPoint x="-8.109999999999673" y="2724" as="targetPoint" />
          </mxGeometry>
        </mxCell>
        <mxCell id="Ojkktp4d_7b2jLIS1f6a-103" value="&lt;font style=&quot;font-size: 18px;&quot; color=&quot;#9673a6&quot;&gt;&lt;b&gt;1&lt;/b&gt;&lt;/font&gt;" style="rounded=0;orthogonalLoop=1;jettySize=auto;html=1;exitX=1;exitY=0.3333333333333333;exitDx=0;exitDy=0;exitPerimeter=0;entryX=0.189;entryY=0.906;entryDx=0;entryDy=0;entryPerimeter=0;" parent="1" source="Ojkktp4d_7b2jLIS1f6a-106" target="Ojkktp4d_7b2jLIS1f6a-131" edge="1">
          <mxGeometry relative="1" as="geometry" />
        </mxCell>
        <mxCell id="Ojkktp4d_7b2jLIS1f6a-104" style="rounded=0;orthogonalLoop=1;jettySize=auto;html=1;exitX=0;exitY=0.3333333333333333;exitDx=0;exitDy=0;exitPerimeter=0;entryX=0.456;entryY=1.024;entryDx=0;entryDy=0;entryPerimeter=0;" parent="1" source="Ojkktp4d_7b2jLIS1f6a-106" target="Ojkktp4d_7b2jLIS1f6a-141" edge="1">
          <mxGeometry relative="1" as="geometry" />
        </mxCell>
        <mxCell id="Ojkktp4d_7b2jLIS1f6a-105" value="&lt;font style=&quot;font-size: 18px;&quot;&gt;&lt;b style=&quot;font-size: 18px;&quot;&gt;1&lt;/b&gt;&lt;/font&gt;" style="edgeLabel;html=1;align=center;verticalAlign=middle;resizable=0;points=[];fontSize=18;fontColor=#82B366;" parent="Ojkktp4d_7b2jLIS1f6a-104" vertex="1" connectable="0">
          <mxGeometry x="0.2156" y="1" relative="1" as="geometry">
            <mxPoint x="-1" as="offset" />
          </mxGeometry>
        </mxCell>
        <mxCell id="Ojkktp4d_7b2jLIS1f6a-106" value="&lt;font style=&quot;font-size: 17px;&quot;&gt;Actor&lt;/font&gt;" style="shape=umlActor;verticalLabelPosition=bottom;verticalAlign=top;html=1;outlineConnect=0;strokeWidth=3;" parent="1" vertex="1">
          <mxGeometry x="-200" y="3100" width="50" height="100" as="geometry" />
        </mxCell>
        <mxCell id="Ojkktp4d_7b2jLIS1f6a-107" style="rounded=0;orthogonalLoop=1;jettySize=auto;html=1;exitX=0.488;exitY=-0.004;exitDx=0;exitDy=0;shape=link;exitPerimeter=0;" parent="1" source="Ojkktp4d_7b2jLIS1f6a-109" edge="1">
          <mxGeometry relative="1" as="geometry">
            <mxPoint x="550.5400000000003" y="3290" as="targetPoint" />
          </mxGeometry>
        </mxCell>
        <mxCell id="Ojkktp4d_7b2jLIS1f6a-108" style="edgeStyle=orthogonalEdgeStyle;rounded=0;orthogonalLoop=1;jettySize=auto;html=1;exitX=0.535;exitY=0.997;exitDx=0;exitDy=0;entryX=0.5;entryY=0;entryDx=0;entryDy=0;shape=link;exitPerimeter=0;" parent="1" source="Ojkktp4d_7b2jLIS1f6a-109" target="Ojkktp4d_7b2jLIS1f6a-121" edge="1">
          <mxGeometry relative="1" as="geometry">
            <mxPoint x="506.7416000000007" y="3433.75" as="targetPoint" />
            <Array as="points">
              <mxPoint x="560.5400000000003" y="3420" />
            </Array>
          </mxGeometry>
        </mxCell>
        <mxCell id="Ojkktp4d_7b2jLIS1f6a-109" value="&lt;font style=&quot;font-size: 16px;&quot;&gt;&lt;b style=&quot;&quot;&gt;Shared&lt;/b&gt;&lt;br&gt;&lt;/font&gt;&lt;font style=&quot;font-size: 10px;&quot;&gt;MainLayout.razor,&amp;nbsp;NavMenu.razor,&lt;br&gt;SurveyPrompt.razor&lt;/font&gt;&lt;br&gt;ServerValidation.razor,&amp;nbsp;SelectCity.razor" style="ellipse;whiteSpace=wrap;html=1;fillColor=#b0e3e6;strokeColor=#0e8088;verticalAlign=top;" parent="1" vertex="1">
          <mxGeometry x="442.54000000000036" y="3320" width="220.67" height="100" as="geometry" />
        </mxCell>
        <mxCell id="Ojkktp4d_7b2jLIS1f6a-110" value="&lt;font size=&quot;1&quot; style=&quot;&quot;&gt;&lt;b style=&quot;font-size: 15px;&quot;&gt;Author.cs&lt;br&gt;&lt;/b&gt;&lt;/font&gt;properties&lt;font size=&quot;1&quot; style=&quot;&quot;&gt;&lt;b style=&quot;font-size: 15px;&quot;&gt;&lt;br&gt;&lt;/b&gt;&lt;/font&gt;" style="shape=hexagon;perimeter=hexagonPerimeter2;whiteSpace=wrap;html=1;fixedSize=1;fillColor=#f5f5f5;strokeColor=#666666;gradientColor=#b3b3b3;verticalAlign=top;" parent="1" vertex="1">
          <mxGeometry x="618.3900000000003" y="2950" width="120" height="50" as="geometry" />
        </mxCell>
        <mxCell id="Ojkktp4d_7b2jLIS1f6a-114" style="edgeStyle=orthogonalEdgeStyle;rounded=0;orthogonalLoop=1;jettySize=auto;html=1;exitX=0;exitY=0.5;exitDx=0;exitDy=0;entryX=1;entryY=0.5;entryDx=0;entryDy=0;" parent="1" source="Ojkktp4d_7b2jLIS1f6a-115" target="Ojkktp4d_7b2jLIS1f6a-118" edge="1">
          <mxGeometry relative="1" as="geometry" />
        </mxCell>
        <mxCell id="Ojkktp4d_7b2jLIS1f6a-115" value="&lt;font style=&quot;&quot;&gt;&lt;font style=&quot;font-size: 13px;&quot;&gt;Program.cs&lt;/font&gt;&lt;br&gt;&lt;span style=&quot;font-size: 17px;&quot;&gt;&amp;nbsp;&lt;/span&gt;&lt;font style=&quot;&quot;&gt;builder.Services.(interfaces, services);&lt;br&gt;HttpClient&lt;br&gt;&lt;/font&gt;AddBlazoredLocalStorage()&lt;br&gt;&lt;/font&gt;" style="rounded=1;whiteSpace=wrap;html=1;fillColor=#fad9d5;strokeColor=#ae4132;verticalAlign=top;" parent="1" vertex="1">
          <mxGeometry x="191.06000000000006" y="3309" width="223.51" height="90" as="geometry" />
        </mxCell>
        <mxCell id="Ojkktp4d_7b2jLIS1f6a-118" value="&lt;font style=&quot;&quot;&gt;&lt;font style=&quot;font-size: 13px;&quot;&gt;appsettings.json&lt;/font&gt;&lt;br&gt;&lt;span style=&quot;font-size: 17px;&quot;&gt;&amp;nbsp;(&lt;/span&gt;&lt;font style=&quot;font-size: 12px;&quot;&gt;BaseAddress:&lt;br&gt;&quot;https://localhost:7032/api/&quot;)&lt;/font&gt;&lt;br&gt;&lt;/font&gt;" style="rounded=1;whiteSpace=wrap;html=1;fillColor=#fad9d5;strokeColor=#ae4132;verticalAlign=top;" parent="1" vertex="1">
          <mxGeometry x="-15.42999999999995" y="3324" width="189.06" height="60" as="geometry" />
        </mxCell>
        <mxCell id="Ojkktp4d_7b2jLIS1f6a-119" style="rounded=0;orthogonalLoop=1;jettySize=auto;html=1;exitX=0.74;exitY=0.06;exitDx=0;exitDy=0;shape=link;exitPerimeter=0;" parent="1" source="Ojkktp4d_7b2jLIS1f6a-109" edge="1">
          <mxGeometry relative="1" as="geometry">
            <mxPoint x="622.5400000000003" y="3300" as="targetPoint" />
            <mxPoint x="642.7800000000002" y="3398.75" as="sourcePoint" />
          </mxGeometry>
        </mxCell>
        <mxCell id="Ojkktp4d_7b2jLIS1f6a-120" style="rounded=0;orthogonalLoop=1;jettySize=auto;html=1;exitX=0.215;exitY=0.088;exitDx=0;exitDy=0;shape=link;exitPerimeter=0;" parent="1" source="Ojkktp4d_7b2jLIS1f6a-109" edge="1">
          <mxGeometry relative="1" as="geometry">
            <mxPoint x="482.54000000000036" y="3300" as="targetPoint" />
            <mxPoint x="582.7800000000001" y="3408.75" as="sourcePoint" />
          </mxGeometry>
        </mxCell>
        <mxCell id="Ojkktp4d_7b2jLIS1f6a-121" value="&lt;font style=&quot;&quot;&gt;&lt;b style=&quot;font-size: 12px;&quot;&gt;App.razor&lt;/b&gt;&lt;br&gt;&lt;font style=&quot;font-size: 10px;&quot;&gt;(AuthorizeRouteView, CascadingAuthenticationState)&lt;/font&gt;&lt;br&gt;&lt;/font&gt;" style="ellipse;whiteSpace=wrap;html=1;fillColor=#b0e3e6;strokeColor=#0e8088;verticalAlign=top;" parent="1" vertex="1">
          <mxGeometry x="449.21000000000043" y="3450" width="223.05" height="60" as="geometry" />
        </mxCell>
        <mxCell id="Ojkktp4d_7b2jLIS1f6a-252" style="edgeStyle=orthogonalEdgeStyle;rounded=0;orthogonalLoop=1;jettySize=auto;html=1;exitX=1;exitY=0.5;exitDx=0;exitDy=0;entryX=0;entryY=0.5;entryDx=0;entryDy=0;" parent="1" source="Ojkktp4d_7b2jLIS1f6a-123" target="Ojkktp4d_7b2jLIS1f6a-110" edge="1">
          <mxGeometry relative="1" as="geometry" />
        </mxCell>
        <mxCell id="Ojkktp4d_7b2jLIS1f6a-123" value="&lt;font style=&quot;border-color: var(--border-color); font-size: 16px;&quot;&gt;&lt;b&gt;Pages&lt;br&gt;&lt;/b&gt;&lt;/font&gt;&lt;font style=&quot;border-color: var(--border-color);&quot;&gt;Authors.razor, AuthorDetail.razor&lt;br&gt;&lt;span style=&quot;font-size: 13px;&quot;&gt;@code { ... }&lt;/span&gt;&lt;br&gt;&lt;/font&gt;" style="ellipse;shape=doubleEllipse;whiteSpace=wrap;html=1;fillColor=#b0e3e6;strokeColor=#0e8088;verticalAlign=top;" parent="1" vertex="1">
          <mxGeometry x="350.71" y="2940" width="243.86" height="70" as="geometry" />
        </mxCell>
        <mxCell id="Ojkktp4d_7b2jLIS1f6a-124" style="edgeStyle=orthogonalEdgeStyle;rounded=0;orthogonalLoop=1;jettySize=auto;html=1;exitX=0.5;exitY=0;exitDx=0;exitDy=0;entryX=0.5;entryY=1;entryDx=0;entryDy=0;shape=link;" parent="1" source="Ojkktp4d_7b2jLIS1f6a-125" target="Ojkktp4d_7b2jLIS1f6a-121" edge="1">
          <mxGeometry relative="1" as="geometry" />
        </mxCell>
        <mxCell id="Ojkktp4d_7b2jLIS1f6a-125" value="&lt;b&gt;_Host.cshtml&lt;/b&gt;" style="ellipse;whiteSpace=wrap;html=1;fillColor=#b0e3e6;strokeColor=#0e8088;verticalAlign=top;" parent="1" vertex="1">
          <mxGeometry x="498.0199999999999" y="3540" width="125.43" height="30" as="geometry" />
        </mxCell>
        <mxCell id="Ojkktp4d_7b2jLIS1f6a-239" value="&lt;font color=&quot;#9673a6&quot; style=&quot;font-size: 18px;&quot;&gt;&lt;b&gt;2&lt;/b&gt;&lt;/font&gt;" style="edgeStyle=orthogonalEdgeStyle;rounded=0;orthogonalLoop=1;jettySize=auto;html=1;exitX=0.748;exitY=0.08;exitDx=0;exitDy=0;entryX=0.089;entryY=1.005;entryDx=0;entryDy=0;entryPerimeter=0;exitPerimeter=0;" parent="1" source="Ojkktp4d_7b2jLIS1f6a-131" target="Ojkktp4d_7b2jLIS1f6a-162" edge="1">
          <mxGeometry relative="1" as="geometry" />
        </mxCell>
        <mxCell id="Ojkktp4d_7b2jLIS1f6a-240" style="edgeStyle=orthogonalEdgeStyle;rounded=0;orthogonalLoop=1;jettySize=auto;html=1;exitX=1;exitY=0.5;exitDx=0;exitDy=0;entryX=0;entryY=0.5;entryDx=0;entryDy=0;" parent="1" source="Ojkktp4d_7b2jLIS1f6a-131" target="Ojkktp4d_7b2jLIS1f6a-133" edge="1">
          <mxGeometry relative="1" as="geometry" />
        </mxCell>
        <mxCell id="Ojkktp4d_7b2jLIS1f6a-131" value="&lt;font style=&quot;border-color: var(--border-color); font-size: 16px;&quot;&gt;&lt;b&gt;Pages&lt;br&gt;&lt;/b&gt;&lt;/font&gt;&lt;font style=&quot;border-color: var(--border-color);&quot;&gt;Publishers.razor&lt;br&gt;&lt;span style=&quot;font-size: 13px;&quot;&gt;@code { ... }&lt;/span&gt;&lt;br&gt;&lt;/font&gt;" style="ellipse;shape=doubleEllipse;whiteSpace=wrap;html=1;fillColor=#b0e3e6;strokeColor=#0e8088;verticalAlign=top;" parent="1" vertex="1">
          <mxGeometry x="3.197442310920451e-13" y="2855.5" width="243.86" height="70" as="geometry" />
        </mxCell>
        <mxCell id="Ojkktp4d_7b2jLIS1f6a-133" value="&lt;b&gt;&lt;font style=&quot;font-size: 15px;&quot;&gt;Publisher&lt;/font&gt;&lt;/b&gt;&lt;span style=&quot;font-weight: bold; font-size: 15px;&quot;&gt;.cs&lt;/span&gt;&lt;br&gt;&lt;font style=&quot;font-size: 12px;&quot;&gt;properties&lt;/font&gt;" style="shape=hexagon;perimeter=hexagonPerimeter2;whiteSpace=wrap;html=1;fixedSize=1;fillColor=#f5f5f5;strokeColor=#666666;gradientColor=#b3b3b3;verticalAlign=top;" parent="1" vertex="1">
          <mxGeometry x="279.88" y="2865.5" width="120" height="50" as="geometry" />
        </mxCell>
        <mxCell id="Ojkktp4d_7b2jLIS1f6a-134" value="&lt;b&gt;&lt;font style=&quot;font-size: 15px;&quot;&gt;User&lt;/font&gt;&lt;/b&gt;&lt;span style=&quot;font-weight: bold; font-size: 15px;&quot;&gt;.cs&lt;/span&gt;&lt;br&gt;&lt;font style=&quot;font-size: 12px;&quot;&gt;properties&lt;/font&gt;" style="shape=hexagon;perimeter=hexagonPerimeter2;whiteSpace=wrap;html=1;fixedSize=1;fillColor=#f5f5f5;strokeColor=#666666;gradientColor=#b3b3b3;verticalAlign=top;" parent="1" vertex="1">
          <mxGeometry x="-374.57000000000005" y="2650" width="120" height="50" as="geometry" />
        </mxCell>
        <mxCell id="Ojkktp4d_7b2jLIS1f6a-135" value="&lt;b&gt;&lt;font style=&quot;font-size: 15px;&quot;&gt;Role&lt;/font&gt;&lt;/b&gt;&lt;span style=&quot;font-weight: bold; font-size: 15px;&quot;&gt;.cs&lt;/span&gt;&lt;br&gt;&lt;font style=&quot;font-size: 12px;&quot;&gt;properties&lt;/font&gt;" style="shape=hexagon;perimeter=hexagonPerimeter2;whiteSpace=wrap;html=1;fixedSize=1;fillColor=#f5f5f5;strokeColor=#666666;gradientColor=#b3b3b3;verticalAlign=top;" parent="1" vertex="1">
          <mxGeometry x="69.57000000000005" y="3455" width="120" height="50" as="geometry" />
        </mxCell>
        <mxCell id="Ojkktp4d_7b2jLIS1f6a-137" value="&lt;font color=&quot;#82b366&quot; style=&quot;font-size: 18px;&quot;&gt;&lt;b&gt;5&lt;/b&gt;&lt;/font&gt;" style="edgeStyle=orthogonalEdgeStyle;rounded=0;orthogonalLoop=1;jettySize=auto;html=1;exitX=0.614;exitY=0.011;exitDx=0;exitDy=0;entryX=0.82;entryY=0.997;entryDx=0;entryDy=0;entryPerimeter=0;exitPerimeter=0;" parent="1" source="Ojkktp4d_7b2jLIS1f6a-141" target="Ojkktp4d_7b2jLIS1f6a-144" edge="1">
          <mxGeometry x="0.0981" relative="1" as="geometry">
            <mxPoint as="offset" />
            <Array as="points">
              <mxPoint x="-513.11" y="2679" />
              <mxPoint x="-513.11" y="2679" />
            </Array>
          </mxGeometry>
        </mxCell>
        <mxCell id="Ojkktp4d_7b2jLIS1f6a-138" value="&lt;font color=&quot;#82b366&quot; style=&quot;font-size: 18px;&quot;&gt;&lt;b&gt;4&lt;/b&gt;&lt;/font&gt;" style="rounded=0;orthogonalLoop=1;jettySize=auto;html=1;exitX=1;exitY=1;exitDx=0;exitDy=0;edgeStyle=orthogonalEdgeStyle;entryX=0.293;entryY=-0.032;entryDx=0;entryDy=0;entryPerimeter=0;" parent="1" source="Ojkktp4d_7b2jLIS1f6a-141" target="Ojkktp4d_7b2jLIS1f6a-172" edge="1">
          <mxGeometry x="-0.2265" relative="1" as="geometry">
            <mxPoint as="offset" />
          </mxGeometry>
        </mxCell>
        <mxCell id="Ojkktp4d_7b2jLIS1f6a-139" style="edgeStyle=orthogonalEdgeStyle;rounded=0;orthogonalLoop=1;jettySize=auto;html=1;exitX=0.981;exitY=0.362;exitDx=0;exitDy=0;entryX=0;entryY=0.5;entryDx=0;entryDy=0;exitPerimeter=0;" parent="1" source="Ojkktp4d_7b2jLIS1f6a-141" target="Ojkktp4d_7b2jLIS1f6a-167" edge="1">
          <mxGeometry relative="1" as="geometry">
            <Array as="points">
              <mxPoint x="-423.11" y="2602" />
            </Array>
          </mxGeometry>
        </mxCell>
        <mxCell id="Ojkktp4d_7b2jLIS1f6a-140" value="2" style="edgeLabel;html=1;align=center;verticalAlign=middle;resizable=0;points=[];fontSize=18;fontStyle=1;fontColor=#82B366;" parent="Ojkktp4d_7b2jLIS1f6a-139" vertex="1" connectable="0">
          <mxGeometry x="-0.1328" y="3" relative="1" as="geometry">
            <mxPoint x="35" y="-24" as="offset" />
          </mxGeometry>
        </mxCell>
        <mxCell id="Ojkktp4d_7b2jLIS1f6a-235" style="edgeStyle=orthogonalEdgeStyle;rounded=0;orthogonalLoop=1;jettySize=auto;html=1;exitX=1;exitY=0.5;exitDx=0;exitDy=0;entryX=0;entryY=0.5;entryDx=0;entryDy=0;" parent="1" source="Ojkktp4d_7b2jLIS1f6a-141" target="Ojkktp4d_7b2jLIS1f6a-134" edge="1">
          <mxGeometry relative="1" as="geometry" />
        </mxCell>
        <mxCell id="Ojkktp4d_7b2jLIS1f6a-141" value="&lt;font style=&quot;border-color: var(--border-color);&quot;&gt;&lt;font style=&quot;border-color: var(--border-color); font-size: 16px;&quot;&gt;&lt;b style=&quot;border-color: var(--border-color);&quot;&gt;Pages&lt;br style=&quot;border-color: var(--border-color);&quot;&gt;&lt;/b&gt;&lt;/font&gt;&lt;font style=&quot;border-color: var(--border-color);&quot;&gt;Login.razor SignUp.razor&lt;br style=&quot;border-color: var(--border-color);&quot;&gt;@code { ... }&lt;/font&gt;&lt;br&gt;&lt;/font&gt;" style="ellipse;shape=doubleEllipse;whiteSpace=wrap;html=1;fillColor=#b0e3e6;strokeColor=#0e8088;verticalAlign=top;" parent="1" vertex="1">
          <mxGeometry x="-663.11" y="2680" width="244.53" height="70" as="geometry" />
        </mxCell>
        <mxCell id="Ojkktp4d_7b2jLIS1f6a-142" value="&lt;b&gt;TestRazorLibrary.dll&lt;/b&gt;&lt;br&gt;&lt;font style=&quot;font-size: 10px;&quot;&gt;SelectCityLibrary.razor,&lt;br&gt;ServerValidationLibrary.razor&lt;/font&gt;" style="sketch=0;pointerEvents=1;shadow=0;dashed=0;html=1;strokeColor=none;fillColor=#505050;labelPosition=center;verticalLabelPosition=bottom;verticalAlign=top;outlineConnect=0;align=center;shape=mxgraph.office.concepts.list_library;" parent="1" vertex="1">
          <mxGeometry x="763.1300000000001" y="3330" width="52" height="48" as="geometry" />
        </mxCell>
        <mxCell id="PJCvSGtDHQ5dcLCHLzGS-12" style="edgeStyle=orthogonalEdgeStyle;rounded=0;orthogonalLoop=1;jettySize=auto;html=1;exitX=0.404;exitY=0.997;exitDx=0;exitDy=0;entryX=0.515;entryY=-0.006;entryDx=0;entryDy=0;entryPerimeter=0;exitPerimeter=0;shape=link;" parent="1" source="Ojkktp4d_7b2jLIS1f6a-144" target="Ojkktp4d_7b2jLIS1f6a-145" edge="1">
          <mxGeometry relative="1" as="geometry" />
        </mxCell>
        <mxCell id="Ojkktp4d_7b2jLIS1f6a-144" value="&lt;font style=&quot;border-color: var(--border-color); font-size: 16px;&quot;&gt;&lt;font style=&quot;border-color: var(--border-color);&quot;&gt;&lt;b style=&quot;border-color: var(--border-color);&quot;&gt;abstract&amp;nbsp;&lt;/b&gt;&lt;/font&gt;&lt;/font&gt;&lt;font size=&quot;1&quot; color=&quot;#ff3333&quot;&gt;&lt;b style=&quot;font-size: 16px;&quot;&gt;AuthenticationStateProvider&lt;/b&gt;&lt;/font&gt;&lt;br style=&quot;border-color: var(--border-color); font-size: 14px;&quot;&gt;&lt;font style=&quot;border-color: var(--border-color);&quot;&gt;GetAuthenticationStateAsync(),&amp;nbsp;&lt;br&gt;MarkUserAsAuthenticated(string emailAddress)&amp;nbsp;&lt;br&gt;MarkUserAsLoggedOut()&lt;br&gt;&lt;/font&gt;" style="shape=dataStorage;whiteSpace=wrap;html=1;fixedSize=1;fillColor=#eeeeee;strokeColor=#36393d;" parent="1" vertex="1">
          <mxGeometry x="-793.11" y="2492" width="341.38" height="70" as="geometry" />
        </mxCell>
        <mxCell id="Ojkktp4d_7b2jLIS1f6a-145" value="&lt;font style=&quot;&quot;&gt;&lt;b style=&quot;&quot;&gt;&lt;font style=&quot;font-size: 16px;&quot;&gt;Services&lt;/font&gt;&lt;/b&gt;&lt;br&gt;&lt;font style=&quot;font-size: 13px;&quot;&gt;CustomAuthenticationStateProvider.cs&lt;br&gt;&lt;/font&gt;(implementation&amp;nbsp;methods from interface)&lt;br&gt;&lt;/font&gt;" style="rounded=1;whiteSpace=wrap;html=1;fillColor=#bac8d3;strokeColor=#23445d;verticalAlign=top;" parent="1" vertex="1">
          <mxGeometry x="-773.11" y="2580" width="229.13" height="70" as="geometry" />
        </mxCell>
        <mxCell id="Ojkktp4d_7b2jLIS1f6a-157" value="&lt;font style=&quot;font-size: 14px;&quot;&gt;Data&lt;/font&gt;&lt;font style=&quot;font-size: 12px;&quot;&gt;Library&lt;/font&gt;" style="sketch=0;pointerEvents=1;shadow=0;dashed=0;html=1;strokeColor=none;fillColor=#505050;labelPosition=center;verticalLabelPosition=bottom;verticalAlign=top;outlineConnect=0;align=center;shape=mxgraph.office.concepts.list_library;fontSize=16;fontStyle=1;spacing=-9;" parent="1" vertex="1">
          <mxGeometry x="850" y="2100" width="75" height="62" as="geometry" />
        </mxCell>
        <mxCell id="Ojkktp4d_7b2jLIS1f6a-159" value="&lt;font style=&quot;font-size: 20px;&quot;&gt;&lt;b&gt;Client (Blazor Server)&lt;/b&gt;&lt;/font&gt;" style="rounded=1;whiteSpace=wrap;html=1;fillColor=#e1d5e7;strokeColor=#9673a6;" parent="1" vertex="1">
          <mxGeometry x="-55.969999999999914" y="2230" width="233.61" height="32" as="geometry" />
        </mxCell>
        <mxCell id="Ojkktp4d_7b2jLIS1f6a-245" value="&lt;b&gt;&lt;font color=&quot;#9673a6&quot; style=&quot;font-size: 18px;&quot;&gt;3&lt;/font&gt;&lt;/b&gt;" style="edgeStyle=orthogonalEdgeStyle;rounded=0;orthogonalLoop=1;jettySize=auto;html=1;exitX=0;exitY=0.25;exitDx=0;exitDy=0;entryX=0.451;entryY=1.018;entryDx=0;entryDy=0;entryPerimeter=0;" parent="1" source="Ojkktp4d_7b2jLIS1f6a-160" target="Ojkktp4d_7b2jLIS1f6a-163" edge="1">
          <mxGeometry relative="1" as="geometry">
            <Array as="points">
              <mxPoint x="250" y="2720" />
              <mxPoint x="30" y="2720" />
            </Array>
          </mxGeometry>
        </mxCell>
        <mxCell id="Ojkktp4d_7b2jLIS1f6a-248" value="&lt;font color=&quot;#9673a6&quot; style=&quot;font-size: 18px;&quot;&gt;&lt;b&gt;6&lt;/b&gt;&lt;/font&gt;" style="edgeStyle=orthogonalEdgeStyle;rounded=0;orthogonalLoop=1;jettySize=auto;html=1;exitX=1;exitY=0.5;exitDx=0;exitDy=0;entryX=-0.003;entryY=0.513;entryDx=0;entryDy=0;entryPerimeter=0;" parent="1" source="Ojkktp4d_7b2jLIS1f6a-160" target="Ojkktp4d_7b2jLIS1f6a-171" edge="1">
          <mxGeometry x="0.4187" relative="1" as="geometry">
            <mxPoint as="offset" />
          </mxGeometry>
        </mxCell>
        <mxCell id="Ojkktp4d_7b2jLIS1f6a-160" value="&lt;font style=&quot;&quot;&gt;&lt;b style=&quot;&quot;&gt;&lt;font style=&quot;font-size: 16px;&quot;&gt;Services&lt;/font&gt;&lt;/b&gt;&lt;br&gt;&lt;font style=&quot;font-size: 13px;&quot;&gt;class BookStoresService&amp;lt;T&amp;gt;&lt;br&gt;&lt;/font&gt;(implementation&amp;nbsp;methods from interface)&lt;br&gt;&lt;/font&gt;" style="rounded=1;whiteSpace=wrap;html=1;fillColor=#bac8d3;strokeColor=#23445d;verticalAlign=top;" parent="1" vertex="1">
          <mxGeometry x="213.40999999999994" y="2700" width="229.13" height="70" as="geometry" />
        </mxCell>
        <mxCell id="Ojkktp4d_7b2jLIS1f6a-241" value="&lt;font color=&quot;#9673a6&quot;&gt;&lt;span style=&quot;font-size: 18px;&quot;&gt;&lt;b&gt;4&lt;/b&gt;&lt;/span&gt;&lt;/font&gt;" style="edgeStyle=orthogonalEdgeStyle;rounded=0;orthogonalLoop=1;jettySize=auto;html=1;entryX=0.816;entryY=-0.008;entryDx=0;entryDy=0;entryPerimeter=0;exitX=0.005;exitY=0.554;exitDx=0;exitDy=0;exitPerimeter=0;" parent="1" source="Ojkktp4d_7b2jLIS1f6a-160" target="Ojkktp4d_7b2jLIS1f6a-172" edge="1">
          <mxGeometry relative="1" as="geometry">
            <mxPoint x="250" y="2760" as="sourcePoint" />
          </mxGeometry>
        </mxCell>
        <mxCell id="PJCvSGtDHQ5dcLCHLzGS-10" style="edgeStyle=orthogonalEdgeStyle;rounded=0;orthogonalLoop=1;jettySize=auto;html=1;exitX=0.5;exitY=1;exitDx=0;exitDy=0;entryX=0.476;entryY=0.001;entryDx=0;entryDy=0;entryPerimeter=0;shape=link;" parent="1" source="Ojkktp4d_7b2jLIS1f6a-162" target="Ojkktp4d_7b2jLIS1f6a-160" edge="1">
          <mxGeometry relative="1" as="geometry" />
        </mxCell>
        <mxCell id="Ojkktp4d_7b2jLIS1f6a-162" value="&lt;font style=&quot;border-color: var(--border-color); font-size: 16px;&quot;&gt;&lt;b style=&quot;border-color: var(--border-color);&quot;&gt;interface&lt;/b&gt;&amp;nbsp;&lt;font style=&quot;border-color: var(--border-color);&quot; color=&quot;#ff3333&quot;&gt;&lt;b style=&quot;border-color: var(--border-color);&quot;&gt;IBookStoresService&amp;lt;T&amp;gt;&lt;/b&gt;&lt;/font&gt;&lt;/font&gt;&lt;br style=&quot;border-color: var(--border-color); font-size: 14px;&quot;&gt;&lt;font style=&quot;border-color: var(--border-color);&quot;&gt;GetAllAsync(.),&amp;nbsp;GetByIdAsync(.),&amp;nbsp;SaveAsync(.),&amp;nbsp;&lt;br&gt;UpdateAsync(.), DeleteAsync(.)&lt;br&gt;&lt;/font&gt;" style="shape=dataStorage;whiteSpace=wrap;html=1;fixedSize=1;fillColor=#d0cee2;strokeColor=#56517e;" parent="1" vertex="1">
          <mxGeometry x="151.8199999999999" y="2605" width="341.38" height="85" as="geometry" />
        </mxCell>
        <mxCell id="Ojkktp4d_7b2jLIS1f6a-163" value="&lt;font style=&quot;&quot;&gt;&lt;font style=&quot;font-size: 14px; font-weight: bold;&quot;&gt;Data&lt;/font&gt;&lt;br&gt;&lt;font style=&quot;&quot;&gt;&lt;b&gt;AppSettings.cs&lt;/b&gt;&lt;/font&gt;&lt;br&gt;property:&lt;br&gt;BookStoresBaseAddress&lt;br&gt;&lt;/font&gt;" style="shape=parallelogram;perimeter=parallelogramPerimeter;whiteSpace=wrap;html=1;fixedSize=1;fillColor=#cdeb8b;strokeColor=#36393d;verticalAlign=top;" parent="1" vertex="1">
          <mxGeometry x="-50.129999999999555" y="2625.5" width="177.5" height="74.5" as="geometry" />
        </mxCell>
        <mxCell id="Ojkktp4d_7b2jLIS1f6a-164" style="edgeStyle=orthogonalEdgeStyle;rounded=0;orthogonalLoop=1;jettySize=auto;html=1;exitX=0.549;exitY=0.99;exitDx=0;exitDy=0;entryX=1;entryY=0.5;entryDx=0;entryDy=0;exitPerimeter=0;" parent="1" source="Ojkktp4d_7b2jLIS1f6a-167" target="Ojkktp4d_7b2jLIS1f6a-134" edge="1">
          <mxGeometry relative="1" as="geometry" />
        </mxCell>
        <mxCell id="Ojkktp4d_7b2jLIS1f6a-236" style="edgeStyle=orthogonalEdgeStyle;rounded=0;orthogonalLoop=1;jettySize=auto;html=1;exitX=1.002;exitY=0.555;exitDx=0;exitDy=0;entryX=0.45;entryY=0.002;entryDx=0;entryDy=0;entryPerimeter=0;exitPerimeter=0;" parent="1" source="Ojkktp4d_7b2jLIS1f6a-167" target="Ojkktp4d_7b2jLIS1f6a-163" edge="1">
          <mxGeometry relative="1" as="geometry" />
        </mxCell>
        <mxCell id="Ojkktp4d_7b2jLIS1f6a-167" value="&lt;font style=&quot;&quot;&gt;&lt;b style=&quot;&quot;&gt;&lt;font style=&quot;font-size: 16px;&quot;&gt;Services&lt;/font&gt;&lt;/b&gt;&lt;br&gt;&lt;font style=&quot;font-size: 13px;&quot;&gt;UserService.cs&lt;br&gt;&lt;/font&gt;(implementation&amp;nbsp;methods from interface)&lt;br&gt;&lt;/font&gt;" style="rounded=1;whiteSpace=wrap;html=1;fillColor=#bac8d3;strokeColor=#23445d;verticalAlign=top;" parent="1" vertex="1">
          <mxGeometry x="-339.0899999999996" y="2566.5" width="229.13" height="70" as="geometry" />
        </mxCell>
        <mxCell id="Ojkktp4d_7b2jLIS1f6a-168" value="&lt;font style=&quot;border-color: var(--border-color); font-size: 16px;&quot;&gt;&lt;b style=&quot;border-color: var(--border-color);&quot;&gt;interface&lt;/b&gt;&amp;nbsp;&lt;font style=&quot;border-color: var(--border-color);&quot; color=&quot;#ff3333&quot;&gt;&lt;b style=&quot;border-color: var(--border-color);&quot;&gt;IUserService&lt;/b&gt;&lt;/font&gt;&lt;/font&gt;&lt;br style=&quot;border-color: var(--border-color); font-size: 14px;&quot;&gt;&lt;font style=&quot;border-color: var(--border-color);&quot;&gt;LoginAsync(User user)&lt;br&gt;&lt;/font&gt;" style="shape=dataStorage;whiteSpace=wrap;html=1;fixedSize=1;fillColor=#d0cee2;strokeColor=#56517e;" parent="1" vertex="1">
          <mxGeometry x="-305.62999999999954" y="2492" width="236.11" height="58.25" as="geometry" />
        </mxCell>
        <mxCell id="Ojkktp4d_7b2jLIS1f6a-171" value="&lt;font style=&quot;&quot;&gt;&lt;b&gt;&lt;font style=&quot;font-size: 16px;&quot;&gt;Handlers&lt;/font&gt;&lt;/b&gt;&lt;br&gt;&lt;font style=&quot;font-size: 13px;&quot;&gt;ValidateHeaderHandler.cs&lt;br&gt;&lt;/font&gt;SendAsync(HttpRequestMessage request, CancellationToken cancellationToken)&lt;br&gt;&lt;/font&gt;" style="rounded=1;whiteSpace=wrap;html=1;fillColor=#fad7ac;strokeColor=#b46504;verticalAlign=top;" parent="1" vertex="1">
          <mxGeometry x="524.6700000000002" y="2695" width="240" height="80" as="geometry" />
        </mxCell>
        <mxCell id="Ojkktp4d_7b2jLIS1f6a-172" value="&lt;i&gt;&lt;font color=&quot;#3333ff&quot;&gt;&lt;font style=&quot;border-color: var(--border-color); font-size: 16px;&quot;&gt;&lt;font style=&quot;border-color: var(--border-color);&quot;&gt;&lt;b style=&quot;border-color: var(--border-color);&quot;&gt;Blazored.LocalStorage.ILocalStorageService&lt;/b&gt;&lt;/font&gt;&lt;/font&gt;&lt;br style=&quot;border-color: var(--border-color); font-size: 14px;&quot;&gt;&lt;/font&gt;&lt;/i&gt;&lt;font style=&quot;border-color: var(--border-color);&quot;&gt;GetItemAsync(.), SetItemAsStringAsync(.), ...&lt;br&gt;(it saves access tokens)&lt;br&gt;&lt;/font&gt;" style="shape=dataStorage;whiteSpace=wrap;html=1;fixedSize=1;fillColor=#F9F7ED;strokeColor=#56517e;" parent="1" vertex="1">
          <mxGeometry x="-388.0399999999994" y="2760" width="383.48" height="69" as="geometry" />
        </mxCell>
        <mxCell id="Ojkktp4d_7b2jLIS1f6a-173" style="edgeStyle=orthogonalEdgeStyle;rounded=0;orthogonalLoop=1;jettySize=auto;html=1;exitX=0.309;exitY=0.006;exitDx=0;exitDy=0;entryX=0.086;entryY=1.01;entryDx=0;entryDy=0;entryPerimeter=0;exitPerimeter=0;" parent="1" source="Ojkktp4d_7b2jLIS1f6a-174" target="Ojkktp4d_7b2jLIS1f6a-176" edge="1">
          <mxGeometry relative="1" as="geometry" />
        </mxCell>
        <mxCell id="PJCvSGtDHQ5dcLCHLzGS-17" style="edgeStyle=orthogonalEdgeStyle;rounded=0;orthogonalLoop=1;jettySize=auto;html=1;exitX=0.135;exitY=-0.005;exitDx=0;exitDy=0;entryX=0.141;entryY=1.005;entryDx=0;entryDy=0;entryPerimeter=0;exitPerimeter=0;" parent="1" source="Ojkktp4d_7b2jLIS1f6a-174" target="PJCvSGtDHQ5dcLCHLzGS-1" edge="1">
          <mxGeometry relative="1" as="geometry" />
        </mxCell>
        <mxCell id="Ojkktp4d_7b2jLIS1f6a-174" value="&lt;b style=&quot;border-color: var(--border-color);&quot;&gt;UserController.cs&amp;nbsp;&lt;/b&gt;&lt;font style=&quot;font-size: 12px;&quot;&gt;&quot;api/User&quot;&lt;br&gt;Login(UserDto userDto),&lt;br&gt;Register(UserDto userDto),&lt;br&gt;GetUserByAccessToken(string accessToken)&lt;br&gt;&lt;/font&gt;" style="rounded=0;whiteSpace=wrap;html=1;fillColor=#cce5ff;strokeColor=#36393d;fontSize=14;verticalAlign=top;" parent="1" vertex="1">
          <mxGeometry x="980" y="2555" width="280" height="95" as="geometry" />
        </mxCell>
        <mxCell id="Ojkktp4d_7b2jLIS1f6a-186" style="edgeStyle=orthogonalEdgeStyle;rounded=0;orthogonalLoop=1;jettySize=auto;html=1;exitX=1;exitY=0.5;exitDx=0;exitDy=0;entryX=0;entryY=0.5;entryDx=0;entryDy=0;" parent="1" source="Ojkktp4d_7b2jLIS1f6a-175" target="Ojkktp4d_7b2jLIS1f6a-184" edge="1">
          <mxGeometry relative="1" as="geometry" />
        </mxCell>
        <mxCell id="Ojkktp4d_7b2jLIS1f6a-175" value="&lt;font style=&quot;&quot;&gt;&lt;b&gt;&lt;font style=&quot;font-size: 16px;&quot;&gt;Repository&lt;/font&gt;&lt;/b&gt;&lt;br&gt;&lt;font style=&quot;font-size: 13px;&quot;&gt;UserRepository.cs&lt;br&gt;&lt;/font&gt;(implementation&amp;nbsp;methods from interface)&lt;br&gt;&lt;/font&gt;" style="rounded=1;whiteSpace=wrap;html=1;fillColor=#bac8d3;strokeColor=#23445d;verticalAlign=top;" parent="1" vertex="1">
          <mxGeometry x="1075.18" y="2450" width="229.13" height="70" as="geometry" />
        </mxCell>
        <mxCell id="PJCvSGtDHQ5dcLCHLzGS-16" style="edgeStyle=orthogonalEdgeStyle;rounded=0;orthogonalLoop=1;jettySize=auto;html=1;exitX=0.512;exitY=0.999;exitDx=0;exitDy=0;entryX=0.546;entryY=0.004;entryDx=0;entryDy=0;entryPerimeter=0;exitPerimeter=0;shape=link;" parent="1" source="Ojkktp4d_7b2jLIS1f6a-176" target="Ojkktp4d_7b2jLIS1f6a-175" edge="1">
          <mxGeometry relative="1" as="geometry" />
        </mxCell>
        <mxCell id="Ojkktp4d_7b2jLIS1f6a-176" value="&lt;font style=&quot;border-color: var(--border-color); font-size: 16px;&quot;&gt;&lt;b style=&quot;border-color: var(--border-color);&quot;&gt;interface&lt;/b&gt;&amp;nbsp;&lt;font style=&quot;border-color: var(--border-color);&quot; color=&quot;#ff3333&quot;&gt;&lt;b style=&quot;border-color: var(--border-color);&quot;&gt;IUserRepository&lt;/b&gt;&lt;/font&gt;&lt;/font&gt;&lt;br style=&quot;border-color: var(--border-color); font-size: 14px;&quot;&gt;&lt;font style=&quot;border-color: var(--border-color);&quot;&gt;FindUser(string emailAddress), Create(User user), UpdateUser(User user),&amp;nbsp;&lt;br&gt;GetUserFromAccessToken(string accessToken)&lt;br&gt;&lt;/font&gt;" style="shape=dataStorage;whiteSpace=wrap;html=1;fixedSize=1;fillColor=#d0cee2;strokeColor=#56517e;" parent="1" vertex="1">
          <mxGeometry x="1040.01" y="2350" width="313.19" height="80" as="geometry" />
        </mxCell>
        <mxCell id="Ojkktp4d_7b2jLIS1f6a-177" value="&lt;b&gt;&lt;font style=&quot;font-size: 14px;&quot;&gt;BookStores&lt;/font&gt;&lt;/b&gt;" style="shape=datastore;whiteSpace=wrap;html=1;fillColor=#e1d5e7;strokeColor=#9673a6;" parent="1" vertex="1">
          <mxGeometry x="2004.57" y="2288" width="109.83" height="100" as="geometry" />
        </mxCell>
        <mxCell id="Ojkktp4d_7b2jLIS1f6a-180" value="&lt;span style=&quot;font-size: 20px;&quot;&gt;&lt;b&gt;&lt;font color=&quot;#82b366&quot;&gt;1-5 steps are Authentification and Authorization (Login.razor)&lt;/font&gt;&lt;/b&gt;&lt;/span&gt;" style="rounded=1;whiteSpace=wrap;html=1;" parent="1" vertex="1">
          <mxGeometry x="-705.15" y="2426.25" width="615.15" height="52" as="geometry" />
        </mxCell>
        <mxCell id="Ojkktp4d_7b2jLIS1f6a-181" value="" style="endArrow=none;dashed=1;html=1;rounded=0;strokeWidth=6;" parent="1" edge="1">
          <mxGeometry width="50" height="50" relative="1" as="geometry">
            <mxPoint x="893" y="3710" as="sourcePoint" />
            <mxPoint x="893" y="2169.12" as="targetPoint" />
          </mxGeometry>
        </mxCell>
        <mxCell id="Ojkktp4d_7b2jLIS1f6a-182" value="&lt;font style=&quot;font-size: 20px;&quot;&gt;&lt;b&gt;Server (Asp.Net API)&lt;/b&gt;&lt;/font&gt;" style="rounded=1;whiteSpace=wrap;html=1;fillColor=#bac8d3;strokeColor=#23445d;" parent="1" vertex="1">
          <mxGeometry x="1478.53" y="2110" width="233.61" height="32" as="geometry" />
        </mxCell>
        <mxCell id="Ojkktp4d_7b2jLIS1f6a-184" value="&lt;b&gt;&lt;font style=&quot;font-size: 15px;&quot;&gt;User&lt;/font&gt;&lt;/b&gt;&lt;span style=&quot;font-weight: bold; font-size: 15px;&quot;&gt;.cs&lt;/span&gt;&lt;br&gt;&lt;font style=&quot;font-size: 12px;&quot;&gt;properties&lt;/font&gt;" style="shape=hexagon;perimeter=hexagonPerimeter2;whiteSpace=wrap;html=1;fixedSize=1;fillColor=#f5f5f5;strokeColor=#666666;gradientColor=#b3b3b3;verticalAlign=top;" parent="1" vertex="1">
          <mxGeometry x="1344.57" y="2440" width="120" height="50" as="geometry" />
        </mxCell>
        <mxCell id="Ojkktp4d_7b2jLIS1f6a-187" style="edgeStyle=orthogonalEdgeStyle;rounded=0;orthogonalLoop=1;jettySize=auto;html=1;exitX=0.75;exitY=1;exitDx=0;exitDy=0;entryX=1;entryY=0.5;entryDx=0;entryDy=0;dashed=1;" parent="1" source="Ojkktp4d_7b2jLIS1f6a-185" target="Ojkktp4d_7b2jLIS1f6a-184" edge="1">
          <mxGeometry relative="1" as="geometry" />
        </mxCell>
        <mxCell id="Ojkktp4d_7b2jLIS1f6a-185" value="&lt;font style=&quot;font-size: 13px;&quot;&gt;&lt;b&gt;&lt;font style=&quot;font-size: 14px;&quot;&gt;Data&lt;/font&gt;&lt;br&gt;AppDbContext.cs&lt;br&gt;&lt;/b&gt;DbSet&amp;lt;User&amp;gt; Users&lt;br&gt;&lt;/font&gt;" style="shape=parallelogram;perimeter=parallelogramPerimeter;whiteSpace=wrap;html=1;fixedSize=1;fillColor=#cdeb8b;strokeColor=#36393d;verticalAlign=top;" parent="1" vertex="1">
          <mxGeometry x="1399.1799999999998" y="2360" width="183.44" height="60" as="geometry" />
        </mxCell>
        <mxCell id="Ojkktp4d_7b2jLIS1f6a-210" value="&lt;font size=&quot;1&quot; style=&quot;&quot;&gt;&lt;b style=&quot;font-size: 15px;&quot;&gt;Author.cs&lt;br&gt;&lt;/b&gt;&lt;/font&gt;properties&lt;font size=&quot;1&quot; style=&quot;&quot;&gt;&lt;b style=&quot;font-size: 15px;&quot;&gt;&lt;br&gt;&lt;/b&gt;&lt;/font&gt;" style="shape=hexagon;perimeter=hexagonPerimeter2;whiteSpace=wrap;html=1;fixedSize=1;fillColor=#f5f5f5;strokeColor=#666666;gradientColor=#b3b3b3;verticalAlign=top;" parent="1" vertex="1">
          <mxGeometry x="2040.6599999999992" y="2766.5" width="120" height="50" as="geometry" />
        </mxCell>
        <mxCell id="Ojkktp4d_7b2jLIS1f6a-211" style="edgeStyle=orthogonalEdgeStyle;rounded=0;orthogonalLoop=1;jettySize=auto;html=1;exitX=0.631;exitY=1.001;exitDx=0;exitDy=0;entryX=0.5;entryY=0;entryDx=0;entryDy=0;shape=link;exitPerimeter=0;" parent="1" source="Ojkktp4d_7b2jLIS1f6a-212" target="Ojkktp4d_7b2jLIS1f6a-214" edge="1">
          <mxGeometry relative="1" as="geometry" />
        </mxCell>
        <mxCell id="Ojkktp4d_7b2jLIS1f6a-212" value="&lt;font style=&quot;border-color: var(--border-color); font-size: 16px;&quot;&gt;&lt;b style=&quot;border-color: var(--border-color);&quot;&gt;interface&lt;/b&gt;&amp;nbsp;&lt;font style=&quot;border-color: var(--border-color);&quot; color=&quot;#ff3333&quot;&gt;&lt;b style=&quot;border-color: var(--border-color);&quot;&gt;IAuthorRepository&lt;/b&gt;&lt;/font&gt;&lt;/font&gt;&lt;br style=&quot;border-color: var(--border-color); font-size: 14px;&quot;&gt;&lt;font style=&quot;border-color: var(--border-color);&quot;&gt;GetAuthors(),&amp;nbsp;GetAuthorById(.),GetCreatedDate(),&lt;br&gt;CreateAuthor(.),UpdateAuthor(.),&amp;nbsp;DeleteAuthor(.),&amp;nbsp;Save()&lt;br&gt;&lt;/font&gt;" style="shape=dataStorage;whiteSpace=wrap;html=1;fixedSize=1;fillColor=#d0cee2;strokeColor=#56517e;" parent="1" vertex="1">
          <mxGeometry x="1634.57" y="2696.5" width="341.38" height="70" as="geometry" />
        </mxCell>
        <mxCell id="Ojkktp4d_7b2jLIS1f6a-213" style="edgeStyle=orthogonalEdgeStyle;rounded=0;orthogonalLoop=1;jettySize=auto;html=1;exitX=1;exitY=0.5;exitDx=0;exitDy=0;entryX=0;entryY=0.5;entryDx=0;entryDy=0;" parent="1" source="Ojkktp4d_7b2jLIS1f6a-214" target="Ojkktp4d_7b2jLIS1f6a-210" edge="1">
          <mxGeometry relative="1" as="geometry" />
        </mxCell>
        <mxCell id="Ojkktp4d_7b2jLIS1f6a-214" value="&lt;font style=&quot;&quot;&gt;&lt;b style=&quot;&quot;&gt;&lt;font style=&quot;font-size: 16px;&quot;&gt;Repository&lt;/font&gt;&lt;/b&gt;&lt;br&gt;&lt;font style=&quot;font-size: 13px;&quot;&gt;AuthorRepository.cs&lt;br&gt;&lt;/font&gt;(implementation&amp;nbsp;methods from interface)&lt;br&gt;&lt;/font&gt;" style="rounded=1;whiteSpace=wrap;html=1;fillColor=#bac8d3;strokeColor=#23445d;verticalAlign=top;" parent="1" vertex="1">
          <mxGeometry x="1735.28" y="2782.75" width="229.13" height="70" as="geometry" />
        </mxCell>
        <mxCell id="Ojkktp4d_7b2jLIS1f6a-217" style="edgeStyle=orthogonalEdgeStyle;rounded=0;orthogonalLoop=1;jettySize=auto;html=1;exitX=1;exitY=0.5;exitDx=0;exitDy=0;entryX=0;entryY=0.5;entryDx=0;entryDy=0;" parent="1" source="Ojkktp4d_7b2jLIS1f6a-218" target="Ojkktp4d_7b2jLIS1f6a-222" edge="1">
          <mxGeometry relative="1" as="geometry">
            <mxPoint x="1723.0999999999992" y="2605" as="targetPoint" />
          </mxGeometry>
        </mxCell>
        <mxCell id="Ojkktp4d_7b2jLIS1f6a-218" value="&lt;font style=&quot;&quot;&gt;&lt;b style=&quot;border-color: var(--border-color);&quot;&gt;&lt;font style=&quot;border-color: var(--border-color); font-size: 16px;&quot;&gt;Repository&lt;/font&gt;&lt;/b&gt;&lt;br&gt;&lt;font style=&quot;font-size: 13px;&quot;&gt;PublisherRepository.cs&lt;br&gt;&lt;/font&gt;(implementation&amp;nbsp;methods from interface)&lt;br&gt;&lt;/font&gt;" style="rounded=1;whiteSpace=wrap;html=1;fillColor=#bac8d3;strokeColor=#23445d;verticalAlign=top;" parent="1" vertex="1">
          <mxGeometry x="1418.1000000000001" y="2596.25" width="229.13" height="70" as="geometry" />
        </mxCell>
        <mxCell id="PJCvSGtDHQ5dcLCHLzGS-13" style="edgeStyle=orthogonalEdgeStyle;rounded=0;orthogonalLoop=1;jettySize=auto;html=1;exitX=0.586;exitY=0.999;exitDx=0;exitDy=0;entryX=0.433;entryY=0.006;entryDx=0;entryDy=0;entryPerimeter=0;exitPerimeter=0;shape=link;" parent="1" source="Ojkktp4d_7b2jLIS1f6a-221" target="Ojkktp4d_7b2jLIS1f6a-218" edge="1">
          <mxGeometry relative="1" as="geometry" />
        </mxCell>
        <mxCell id="Ojkktp4d_7b2jLIS1f6a-221" value="&lt;font style=&quot;border-color: var(--border-color); font-size: 16px;&quot;&gt;&lt;b style=&quot;border-color: var(--border-color);&quot;&gt;interface&lt;/b&gt;&amp;nbsp;&lt;font style=&quot;border-color: var(--border-color);&quot; color=&quot;#ff3333&quot;&gt;&lt;b style=&quot;border-color: var(--border-color);&quot;&gt;IPublisherService&lt;/b&gt;&lt;/font&gt;&lt;/font&gt;&lt;br style=&quot;border-color: var(--border-color); font-size: 14px;&quot;&gt;&lt;font style=&quot;border-color: var(--border-color);&quot;&gt;GetPublishers(),&amp;nbsp;CreatePublisher(Publisher publisher)&lt;br&gt;&lt;/font&gt;" style="shape=dataStorage;whiteSpace=wrap;html=1;fixedSize=1;fillColor=#d0cee2;strokeColor=#56517e;" parent="1" vertex="1">
          <mxGeometry x="1317.3899999999992" y="2510" width="341.38" height="70" as="geometry" />
        </mxCell>
        <mxCell id="Ojkktp4d_7b2jLIS1f6a-222" value="&lt;b&gt;&lt;font style=&quot;font-size: 15px;&quot;&gt;Publisher&lt;/font&gt;&lt;/b&gt;&lt;span style=&quot;font-weight: bold; font-size: 15px;&quot;&gt;.cs&lt;/span&gt;&lt;br&gt;&lt;font style=&quot;font-size: 12px;&quot;&gt;properties&lt;/font&gt;" style="shape=hexagon;perimeter=hexagonPerimeter2;whiteSpace=wrap;html=1;fixedSize=1;fillColor=#f5f5f5;strokeColor=#666666;gradientColor=#b3b3b3;verticalAlign=top;" parent="1" vertex="1">
          <mxGeometry x="1719.6999999999996" y="2580" width="120" height="50" as="geometry" />
        </mxCell>
        <mxCell id="Ojkktp4d_7b2jLIS1f6a-224" style="rounded=0;orthogonalLoop=1;jettySize=auto;html=1;exitX=0.292;exitY=0.006;exitDx=0;exitDy=0;entryX=0.759;entryY=0.995;entryDx=0;entryDy=0;strokeWidth=3;strokeColor=#9673A6;entryPerimeter=0;exitPerimeter=0;" parent="1" source="Ojkktp4d_7b2jLIS1f6a-227" target="Ojkktp4d_7b2jLIS1f6a-177" edge="1">
          <mxGeometry relative="1" as="geometry">
            <mxPoint x="1584.45" y="2730" as="sourcePoint" />
            <mxPoint x="1999.1399999999996" y="2720" as="targetPoint" />
          </mxGeometry>
        </mxCell>
        <mxCell id="Ojkktp4d_7b2jLIS1f6a-225" style="rounded=0;orthogonalLoop=1;jettySize=auto;html=1;exitX=0.94;exitY=-0.012;exitDx=0;exitDy=0;strokeWidth=3;strokeColor=#9673A6;entryX=0.312;entryY=0.998;entryDx=0;entryDy=0;entryPerimeter=0;exitPerimeter=0;" parent="1" source="Ojkktp4d_7b2jLIS1f6a-230" target="Ojkktp4d_7b2jLIS1f6a-177" edge="1">
          <mxGeometry relative="1" as="geometry">
            <mxPoint x="1498.0000000000002" y="2831" as="sourcePoint" />
            <mxPoint x="2054.054999999999" y="2750" as="targetPoint" />
          </mxGeometry>
        </mxCell>
        <mxCell id="Ojkktp4d_7b2jLIS1f6a-226" style="edgeStyle=orthogonalEdgeStyle;rounded=0;orthogonalLoop=1;jettySize=auto;html=1;exitX=0.5;exitY=1;exitDx=0;exitDy=0;entryX=1;entryY=0.5;entryDx=0;entryDy=0;dashed=1;" parent="1" source="Ojkktp4d_7b2jLIS1f6a-227" target="Ojkktp4d_7b2jLIS1f6a-210" edge="1">
          <mxGeometry relative="1" as="geometry" />
        </mxCell>
        <mxCell id="Ojkktp4d_7b2jLIS1f6a-227" value="&lt;font style=&quot;font-size: 13px;&quot;&gt;&lt;b&gt;&lt;font style=&quot;font-size: 14px;&quot;&gt;Data&lt;/font&gt;&lt;br&gt;AppDbContext.cs&lt;br&gt;&lt;/b&gt;DbSet&amp;lt;Author&amp;gt; Authors&lt;br&gt;&lt;/font&gt;" style="shape=parallelogram;perimeter=parallelogramPerimeter;whiteSpace=wrap;html=1;fixedSize=1;fillColor=#cdeb8b;strokeColor=#36393d;verticalAlign=top;" parent="1" vertex="1">
          <mxGeometry x="2131.4" y="2676.5" width="183.44" height="60" as="geometry" />
        </mxCell>
        <mxCell id="Ojkktp4d_7b2jLIS1f6a-228" style="rounded=0;orthogonalLoop=1;jettySize=auto;html=1;exitX=0.986;exitY=0.065;exitDx=0;exitDy=0;entryX=0;entryY=1;entryDx=0;entryDy=0;strokeColor=#CDEB8B;strokeWidth=3;exitPerimeter=0;" parent="1" source="Ojkktp4d_7b2jLIS1f6a-214" target="Ojkktp4d_7b2jLIS1f6a-227" edge="1">
          <mxGeometry relative="1" as="geometry">
            <mxPoint x="1980.66" y="2776.5" as="sourcePoint" />
            <mxPoint x="2232.6600000000003" y="2704.5" as="targetPoint" />
          </mxGeometry>
        </mxCell>
        <mxCell id="Ojkktp4d_7b2jLIS1f6a-229" style="edgeStyle=orthogonalEdgeStyle;rounded=0;orthogonalLoop=1;jettySize=auto;html=1;exitX=0.5;exitY=1;exitDx=0;exitDy=0;entryX=1;entryY=0.5;entryDx=0;entryDy=0;dashed=1;" parent="1" source="Ojkktp4d_7b2jLIS1f6a-230" target="Ojkktp4d_7b2jLIS1f6a-222" edge="1">
          <mxGeometry relative="1" as="geometry" />
        </mxCell>
        <mxCell id="Ojkktp4d_7b2jLIS1f6a-230" value="&lt;font style=&quot;font-size: 13px;&quot;&gt;&lt;b&gt;&lt;font style=&quot;font-size: 14px;&quot;&gt;Data&lt;/font&gt;&lt;br&gt;AppDbContext.cs&lt;br&gt;&lt;/b&gt;DbSet&amp;lt;Publisher&amp;gt;&amp;nbsp;Publishers&lt;br&gt;&lt;/font&gt;" style="shape=parallelogram;perimeter=parallelogramPerimeter;whiteSpace=wrap;html=1;fixedSize=1;fillColor=#cdeb8b;strokeColor=#36393d;verticalAlign=top;" parent="1" vertex="1">
          <mxGeometry x="1754.3100000000002" y="2500" width="214.83" height="60" as="geometry" />
        </mxCell>
        <mxCell id="Ojkktp4d_7b2jLIS1f6a-231" style="rounded=0;orthogonalLoop=1;jettySize=auto;html=1;exitX=0.995;exitY=0.106;exitDx=0;exitDy=0;entryX=0;entryY=1;entryDx=0;entryDy=0;strokeColor=#CDEB8B;strokeWidth=3;exitPerimeter=0;" parent="1" source="Ojkktp4d_7b2jLIS1f6a-218" target="Ojkktp4d_7b2jLIS1f6a-230" edge="1">
          <mxGeometry relative="1" as="geometry">
            <mxPoint x="1303.6699999999998" y="2471" as="sourcePoint" />
            <mxPoint x="1477.6699999999998" y="2400" as="targetPoint" />
          </mxGeometry>
        </mxCell>
        <mxCell id="Ojkktp4d_7b2jLIS1f6a-232" value="&lt;b style=&quot;border-color: var(--border-color);&quot;&gt;AuthorController.cs&lt;/b&gt;&lt;font style=&quot;&quot;&gt;&lt;br&gt;&lt;font style=&quot;font-size: 12px;&quot;&gt;GetAuthors(),&amp;nbsp;PostAuthor(.), PutAuthor(.), DeleteAuthor(.)&lt;/font&gt;&lt;br&gt;&lt;/font&gt;" style="rounded=0;whiteSpace=wrap;html=1;fillColor=#cce5ff;strokeColor=#36393d;fontSize=14;verticalAlign=top;" parent="1" vertex="1">
          <mxGeometry x="1676.6499999999999" y="2861.5" width="240" height="70" as="geometry" />
        </mxCell>
        <mxCell id="Ojkktp4d_7b2jLIS1f6a-233" value="&lt;b style=&quot;border-color: var(--border-color);&quot;&gt;PublisherController.cs&lt;/b&gt;&lt;font style=&quot;&quot;&gt;&lt;br&gt;&lt;font style=&quot;font-size: 12px;&quot;&gt;GetPublishers(),&amp;nbsp;PostPublisher(.)&lt;/font&gt;&lt;br&gt;&lt;/font&gt;" style="rounded=0;whiteSpace=wrap;html=1;fillColor=#cce5ff;strokeColor=#36393d;fontSize=14;verticalAlign=top;" parent="1" vertex="1">
          <mxGeometry x="1342.6199999999997" y="2680" width="240" height="70" as="geometry" />
        </mxCell>
        <mxCell id="Ojkktp4d_7b2jLIS1f6a-237" value="&lt;span style=&quot;font-size: 20px;&quot;&gt;&lt;b&gt;&lt;font color=&quot;#9673a6&quot;&gt;1-7 steps are getting protected resources using access token&lt;/font&gt;&lt;/b&gt;&lt;/span&gt;" style="rounded=1;whiteSpace=wrap;html=1;" parent="1" vertex="1">
          <mxGeometry x="89.89" y="2492" width="609.68" height="52" as="geometry" />
        </mxCell>
        <mxCell id="Ojkktp4d_7b2jLIS1f6a-247" value="&lt;font color=&quot;#9673a6&quot; style=&quot;font-size: 18px;&quot;&gt;&lt;b&gt;5&lt;/b&gt;&lt;/font&gt;" style="edgeStyle=orthogonalEdgeStyle;rounded=0;orthogonalLoop=1;jettySize=auto;html=1;exitX=0.821;exitY=0.117;exitDx=0;exitDy=0;entryX=0.142;entryY=1.009;entryDx=0;entryDy=0;entryPerimeter=0;exitPerimeter=0;" parent="1" source="Ojkktp4d_7b2jLIS1f6a-131" target="Ojkktp4d_7b2jLIS1f6a-162" edge="1">
          <mxGeometry relative="1" as="geometry">
            <mxPoint x="211" y="2875" as="sourcePoint" />
            <mxPoint x="211" y="2699" as="targetPoint" />
          </mxGeometry>
        </mxCell>
        <mxCell id="Ojkktp4d_7b2jLIS1f6a-249" value="&lt;font color=&quot;#9673a6&quot; style=&quot;font-size: 18px;&quot;&gt;&lt;b style=&quot;&quot;&gt;7&lt;/b&gt;&lt;/font&gt;&amp;nbsp;&lt;font size=&quot;1&quot; color=&quot;#6c8ebf&quot; style=&quot;&quot;&gt;&lt;b style=&quot;font-size: 16px;&quot;&gt;Http&lt;/b&gt;&lt;/font&gt;" style="rounded=0;orthogonalLoop=1;jettySize=auto;html=1;exitX=0.999;exitY=0.434;exitDx=0;exitDy=0;entryX=0;entryY=0.5;entryDx=0;entryDy=0;fillColor=#dae8fc;strokeColor=#6c8ebf;strokeWidth=3;startArrow=classic;startFill=1;exitPerimeter=0;" parent="1" source="Ojkktp4d_7b2jLIS1f6a-171" target="Ojkktp4d_7b2jLIS1f6a-233" edge="1">
          <mxGeometry relative="1" as="geometry">
            <mxPoint x="1100" y="2787.75" as="sourcePoint" />
            <mxPoint x="2200" y="2735.75" as="targetPoint" />
          </mxGeometry>
        </mxCell>
        <mxCell id="Ojkktp4d_7b2jLIS1f6a-250" value="&lt;font color=&quot;#9673a6&quot; style=&quot;font-size: 18px;&quot;&gt;&lt;b style=&quot;&quot;&gt;2&lt;/b&gt;&lt;/font&gt;" style="edgeStyle=orthogonalEdgeStyle;rounded=0;orthogonalLoop=1;jettySize=auto;html=1;exitX=0.437;exitY=0.003;exitDx=0;exitDy=0;entryX=0.893;entryY=1.006;entryDx=0;entryDy=0;entryPerimeter=0;exitPerimeter=0;" parent="1" source="Ojkktp4d_7b2jLIS1f6a-123" target="Ojkktp4d_7b2jLIS1f6a-162" edge="1">
          <mxGeometry relative="1" as="geometry">
            <mxPoint x="456.87" y="2861.75" as="sourcePoint" />
            <mxPoint x="456.87" y="2690.75" as="targetPoint" />
          </mxGeometry>
        </mxCell>
        <mxCell id="Ojkktp4d_7b2jLIS1f6a-251" value="&lt;font color=&quot;#9673a6&quot; style=&quot;font-size: 18px;&quot;&gt;&lt;b style=&quot;&quot;&gt;5&lt;/b&gt;&lt;/font&gt;" style="edgeStyle=orthogonalEdgeStyle;rounded=0;orthogonalLoop=1;jettySize=auto;html=1;exitX=0.509;exitY=-0.007;exitDx=0;exitDy=0;entryX=0.946;entryY=1.002;entryDx=0;entryDy=0;entryPerimeter=0;exitPerimeter=0;" parent="1" source="Ojkktp4d_7b2jLIS1f6a-123" target="Ojkktp4d_7b2jLIS1f6a-162" edge="1">
          <mxGeometry relative="1" as="geometry">
            <mxPoint x="474.87" y="2864.75" as="sourcePoint" />
            <mxPoint x="474.87" y="2691.75" as="targetPoint" />
          </mxGeometry>
        </mxCell>
        <mxCell id="Ojkktp4d_7b2jLIS1f6a-253" value="&lt;font color=&quot;#9673a6&quot; style=&quot;font-size: 18px;&quot;&gt;&lt;b style=&quot;&quot;&gt;7&lt;/b&gt;&lt;/font&gt;&amp;nbsp;&lt;font size=&quot;1&quot; color=&quot;#6c8ebf&quot; style=&quot;&quot;&gt;&lt;b style=&quot;font-size: 16px;&quot;&gt;Http&lt;/b&gt;&lt;/font&gt;" style="rounded=0;orthogonalLoop=1;jettySize=auto;html=1;exitX=1.001;exitY=0.627;exitDx=0;exitDy=0;entryX=0;entryY=0.5;entryDx=0;entryDy=0;fillColor=#dae8fc;strokeColor=#6c8ebf;strokeWidth=3;startArrow=classic;startFill=1;exitPerimeter=0;" parent="1" source="Ojkktp4d_7b2jLIS1f6a-171" target="Ojkktp4d_7b2jLIS1f6a-232" edge="1">
          <mxGeometry relative="1" as="geometry">
            <mxPoint x="775" y="2745" as="sourcePoint" />
            <mxPoint x="1348" y="2685" as="targetPoint" />
          </mxGeometry>
        </mxCell>
        <mxCell id="PJCvSGtDHQ5dcLCHLzGS-18" style="edgeStyle=orthogonalEdgeStyle;rounded=0;orthogonalLoop=1;jettySize=auto;html=1;exitX=0.614;exitY=1.006;exitDx=0;exitDy=0;entryX=0.52;entryY=-0.005;entryDx=0;entryDy=0;entryPerimeter=0;shape=link;exitPerimeter=0;" parent="1" source="PJCvSGtDHQ5dcLCHLzGS-1" target="PJCvSGtDHQ5dcLCHLzGS-2" edge="1">
          <mxGeometry relative="1" as="geometry" />
        </mxCell>
        <mxCell id="PJCvSGtDHQ5dcLCHLzGS-1" value="&lt;font style=&quot;border-color: var(--border-color); font-size: 16px;&quot;&gt;&lt;b style=&quot;border-color: var(--border-color);&quot;&gt;interface&lt;/b&gt;&amp;nbsp;&lt;font style=&quot;border-color: var(--border-color);&quot; color=&quot;#ff3333&quot;&gt;&lt;b style=&quot;border-color: var(--border-color);&quot;&gt;IUserService&lt;/b&gt;&lt;/font&gt;&lt;/font&gt;&lt;br style=&quot;border-color: var(--border-color); font-size: 14px;&quot;&gt;&lt;font style=&quot;border-color: var(--border-color);&quot;&gt;CreatePasswordHash,&amp;nbsp;VerifyPasswordHash,&lt;br&gt;GenerateAccessToken,&amp;nbsp;GenerateRefreshToken,&amp;nbsp;SetRefreshToken&lt;br&gt;&lt;/font&gt;" style="shape=dataStorage;whiteSpace=wrap;html=1;fixedSize=1;fillColor=#d0cee2;strokeColor=#56517e;size=12.669999999999959;" parent="1" vertex="1">
          <mxGeometry x="965.47" y="2180" width="372.67" height="70" as="geometry" />
        </mxCell>
        <mxCell id="PJCvSGtDHQ5dcLCHLzGS-2" value="&lt;font style=&quot;&quot;&gt;&lt;b style=&quot;&quot;&gt;&lt;font style=&quot;font-size: 16px;&quot;&gt;Services&lt;/font&gt;&lt;/b&gt;&lt;br&gt;&lt;font style=&quot;font-size: 13px;&quot;&gt;UserService.cs&lt;br&gt;&lt;/font&gt;(implementation&amp;nbsp;methods from interface)&lt;br&gt;&lt;/font&gt;" style="rounded=1;whiteSpace=wrap;html=1;fillColor=#fff2cc;strokeColor=#d6b656;verticalAlign=top;" parent="1" vertex="1">
          <mxGeometry x="1075.1800000000003" y="2262" width="229.13" height="70" as="geometry" />
        </mxCell>
        <mxCell id="PJCvSGtDHQ5dcLCHLzGS-3" style="edgeStyle=orthogonalEdgeStyle;rounded=0;orthogonalLoop=1;jettySize=auto;html=1;exitX=0;exitY=0.5;exitDx=0;exitDy=0;entryX=1;entryY=0.5;entryDx=0;entryDy=0;" parent="1" source="PJCvSGtDHQ5dcLCHLzGS-4" target="PJCvSGtDHQ5dcLCHLzGS-5" edge="1">
          <mxGeometry relative="1" as="geometry" />
        </mxCell>
        <mxCell id="PJCvSGtDHQ5dcLCHLzGS-8" style="edgeStyle=orthogonalEdgeStyle;rounded=0;orthogonalLoop=1;jettySize=auto;html=1;exitX=0.5;exitY=1;exitDx=0;exitDy=0;entryX=0.5;entryY=0;entryDx=0;entryDy=0;" parent="1" source="PJCvSGtDHQ5dcLCHLzGS-4" target="PJCvSGtDHQ5dcLCHLzGS-7" edge="1">
          <mxGeometry relative="1" as="geometry" />
        </mxCell>
        <mxCell id="PJCvSGtDHQ5dcLCHLzGS-4" value="&lt;font style=&quot;&quot;&gt;&lt;font style=&quot;font-size: 13px;&quot;&gt;Program.cs&lt;/font&gt;&lt;br&gt;&lt;span style=&quot;font-size: 17px;&quot;&gt;&amp;nbsp;&lt;/span&gt;&lt;font style=&quot;&quot;&gt;builder.Services.( interfaces, services);&lt;br&gt;AddSwaggerGen,&lt;br&gt;AddAuthentication().AddJwtBearer&lt;br&gt;&lt;/font&gt;&lt;br&gt;&lt;/font&gt;" style="rounded=1;whiteSpace=wrap;html=1;fillColor=#fad9d5;strokeColor=#ae4132;verticalAlign=top;" parent="1" vertex="1">
          <mxGeometry x="1094.8999999999999" y="3140" width="224.16" height="90" as="geometry" />
        </mxCell>
        <mxCell id="PJCvSGtDHQ5dcLCHLzGS-5" value="&lt;font style=&quot;&quot;&gt;&lt;font style=&quot;font-size: 13px;&quot;&gt;appsettings.json&lt;/font&gt;&lt;br&gt;&lt;span style=&quot;font-size: 17px;&quot;&gt;&amp;nbsp;(&lt;/span&gt;&lt;font style=&quot;font-size: 12px;&quot;&gt;Token key, Connection database)&lt;/font&gt;&lt;br&gt;&lt;/font&gt;" style="rounded=1;whiteSpace=wrap;html=1;fillColor=#fad9d5;strokeColor=#ae4132;verticalAlign=top;" parent="1" vertex="1">
          <mxGeometry x="939.0699999999995" y="3155" width="138.4" height="60" as="geometry" />
        </mxCell>
        <mxCell id="PJCvSGtDHQ5dcLCHLzGS-7" value="&lt;font style=&quot;&quot;&gt;&lt;font style=&quot;font-size: 14px; font-weight: bold;&quot;&gt;Data&lt;/font&gt;&lt;br&gt;&lt;b&gt;&lt;font style=&quot;font-size: 13px;&quot;&gt;Seed.cs&lt;/font&gt;&lt;/b&gt;&lt;br&gt;SeedData(IApplicationBuilder applicationBuilder)&lt;br&gt;&lt;br&gt;&lt;/font&gt;" style="shape=parallelogram;perimeter=parallelogramPerimeter;whiteSpace=wrap;html=1;fixedSize=1;fillColor=#cdeb8b;strokeColor=#36393d;verticalAlign=top;" parent="1" vertex="1">
          <mxGeometry x="1057.24" y="3249" width="300" height="60" as="geometry" />
        </mxCell>
        <mxCell id="PJCvSGtDHQ5dcLCHLzGS-19" value="&lt;b&gt;DTO(Data Transfer Objects)&lt;/b&gt;&lt;br&gt;UserDto.cs&lt;br&gt;Username, Password,&amp;nbsp;AccessToken,&amp;nbsp;RefreshToken" style="shape=trapezoid;perimeter=trapezoidPerimeter;whiteSpace=wrap;html=1;fixedSize=1;verticalAlign=top;fillColor=#eeeeee;strokeColor=#36393d;" parent="1" vertex="1">
          <mxGeometry x="624.5699999999999" y="1810" width="246.76" height="75" as="geometry" />
        </mxCell>
        <mxCell id="PJCvSGtDHQ5dcLCHLzGS-22" value="&lt;font style=&quot;font-size: 15px;&quot;&gt;&lt;b&gt;&lt;span style=&quot;border-color: var(--border-color);&quot;&gt;&lt;font style=&quot;border-color: var(--border-color); font-size: 15px;&quot;&gt;UserDto&lt;/font&gt;&lt;/span&gt;.cs&lt;/b&gt;&lt;/font&gt;&lt;br style=&quot;border-color: var(--border-color);&quot;&gt;&lt;font style=&quot;border-color: var(--border-color);&quot;&gt;Part of properties&lt;/font&gt;" style="shape=trapezoid;perimeter=trapezoidPerimeter;whiteSpace=wrap;html=1;fixedSize=1;verticalAlign=top;fillColor=#f5f5f5;strokeColor=#666666;gradientColor=#b3b3b3;" parent="1" vertex="1">
          <mxGeometry x="556.83" y="2300" width="120" height="45" as="geometry" />
        </mxCell>
        <mxCell id="4eplbEpVYe0Zt10zzCRj-1" value="" style="rounded=0;whiteSpace=wrap;html=1;fillColor=#f9f7ed;strokeColor=#36393d;" parent="1" vertex="1">
          <mxGeometry x="381.52" y="1950" width="1188.48" height="57.5" as="geometry" />
        </mxCell>
        <mxCell id="4eplbEpVYe0Zt10zzCRj-2" value="&lt;font size=&quot;1&quot; style=&quot;&quot;&gt;&lt;b style=&quot;font-size: 15px;&quot;&gt;Controller&lt;/b&gt;&lt;/font&gt;" style="rounded=0;whiteSpace=wrap;html=1;fillColor=#dae8fc;strokeColor=#6c8ebf;" parent="1" vertex="1">
          <mxGeometry x="601.81" y="1958.75" width="90" height="40" as="geometry" />
        </mxCell>
        <mxCell id="4eplbEpVYe0Zt10zzCRj-3" value="&lt;font style=&quot;border-color: var(--border-color);&quot;&gt;&lt;span style=&quot;font-size: 16px;&quot;&gt;&lt;b&gt;Interface&lt;/b&gt;&lt;/span&gt;&lt;br&gt;&lt;/font&gt;" style="shape=dataStorage;whiteSpace=wrap;html=1;fixedSize=1;fillColor=#d0cee2;strokeColor=#56517e;" parent="1" vertex="1">
          <mxGeometry x="956.9599999999998" y="1958.75" width="141.13" height="40" as="geometry" />
        </mxCell>
        <mxCell id="4eplbEpVYe0Zt10zzCRj-4" value="&lt;font style=&quot;&quot;&gt;&lt;b style=&quot;&quot;&gt;&lt;font style=&quot;font-size: 15px;&quot;&gt;Repository&lt;/font&gt;&lt;/b&gt;&lt;br&gt;&lt;/font&gt;" style="rounded=1;whiteSpace=wrap;html=1;fillColor=#bac8d3;strokeColor=#23445d;verticalAlign=middle;" parent="1" vertex="1">
          <mxGeometry x="835.6899999999998" y="1958.75" width="102.54" height="40" as="geometry" />
        </mxCell>
        <mxCell id="4eplbEpVYe0Zt10zzCRj-5" value="&lt;font size=&quot;1&quot; style=&quot;&quot;&gt;&lt;b style=&quot;font-size: 14px;&quot;&gt;View&lt;/b&gt;&lt;/font&gt;" style="ellipse;whiteSpace=wrap;html=1;fillColor=#b0e3e6;strokeColor=#0e8088;" parent="1" vertex="1">
          <mxGeometry x="396.96" y="1963.75" width="90" height="30" as="geometry" />
        </mxCell>
        <mxCell id="4eplbEpVYe0Zt10zzCRj-6" value="&lt;font size=&quot;1&quot; style=&quot;&quot;&gt;&lt;b style=&quot;font-size: 15px;&quot;&gt;ViewModel&lt;/b&gt;&lt;/font&gt;" style="rounded=0;whiteSpace=wrap;html=1;fillColor=#d5e8d4;strokeColor=#82b366;" parent="1" vertex="1">
          <mxGeometry x="496.96" y="1958.75" width="90" height="40" as="geometry" />
        </mxCell>
        <mxCell id="4eplbEpVYe0Zt10zzCRj-7" value="&lt;font size=&quot;1&quot; style=&quot;&quot;&gt;&lt;b style=&quot;font-size: 15px;&quot;&gt;Model&lt;/b&gt;&lt;/font&gt;" style="shape=hexagon;perimeter=hexagonPerimeter2;whiteSpace=wrap;html=1;fixedSize=1;fillColor=#f5f5f5;strokeColor=#666666;gradientColor=#b3b3b3;" parent="1" vertex="1">
          <mxGeometry x="706.96" y="1958.75" width="111.25" height="40" as="geometry" />
        </mxCell>
        <mxCell id="4eplbEpVYe0Zt10zzCRj-8" value="&lt;font style=&quot;font-size: 14px;&quot;&gt;&lt;b&gt;Entity Framework&lt;/b&gt;&lt;/font&gt;" style="shape=parallelogram;perimeter=parallelogramPerimeter;whiteSpace=wrap;html=1;fixedSize=1;fillColor=#cdeb8b;strokeColor=#36393d;" parent="1" vertex="1">
          <mxGeometry x="1116.33" y="1958.75" width="155.63" height="40" as="geometry" />
        </mxCell>
        <mxCell id="4eplbEpVYe0Zt10zzCRj-9" value="&lt;font style=&quot;&quot;&gt;&lt;b style=&quot;&quot;&gt;&lt;font style=&quot;font-size: 15px;&quot;&gt;Services&lt;/font&gt;&lt;/b&gt;&lt;br&gt;&lt;/font&gt;" style="rounded=1;whiteSpace=wrap;html=1;fillColor=#fff2cc;strokeColor=#d6b656;verticalAlign=middle;" parent="1" vertex="1">
          <mxGeometry x="1295.1299999999999" y="1958.75" width="102.54" height="40" as="geometry" />
        </mxCell>
        <mxCell id="4eplbEpVYe0Zt10zzCRj-10" value="&lt;span style=&quot;font-size: 15px;&quot;&gt;&lt;b&gt;DTO Model&lt;/b&gt;&lt;/span&gt;" style="shape=trapezoid;perimeter=trapezoidPerimeter;whiteSpace=wrap;html=1;fixedSize=1;verticalAlign=middle;fillColor=#f5f5f5;strokeColor=#666666;gradientColor=#b3b3b3;" parent="1" vertex="1">
          <mxGeometry x="1422.97" y="1958.75" width="117.03" height="41.25" as="geometry" />
        </mxCell>
      </root>
    </mxGraphModel>
  </diagram>
</mxfile>
